<?xml version="1.0" encoding="UTF-8" standalone="no"?>
<svg
   xmlns:dc="http://purl.org/dc/elements/1.1/"
   xmlns:cc="http://creativecommons.org/ns#"
   xmlns:rdf="http://www.w3.org/1999/02/22-rdf-syntax-ns#"
   xmlns:svg="http://www.w3.org/2000/svg"
   xmlns="http://www.w3.org/2000/svg"
   version="1.1"
   id="svg4387"
   viewBox="0 0 180 68.14286"
   height="19.23143mm"
   width="50.799999mm">
  <defs
     id="defs4389">
    <marker
       style="overflow:visible"
       id="marker5464"
       refX="0"
       refY="0"
       orient="auto">
      <path
         transform="matrix(-0.8,0,0,-0.8,-10,0)"
         style="fill:#000000;fill-opacity:1;fill-rule:evenodd;stroke:#000000;stroke-width:1pt;stroke-opacity:1"
         d="M 0,0 5,-5 -12.5,0 5,5 0,0 Z"
         id="path5466" />
    </marker>
    <marker
       style="overflow:visible"
       id="marker5424"
       refX="0"
       refY="0"
       orient="auto">
      <path
         transform="matrix(0.8,0,0,0.8,5.92,0.8)"
         style="fill:#000000;fill-opacity:1;fill-rule:evenodd;stroke:#000000;stroke-width:1pt;stroke-opacity:1"
         d="m -2.5,-1 c 0,2.76 -2.24,5 -5,5 -2.76,0 -5,-2.24 -5,-5 0,-2.76 2.24,-5 5,-5 2.76,0 5,2.24 5,5 z"
         id="path5426" />
    </marker>
    <marker
       style="overflow:visible"
       id="marker5390"
       refX="0"
       refY="0"
       orient="auto">
      <path
         transform="matrix(0.8,0,0,0.8,5.92,0.8)"
         style="fill:#000000;fill-opacity:1;fill-rule:evenodd;stroke:#000000;stroke-width:1pt;stroke-opacity:1"
         d="m -2.5,-1 c 0,2.76 -2.24,5 -5,5 -2.76,0 -5,-2.24 -5,-5 0,-2.76 2.24,-5 5,-5 2.76,0 5,2.24 5,5 z"
         id="path5392" />
    </marker>
    <marker
       orient="auto"
       refY="0"
       refX="0"
       id="marker11464"
       style="overflow:visible">
      <path
         id="path11466"
         d="m -2.5,-1 c 0,2.76 -2.24,5 -5,5 -2.76,0 -5,-2.24 -5,-5 0,-2.76 2.24,-5 5,-5 2.76,0 5,2.24 5,5 z"
         style="fill:#000000;fill-opacity:1;fill-rule:evenodd;stroke:#000000;stroke-width:1pt;stroke-opacity:1"
         transform="matrix(0.8,0,0,0.8,5.92,0.8)" />
    </marker>
    <marker
       orient="auto"
       refY="0"
       refX="0"
       id="marker11552"
       style="overflow:visible">
      <path
         id="path11554"
         d="m -2.5,-1 c 0,2.76 -2.24,5 -5,5 -2.76,0 -5,-2.24 -5,-5 0,-2.76 2.24,-5 5,-5 2.76,0 5,2.24 5,5 z"
         style="fill:#000000;fill-opacity:1;fill-rule:evenodd;stroke:#000000;stroke-width:1pt;stroke-opacity:1"
         transform="matrix(0.8,0,0,0.8,5.92,0.8)" />
    </marker>
    <marker
       orient="auto"
       refY="0"
       refX="0"
       id="marker6108"
       style="overflow:visible">
      <path
         id="path6110"
         d="M 0,0 5,-5 -12.5,0 5,5 0,0 Z"
         style="fill:#000000;fill-opacity:1;fill-rule:evenodd;stroke:#000000;stroke-width:1pt;stroke-opacity:1"
         transform="matrix(-0.8,0,0,-0.8,-10,0)" />
    </marker>
    <marker
       style="overflow:visible"
       id="marker4493"
       refX="0"
       refY="0"
       orient="auto">
      <path
         transform="matrix(0.8,0,0,0.8,5.92,0.8)"
         style="fill:#000000;fill-opacity:1;fill-rule:evenodd;stroke:#000000;stroke-width:1pt;stroke-opacity:1"
         d="m -2.5,-1 c 0,2.76 -2.24,5 -5,5 -2.76,0 -5,-2.24 -5,-5 0,-2.76 2.24,-5 5,-5 2.76,0 5,2.24 5,5 z"
         id="path4495" />
    </marker>
    <marker
       style="overflow:visible"
       id="marker4539"
       refX="0"
       refY="0"
       orient="auto">
      <path
         transform="matrix(0.8,0,0,0.8,5.92,0.8)"
         style="fill:#000000;fill-opacity:1;fill-rule:evenodd;stroke:#000000;stroke-width:1pt;stroke-opacity:1"
         d="m -2.5,-1 c 0,2.76 -2.24,5 -5,5 -2.76,0 -5,-2.24 -5,-5 0,-2.76 2.24,-5 5,-5 2.76,0 5,2.24 5,5 z"
         id="path4541" />
    </marker>
    <marker
       orient="auto"
       refY="0"
       refX="0"
       id="marker4761"
       style="overflow:visible">
      <path
         id="path4763"
         d="m -2.5,-1 c 0,2.76 -2.24,5 -5,5 -2.76,0 -5,-2.24 -5,-5 0,-2.76 2.24,-5 5,-5 2.76,0 5,2.24 5,5 z"
         style="fill:#000000;fill-opacity:1;fill-rule:evenodd;stroke:#000000;stroke-width:1pt;stroke-opacity:1"
         transform="matrix(0.8,0,0,0.8,5.92,0.8)" />
    </marker>
    <marker
       orient="auto"
       refY="0"
       refX="0"
       id="marker4819"
       style="overflow:visible">
      <path
         id="path4821"
         d="m -2.5,-1 c 0,2.76 -2.24,5 -5,5 -2.76,0 -5,-2.24 -5,-5 0,-2.76 2.24,-5 5,-5 2.76,0 5,2.24 5,5 z"
         style="fill:#000000;fill-opacity:1;fill-rule:evenodd;stroke:#000000;stroke-width:1pt;stroke-opacity:1"
         transform="matrix(0.8,0,0,0.8,5.92,0.8)" />
    </marker>
  </defs>
  <metadata
     id="metadata4392">
    <rdf:RDF>
      <cc:Work
         rdf:about="">
        <dc:format>image/svg+xml</dc:format>
        <dc:type
           rdf:resource="http://purl.org/dc/dcmitype/StillImage" />
        <dc:title></dc:title>
      </cc:Work>
    </rdf:RDF>
  </metadata>
  <g
     transform="translate(-292.43531,-308.65864)"
     id="layer1">
    <g
       id="g8158">
      <rect
         style="opacity:1;fill:#eaf3ff;fill-opacity:1;stroke:#000000;stroke-width:0.95012903;stroke-miterlimit:10;stroke-dasharray:0.95012906, 0.95012906;stroke-dashoffset:0;stroke-opacity:1"
         id="rect5108"
         width="179.04987"
         height="67.192734"
         x="292.91037"
         y="309.1337"
         ry="27.877834" />
      <g
         style="font-style:normal;font-weight:normal;font-size:90px;line-height:125%;font-family:sans-serif;letter-spacing:0px;word-spacing:0px;fill:#000000;fill-opacity:1;stroke:none;stroke-width:1px;stroke-linecap:butt;stroke-linejoin:miter;stroke-opacity:1"
         id="text12696-3">
        <path
           d="m 331.99915,345.58032 -0.0879,-2.96631 q -1.80175,1.77979 -3.66943,2.5708 -1.8457,0.79102 -3.88916,0.79102 -1.88965,0 -3.22998,-0.4834 -1.34033,-0.4834 -2.21924,-1.31836 -0.85693,-0.85693 -1.27441,-1.99951 -0.39551,-1.14258 -0.39551,-2.48291 0,-3.31787 2.46094,-5.18555 2.48291,-1.88964 7.31689,-1.88964 l 4.57032,0 0,-1.9336 q 0,-1.95557 -1.25245,-3.12012 -1.25244,-1.18652 -3.82324,-1.18652 -1.86767,0 -3.6914,0.41748 -1.80176,0.41748 -3.73536,1.18652 l 0,-3.4497 q 0.7251,-0.26367 1.60401,-0.50537 0.90088,-0.26368 1.88965,-0.46143 0.98877,-0.19775 2.06543,-0.30762 1.07666,-0.13183 2.17529,-0.13183 1.99951,0 3.60351,0.43945 1.60401,0.43945 2.70264,1.34033 1.12061,0.90088 1.71387,2.26319 0.59326,1.3623 0.59326,3.208 l 0,15.20508 -3.42773,0 z m -0.41748,-10.0415 -4.85596,0 q -1.42822,0 -2.46094,0.28564 -1.03271,0.28565 -1.69189,0.81299 -0.65918,0.52734 -0.98877,1.27442 -0.30762,0.72509 -0.30762,1.64794 0,0.63721 0.19775,1.23047 0.19776,0.57129 0.63721,1.03272 0.43945,0.43945 1.14258,0.70312 0.70312,0.26367 1.71387,0.26367 1.31835,0 3.01025,-0.79101 1.71387,-0.81299 3.60352,-2.54883 l 0,-3.91113 z"
           style="font-style:normal;font-variant:normal;font-weight:normal;font-stretch:normal;font-size:45px;font-family:Consolas;-inkscape-font-specification:Consolas"
           id="path8156" />
      </g>
      <path
         id="path5388-9"
         d="m 437.98133,360.14387 -5.68369,0"
         style="opacity:1;fill:none;fill-opacity:1;stroke:#000000;stroke-width:1.90799999;stroke-miterlimit:10;stroke-dasharray:none;stroke-dashoffset:0;stroke-opacity:1;marker-start:url(#marker4761);marker-mid:url(#marker4819)" />
      <g
         style="font-style:normal;font-weight:normal;font-size:90px;line-height:125%;font-family:sans-serif;letter-spacing:0px;word-spacing:0px;fill:#000000;fill-opacity:1;stroke:none;stroke-width:1px;stroke-linecap:butt;stroke-linejoin:miter;stroke-opacity:1"
         id="text6614-3">
        <path
           d="m 447.81293,334.15454 q 0,2.74658 -0.76905,4.92188 -0.74707,2.15332 -2.15332,3.66943 -1.38427,1.49414 -3.38379,2.30713 -1.99951,0.79101 -4.50439,0.79101 -1.95557,0 -3.99902,-0.37353 -2.04346,-0.37354 -4.04297,-1.18652 l 0,-29.75098 3.82324,0 0,8.54736 -0.17578,4.08692 q 1.64795,-2.21924 3.51562,-3.12012 1.88965,-0.92285 4.04297,-0.92285 1.88965,0 3.31787,0.79101 1.42823,0.79102 2.39502,2.24121 0.9668,1.42823 1.4502,3.47168 0.4834,2.02149 0.4834,4.52637 z m -3.91114,0.17578 q 0,-1.73584 -0.26367,-3.18603 -0.2417,-1.4502 -0.79101,-2.48291 -0.54932,-1.03272 -1.40625,-1.60401 -0.85694,-0.59326 -2.04346,-0.59326 -0.7251,0 -1.47217,0.2417 -0.74707,0.21973 -1.56006,0.76904 -0.79101,0.52735 -1.69189,1.42823 -0.87891,0.8789 -1.88965,2.19726 l 0,10.70069 q 1.12061,0.43945 2.28516,0.70312 1.16455,0.2417 2.21923,0.2417 1.31836,0 2.50489,-0.41748 1.20849,-0.41748 2.10937,-1.38428 0.92285,-0.98877 1.4502,-2.59277 0.54931,-1.62598 0.54931,-4.021 z"
           style="font-style:normal;font-variant:normal;font-weight:normal;font-stretch:normal;font-size:45px;font-family:Consolas;-inkscape-font-specification:Consolas"
           id="path8153" />
      </g>
      <path
         style="opacity:1;fill:none;fill-opacity:1;stroke:#000000;stroke-width:1.9078784;stroke-miterlimit:10;stroke-dasharray:none;stroke-dashoffset:0;stroke-opacity:1;marker-start:url(#marker11464);marker-mid:url(#marker11552);marker-end:url(#marker6108)"
         d="m 326.89975,360.14387 99.6302,0"
         id="path5786" />
    </g>
  </g>
</svg>
