<?xml version="1.0" encoding="UTF-8" standalone="no"?>
<svg
   xmlns:dc="http://purl.org/dc/elements/1.1/"
   xmlns:cc="http://creativecommons.org/ns#"
   xmlns:rdf="http://www.w3.org/1999/02/22-rdf-syntax-ns#"
   xmlns:svg="http://www.w3.org/2000/svg"
   xmlns="http://www.w3.org/2000/svg"
   version="1.1"
   id="svg2"
   height="191.02007"
   width="603.53845">
  <defs
     id="defs4">
    <marker
       style="overflow:visible"
       id="Arrow1Lstart"
       refX="0"
       refY="0"
       orient="auto">
      <path
         transform="matrix(0.8,0,0,0.8,10,0)"
         style="fill-rule:evenodd;stroke:#000000;stroke-width:1pt;marker-start:none"
         d="M 0,0 5,-5 -12.5,0 5,5 0,0 Z"
         id="path3794" />
    </marker>
    <marker
       style="overflow:visible"
       id="Arrow1Lend"
       refX="0"
       refY="0"
       orient="auto">
      <path
         transform="matrix(-0.8,0,0,-0.8,-10,0)"
         style="fill-rule:evenodd;stroke:#000000;stroke-width:1pt;marker-start:none"
         d="M 0,0 5,-5 -12.5,0 5,5 0,0 Z"
         id="path3797" />
    </marker>
    <marker
       orient="auto"
       refY="0"
       refX="0"
       id="DotL"
       style="overflow:visible">
      <path
         id="path3822"
         d="m -2.5,-1 c 0,2.76 -2.24,5 -5,5 -2.76,0 -5,-2.24 -5,-5 0,-2.76 2.24,-5 5,-5 2.76,0 5,2.24 5,5 z"
         style="fill-rule:evenodd;stroke:#000000;stroke-width:1pt;marker-start:none;marker-end:none"
         transform="matrix(0.8,0,0,0.8,5.92,0.8)" />
    </marker>
    <marker
       orient="auto"
       refY="0"
       refX="0"
       id="DotL-1"
       style="overflow:visible">
      <path
         id="path3822-7"
         d="m -2.5,-1 c 0,2.76 -2.24,5 -5,5 -2.76,0 -5,-2.24 -5,-5 0,-2.76 2.24,-5 5,-5 2.76,0 5,2.24 5,5 z"
         style="fill-rule:evenodd;stroke:#000000;stroke-width:1pt;marker-start:none;marker-end:none"
         transform="matrix(0.8,0,0,0.8,5.92,0.8)" />
    </marker>
    <marker
       orient="auto"
       refY="0"
       refX="0"
       id="marker3046"
       style="overflow:visible">
      <path
         id="path3048"
         d="m -2.5,-1 c 0,2.76 -2.24,5 -5,5 -2.76,0 -5,-2.24 -5,-5 0,-2.76 2.24,-5 5,-5 2.76,0 5,2.24 5,5 z"
         style="fill-rule:evenodd;stroke:#000000;stroke-width:1pt;marker-start:none;marker-end:none"
         transform="matrix(0.8,0,0,0.8,5.92,0.8)" />
    </marker>
    <marker
       orient="auto"
       refY="0"
       refX="0"
       id="marker3050"
       style="overflow:visible">
      <path
         id="path3052"
         d="m -2.5,-1 c 0,2.76 -2.24,5 -5,5 -2.76,0 -5,-2.24 -5,-5 0,-2.76 2.24,-5 5,-5 2.76,0 5,2.24 5,5 z"
         style="fill-rule:evenodd;stroke:#000000;stroke-width:1pt;marker-start:none;marker-end:none"
         transform="matrix(0.8,0,0,0.8,5.92,0.8)" />
    </marker>
    <marker
       orient="auto"
       refY="0"
       refX="0"
       id="DotL-4"
       style="overflow:visible">
      <path
         id="path3822-0"
         d="m -2.5,-1 c 0,2.76 -2.24,5 -5,5 -2.76,0 -5,-2.24 -5,-5 0,-2.76 2.24,-5 5,-5 2.76,0 5,2.24 5,5 z"
         style="fill-rule:evenodd;stroke:#000000;stroke-width:1pt;marker-start:none;marker-end:none"
         transform="matrix(0.8,0,0,0.8,5.92,0.8)" />
    </marker>
    <marker
       orient="auto"
       refY="0"
       refX="0"
       id="marker3080"
       style="overflow:visible">
      <path
         id="path3082"
         d="m -2.5,-1 c 0,2.76 -2.24,5 -5,5 -2.76,0 -5,-2.24 -5,-5 0,-2.76 2.24,-5 5,-5 2.76,0 5,2.24 5,5 z"
         style="fill-rule:evenodd;stroke:#000000;stroke-width:1pt;marker-start:none;marker-end:none"
         transform="matrix(0.8,0,0,0.8,5.92,0.8)" />
    </marker>
    <marker
       style="overflow:visible"
       id="Arrow1Lend-9"
       refX="0"
       refY="0"
       orient="auto">
      <path
         transform="matrix(-0.8,0,0,-0.8,-10,0)"
         style="fill-rule:evenodd;stroke:#000000;stroke-width:1pt;marker-start:none"
         d="M 0,0 5,-5 -12.5,0 5,5 0,0 Z"
         id="path3797-4" />
    </marker>
    <marker
       orient="auto"
       refY="0"
       refX="0"
       id="DotL-5"
       style="overflow:visible">
      <path
         id="path3822-1"
         d="m -2.5,-1 c 0,2.76 -2.24,5 -5,5 -2.76,0 -5,-2.24 -5,-5 0,-2.76 2.24,-5 5,-5 2.76,0 5,2.24 5,5 z"
         style="fill-rule:evenodd;stroke:#000000;stroke-width:1pt;marker-start:none;marker-end:none"
         transform="matrix(0.8,0,0,0.8,5.92,0.8)" />
    </marker>
    <marker
       style="overflow:visible"
       id="Arrow1Lend-7"
       refX="0"
       refY="0"
       orient="auto">
      <path
         transform="matrix(-0.8,0,0,-0.8,-10,0)"
         style="fill-rule:evenodd;stroke:#000000;stroke-width:1pt;marker-start:none"
         d="M 0,0 5,-5 -12.5,0 5,5 0,0 Z"
         id="path3797-1" />
    </marker>
    <marker
       orient="auto"
       refY="0"
       refX="0"
       id="DotL-17"
       style="overflow:visible">
      <path
         id="path3822-4"
         d="m -2.5,-1 c 0,2.76 -2.24,5 -5,5 -2.76,0 -5,-2.24 -5,-5 0,-2.76 2.24,-5 5,-5 2.76,0 5,2.24 5,5 z"
         style="fill-rule:evenodd;stroke:#000000;stroke-width:1pt;marker-start:none;marker-end:none"
         transform="matrix(0.8,0,0,0.8,5.92,0.8)" />
    </marker>
    <marker
       style="overflow:visible"
       id="Arrow1Lend-0"
       refX="0"
       refY="0"
       orient="auto">
      <path
         transform="matrix(-0.8,0,0,-0.8,-10,0)"
         style="fill-rule:evenodd;stroke:#000000;stroke-width:1pt;marker-start:none"
         d="M 0,0 5,-5 -12.5,0 5,5 0,0 Z"
         id="path3797-9" />
    </marker>
    <marker
       orient="auto"
       refY="0"
       refX="0"
       id="DotL-15"
       style="overflow:visible">
      <path
         id="path3822-2"
         d="m -2.5,-1 c 0,2.76 -2.24,5 -5,5 -2.76,0 -5,-2.24 -5,-5 0,-2.76 2.24,-5 5,-5 2.76,0 5,2.24 5,5 z"
         style="fill-rule:evenodd;stroke:#000000;stroke-width:1pt;marker-start:none;marker-end:none"
         transform="matrix(0.8,0,0,0.8,5.92,0.8)" />
    </marker>
    <marker
       style="overflow:visible"
       id="Arrow1Lend-76"
       refX="0"
       refY="0"
       orient="auto">
      <path
         transform="matrix(-0.8,0,0,-0.8,-10,0)"
         style="fill-rule:evenodd;stroke:#000000;stroke-width:1pt;marker-start:none"
         d="M 0,0 5,-5 -12.5,0 5,5 0,0 Z"
         id="path3797-14" />
    </marker>
    <marker
       orient="auto"
       refY="0"
       refX="0"
       id="DotL-3"
       style="overflow:visible">
      <path
         id="path3822-22"
         d="m -2.5,-1 c 0,2.76 -2.24,5 -5,5 -2.76,0 -5,-2.24 -5,-5 0,-2.76 2.24,-5 5,-5 2.76,0 5,2.24 5,5 z"
         style="fill-rule:evenodd;stroke:#000000;stroke-width:1pt;marker-start:none;marker-end:none"
         transform="matrix(0.8,0,0,0.8,5.92,0.8)" />
    </marker>
    <marker
       style="overflow:visible"
       id="Arrow1Lend-1"
       refX="0"
       refY="0"
       orient="auto">
      <path
         transform="matrix(-0.8,0,0,-0.8,-10,0)"
         style="fill-rule:evenodd;stroke:#000000;stroke-width:1pt;marker-start:none"
         d="M 0,0 5,-5 -12.5,0 5,5 0,0 Z"
         id="path3797-6" />
    </marker>
    <marker
       orient="auto"
       refY="0"
       refX="0"
       id="DotL-18"
       style="overflow:visible">
      <path
         id="path3822-9"
         d="m -2.5,-1 c 0,2.76 -2.24,5 -5,5 -2.76,0 -5,-2.24 -5,-5 0,-2.76 2.24,-5 5,-5 2.76,0 5,2.24 5,5 z"
         style="fill-rule:evenodd;stroke:#000000;stroke-width:1pt;marker-start:none;marker-end:none"
         transform="matrix(0.8,0,0,0.8,5.92,0.8)" />
    </marker>
    <marker
       style="overflow:visible"
       id="Arrow1Lend-2"
       refX="0"
       refY="0"
       orient="auto">
      <path
         transform="matrix(-0.8,0,0,-0.8,-10,0)"
         style="fill-rule:evenodd;stroke:#000000;stroke-width:1pt;marker-start:none"
         d="M 0,0 5,-5 -12.5,0 5,5 0,0 Z"
         id="path3797-7" />
    </marker>
    <marker
       orient="auto"
       refY="0"
       refX="0"
       id="DotL-54"
       style="overflow:visible">
      <path
         id="path3822-3"
         d="m -2.5,-1 c 0,2.76 -2.24,5 -5,5 -2.76,0 -5,-2.24 -5,-5 0,-2.76 2.24,-5 5,-5 2.76,0 5,2.24 5,5 z"
         style="fill-rule:evenodd;stroke:#000000;stroke-width:1pt;marker-start:none;marker-end:none"
         transform="matrix(0.8,0,0,0.8,5.92,0.8)" />
    </marker>
    <marker
       style="overflow:visible"
       id="Arrow1Lend-12"
       refX="0"
       refY="0"
       orient="auto">
      <path
         transform="matrix(-0.8,0,0,-0.8,-10,0)"
         style="fill-rule:evenodd;stroke:#000000;stroke-width:1pt;marker-start:none"
         d="M 0,0 5,-5 -12.5,0 5,5 0,0 Z"
         id="path3797-3" />
    </marker>
  </defs>
  <metadata
     id="metadata7">
    <rdf:RDF>
      <cc:Work
         rdf:about="">
        <dc:format>image/svg+xml</dc:format>
        <dc:type
           rdf:resource="http://purl.org/dc/dcmitype/StillImage" />
        <dc:title></dc:title>
      </cc:Work>
    </rdf:RDF>
  </metadata>
  <g
     transform="translate(-482.39057,-148.13651)"
     id="layer1">
    <g
       id="g4419">
      <g
         style="font-style:italic;font-variant:normal;font-weight:normal;font-stretch:normal;font-size:32px;line-height:125%;font-family:'Century Schoolbook';-inkscape-font-specification:'Century Schoolbook Italic';text-align:start;letter-spacing:0px;word-spacing:0px;writing-mode:lr-tb;text-anchor:start;fill:#000000;fill-opacity:1;stroke:none"
         id="text3498">
        <path
           d="m 834.25641,235.81842 26.20312,0 0,4.38281 -26.20312,0 0,-4.38281 z m 0,11.27344 26.20312,0 0,4.38281 -26.20312,0 0,-4.38281 z"
           style="font-style:normal;font-weight:bold;font-size:48px;-inkscape-font-specification:'Century Schoolbook Bold'"
           id="path4399" />
      </g>
      <circle
         id="path3508"
         style="fill:#eaf3ff;fill-opacity:1;stroke:#000000;stroke-width:1;stroke-miterlimit:4;stroke-dasharray:1, 2;stroke-dashoffset:0;stroke-opacity:1"
         cx="555.14325"
         cy="243.64655"
         r="72.252678" />
      <g
         style="font-style:italic;font-variant:normal;font-weight:normal;font-stretch:normal;font-size:32px;line-height:125%;font-family:'Century Schoolbook';-inkscape-font-specification:'Century Schoolbook Italic';text-align:start;letter-spacing:0px;word-spacing:0px;writing-mode:lr-tb;text-anchor:start;fill:#000000;fill-opacity:1;stroke:none"
         id="text3510">
        <path
           d="m 525.32745,227.9149 -2.92187,0 0,-1.85937 q -0.39063,0.26562 -1.0625,0.75 -0.65625,0.46875 -1.28125,0.75 -0.73438,0.35937 -1.6875,0.59375 -0.95313,0.25 -2.23438,0.25 -2.35937,0 -4,-1.5625 -1.64062,-1.5625 -1.64062,-3.98438 0,-1.98437 0.84375,-3.20312 0.85937,-1.23438 2.4375,-1.9375 1.59375,-0.70313 3.82812,-0.95313 2.23438,-0.25 4.79688,-0.375 l 0,-0.45312 q 0,-1 -0.35938,-1.65625 -0.34375,-0.65625 -1,-1.03125 -0.625,-0.35938 -1.5,-0.48438 -0.875,-0.125 -1.82812,-0.125 -1.15625,0 -2.57813,0.3125 -1.42187,0.29688 -2.9375,0.875 l -0.15625,0 0,-2.98437 q 0.85938,-0.23438 2.48438,-0.51563 1.625,-0.28125 3.20312,-0.28125 1.84375,0 3.20313,0.3125 1.375,0.29688 2.375,1.03125 0.98437,0.71875 1.5,1.85938 0.51562,1.14062 0.51562,2.82812 l 0,11.84375 z m -2.92187,-4.29687 0,-4.85938 q -1.34375,0.0781 -3.17188,0.23438 -1.8125,0.15625 -2.875,0.45312 -1.26562,0.35938 -2.04687,1.125 -0.78125,0.75 -0.78125,2.07813 0,1.5 0.90625,2.26562 0.90625,0.75 2.76562,0.75 1.54688,0 2.82813,-0.59375 1.28125,-0.60937 2.375,-1.45312 z"
           style="font-style:normal;font-variant:normal;font-weight:normal;font-stretch:normal;font-family:sans-serif;-inkscape-font-specification:sans-serif"
           id="path4414" />
      </g>
      <g
         style="font-style:normal;font-variant:normal;font-weight:normal;font-stretch:normal;font-size:32px;line-height:125%;font-family:sans-serif;-inkscape-font-specification:'sans-serif, Normal';text-align:start;letter-spacing:0px;word-spacing:0px;writing-mode:lr-tb;text-anchor:start;fill:#000000;fill-opacity:1;stroke:none"
         id="text3514">
        <path
           d="m 599.33923,224.00528 q 0,2.1875 -0.625,3.9375 -0.60937,1.75 -1.65625,2.9375 -1.10937,1.23437 -2.4375,1.85937 -1.32812,0.60938 -2.92187,0.60938 -1.48438,0 -2.59375,-0.35938 -1.10938,-0.34375 -2.1875,-0.9375 l -0.1875,0.8125 -2.75,0 0,-24.3125 2.9375,0 0,8.6875 q 1.23437,-1.01562 2.625,-1.65625 1.39062,-0.65625 3.125,-0.65625 3.09375,0 4.875,2.375 1.79687,2.375 1.79687,6.70313 z m -3.03125,0.0781 q 0,-3.125 -1.03125,-4.73437 -1.03125,-1.625 -3.32812,-1.625 -1.28125,0 -2.59375,0.5625 -1.3125,0.54687 -2.4375,1.42187 l 0,10 q 1.25,0.5625 2.14062,0.78125 0.90625,0.21875 2.04688,0.21875 2.4375,0 3.8125,-1.59375 1.39062,-1.60937 1.39062,-5.03125 z"
           id="path4411" />
      </g>
      <circle
         id="path3518"
         style="fill:#000000;fill-opacity:1;stroke:none"
         cx="518.73376"
         cy="201.21123"
         r="4.4408641" />
      <circle
         id="path3520"
         style="fill:#000000;fill-opacity:1;stroke:none"
         cx="592.22247"
         cy="201.21123"
         r="4.4408641" />
      <path
         style="fill:none;stroke:#000000;stroke-width:1;stroke-miterlimit:4;stroke-dashoffset:9.60000038;stroke-opacity:1;marker-end:url(#Arrow1Lend)"
         d="m 523.09047,201.21122 63.8039,0"
         id="path3522" />
      <circle
         style="fill:#000000;fill-opacity:1;stroke:none"
         id="path3524"
         cx="592.22247"
         cy="274.4328"
         r="4.4408641" />
      <g
         style="font-style:normal;font-variant:normal;font-weight:normal;font-stretch:normal;font-size:32px;line-height:125%;font-family:sans-serif;-inkscape-font-specification:'sans-serif, Normal';text-align:start;letter-spacing:0px;word-spacing:0px;writing-mode:lr-tb;text-anchor:start;fill:#000000;fill-opacity:1;stroke:none"
         id="text3526">
        <path
           d="m 585.74023,294.33832 q -1.46875,0.70312 -2.79687,1.09375 -1.3125,0.39062 -2.79688,0.39062 -1.89062,0 -3.46875,-0.54687 -1.57812,-0.5625 -2.70312,-1.6875 -1.14063,-1.125 -1.76563,-2.84375 -0.625,-1.71875 -0.625,-4.01563 0,-4.28125 2.34375,-6.71875 2.35938,-2.4375 6.21875,-2.4375 1.5,0 2.9375,0.42188 1.45313,0.42187 2.65625,1.03125 l 0,3.26562 -0.15625,0 q -1.34375,-1.04687 -2.78125,-1.60937 -1.42187,-0.5625 -2.78125,-0.5625 -2.5,0 -3.95312,1.6875 -1.4375,1.67187 -1.4375,4.92187 0,3.15625 1.40625,4.85938 1.42187,1.6875 3.98437,1.6875 0.89063,0 1.8125,-0.23438 0.92188,-0.23437 1.65625,-0.60937 0.64063,-0.32813 1.20313,-0.6875 0.5625,-0.375 0.89062,-0.64063 l 0.15625,0 0,3.23438 z"
           id="path4408" />
      </g>
      <circle
         style="fill:#eaf3ff;fill-opacity:1;stroke:#000000;stroke-width:1;stroke-miterlimit:4;stroke-dasharray:1, 2;stroke-dashoffset:0;stroke-opacity:1"
         id="path3532"
         cx="749.42181"
         cy="243.64655"
         r="72.252678" />
      <g
         style="font-style:normal;font-variant:normal;font-weight:normal;font-stretch:normal;font-size:32px;line-height:125%;font-family:sans-serif;-inkscape-font-specification:'sans-serif, Normal';text-align:start;letter-spacing:0px;word-spacing:0px;writing-mode:lr-tb;text-anchor:start;fill:#000000;fill-opacity:1;stroke:none"
         id="text3538">
        <path
           d="m 805.77155,229.32912 -2.9375,0 0,-1.82813 q -1.26563,1.09375 -2.64063,1.70313 -1.375,0.60937 -2.98437,0.60937 -3.125,0 -4.96875,-2.40625 -1.82813,-2.40625 -1.82813,-6.67187 0,-2.21875 0.625,-3.95313 0.64063,-1.73437 1.71875,-2.95312 1.0625,-1.1875 2.46875,-1.8125 1.42188,-0.625 2.9375,-0.625 1.375,0 2.4375,0.29687 1.0625,0.28125 2.23438,0.89063 l 0,-7.5625 2.9375,0 0,24.3125 z m -2.9375,-4.29688 0,-10.01562 q -1.1875,-0.53125 -2.125,-0.73438 -0.9375,-0.20312 -2.04688,-0.20312 -2.46875,0 -3.84375,1.71875 -1.375,1.71875 -1.375,4.875 0,3.10937 1.0625,4.73437 1.0625,1.60938 3.40625,1.60938 1.25,0 2.53125,-0.54688 1.28125,-0.5625 2.39063,-1.4375 z"
           id="path4402" />
      </g>
      <circle
         style="fill:#000000;fill-opacity:1;stroke:none"
         id="path3542"
         cx="786.30627"
         cy="201.21121"
         r="4.4408641" />
      <circle
         style="fill:#000000;fill-opacity:1;stroke:none"
         id="path3546"
         cx="712.8175"
         cy="274.43277"
         r="4.4408641" />
      <g
         style="font-style:normal;font-variant:normal;font-weight:normal;font-stretch:normal;font-size:32px;line-height:125%;font-family:sans-serif;-inkscape-font-specification:'sans-serif, Normal';text-align:start;letter-spacing:0px;word-spacing:0px;writing-mode:lr-tb;text-anchor:start;fill:#000000;fill-opacity:1;stroke:none"
         id="text3548">
        <path
           d="m 729.31628,298.22739 q -1.46875,0.70312 -2.79687,1.09375 -1.3125,0.39062 -2.79688,0.39062 -1.89062,0 -3.46875,-0.54687 -1.57812,-0.5625 -2.70312,-1.6875 -1.14063,-1.125 -1.76563,-2.84375 -0.625,-1.71875 -0.625,-4.01563 0,-4.28125 2.34375,-6.71875 2.35938,-2.4375 6.21875,-2.4375 1.5,0 2.9375,0.42188 1.45313,0.42187 2.65625,1.03125 l 0,3.26562 -0.15625,0 q -1.34375,-1.04687 -2.78125,-1.60937 -1.42187,-0.5625 -2.78125,-0.5625 -2.5,0 -3.95312,1.6875 -1.4375,1.67187 -1.4375,4.92187 0,3.15625 1.40625,4.85938 1.42187,1.6875 3.98437,1.6875 0.89063,0 1.8125,-0.23438 0.92188,-0.23437 1.65625,-0.60937 0.64063,-0.32813 1.20313,-0.6875 0.5625,-0.375 0.89062,-0.64063 l 0.15625,0 0,3.23438 z"
           id="path4405" />
      </g>
      <path
         style="fill:none;stroke:#000000;stroke-width:1;stroke-miterlimit:4;stroke-dashoffset:9.60000038;stroke-opacity:1;marker-end:url(#Arrow1Lend)"
         d="m 715.11365,273.70912 c 33.88326,-7.2831 56.82309,-27.52 70.65654,-67.58211"
         id="path4470" />
      <ellipse
         ry="95.010033"
         rx="106.19379"
         cy="243.64655"
         cx="979.23523"
         style="fill:#eaf3ff;fill-opacity:1;stroke:#000000;stroke-width:1;stroke-miterlimit:4;stroke-dasharray:1, 2;stroke-dashoffset:0;stroke-opacity:1"
         id="path3558" />
      <path
         style="fill:none;stroke:#000000;stroke-width:1;stroke-miterlimit:4;stroke-dashoffset:9.60000038;stroke-opacity:1;marker-end:url(#Arrow1Lend)"
         d="m 906.4976,217.4997 c 7.2831,33.88326 27.52004,56.82309 67.58214,70.65654"
         id="path4576" />
      <g
         style="font-style:normal;font-variant:normal;font-weight:normal;font-stretch:normal;font-size:32px;line-height:125%;font-family:sans-serif;-inkscape-font-specification:'sans-serif, Normal';text-align:start;letter-spacing:0px;word-spacing:0px;writing-mode:lr-tb;text-anchor:start;fill:#000000;fill-opacity:1;stroke:none"
         id="text3560">
        <path
           d="m 901.16852,240.0596 -2.92188,0 0,-1.85937 q -0.39062,0.26562 -1.0625,0.75 -0.65625,0.46875 -1.28125,0.75 -0.73437,0.35937 -1.6875,0.59375 -0.95312,0.25 -2.23437,0.25 -2.35938,0 -4,-1.5625 -1.64063,-1.5625 -1.64063,-3.98438 0,-1.98437 0.84375,-3.20312 0.85938,-1.23438 2.4375,-1.9375 1.59375,-0.70313 3.82813,-0.95313 2.23437,-0.25 4.79687,-0.375 l 0,-0.45312 q 0,-1 -0.35937,-1.65625 -0.34375,-0.65625 -1,-1.03125 -0.625,-0.35938 -1.5,-0.48438 -0.875,-0.125 -1.82813,-0.125 -1.15625,0 -2.57812,0.3125 -1.42188,0.29688 -2.9375,0.875 l -0.15625,0 0,-2.98437 q 0.85937,-0.23438 2.48437,-0.51563 1.625,-0.28125 3.20313,-0.28125 1.84375,0 3.20312,0.3125 1.375,0.29688 2.375,1.03125 0.98438,0.71875 1.5,1.85938 0.51563,1.14062 0.51563,2.82812 l 0,11.84375 z m -2.92188,-4.29687 0,-4.85938 q -1.34375,0.0781 -3.17187,0.23438 -1.8125,0.15625 -2.875,0.45312 -1.26563,0.35938 -2.04688,1.125 -0.78125,0.75 -0.78125,2.07813 0,1.5 0.90625,2.26562 0.90625,0.75 2.76563,0.75 1.54687,0 2.82812,-0.59375 1.28125,-0.60937 2.375,-1.45312 z"
           id="path4396" />
      </g>
      <g
         style="font-style:normal;font-variant:normal;font-weight:normal;font-stretch:normal;font-size:32px;line-height:125%;font-family:sans-serif;-inkscape-font-specification:'sans-serif, Normal';text-align:start;letter-spacing:0px;word-spacing:0px;writing-mode:lr-tb;text-anchor:start;fill:#000000;fill-opacity:1;stroke:none"
         id="text3564">
        <path
           d="m 987.97729,198.80936 q 0,2.1875 -0.625,3.9375 -0.60937,1.75 -1.65625,2.9375 -1.10937,1.23437 -2.4375,1.85937 -1.32812,0.60938 -2.92187,0.60938 -1.48438,0 -2.59375,-0.35938 -1.10938,-0.34375 -2.1875,-0.9375 l -0.1875,0.8125 -2.75,0 0,-24.3125 2.9375,0 0,8.6875 q 1.23437,-1.01562 2.625,-1.65625 1.39062,-0.65625 3.125,-0.65625 3.09375,0 4.875,2.375 1.79687,2.375 1.79687,6.70313 z m -3.03125,0.0781 q 0,-3.125 -1.03125,-4.73437 -1.03125,-1.625 -3.32812,-1.625 -1.28125,0 -2.59375,0.5625 -1.3125,0.54687 -2.4375,1.42187 l 0,10 q 1.25,0.5625 2.14062,0.78125 0.90625,0.21875 2.04688,0.21875 2.4375,0 3.8125,-1.59375 1.39062,-1.60937 1.39062,-5.03125 z"
           id="path4393" />
      </g>
      <circle
         r="4.4408641"
         cy="216.47723"
         cx="905.74646"
         style="fill:#000000;fill-opacity:1;stroke:none"
         id="path3568" />
      <circle
         r="4.4408641"
         cy="216.47723"
         cx="979.23517"
         style="fill:#000000;fill-opacity:1;stroke:none"
         id="path3570" />
      <path
         id="path3572"
         d="m 910.10316,216.47724 63.80388,0"
         style="fill:none;stroke:#000000;stroke-width:1;stroke-miterlimit:4;stroke-dashoffset:9.60000038;stroke-opacity:1;marker-end:url(#Arrow1Lend)" />
      <circle
         r="4.4408641"
         cy="289.69882"
         cx="979.23517"
         id="path3574"
         style="fill:#000000;fill-opacity:1;stroke:none" />
      <g
         style="font-style:normal;font-variant:normal;font-weight:normal;font-stretch:normal;font-size:32px;line-height:125%;font-family:sans-serif;-inkscape-font-specification:'sans-serif, Normal';text-align:start;letter-spacing:0px;word-spacing:0px;writing-mode:lr-tb;text-anchor:start;fill:#000000;fill-opacity:1;stroke:none"
         id="text3576">
        <path
           d="m 986.03979,316.49341 q -1.46875,0.70312 -2.79687,1.09375 -1.3125,0.39062 -2.79688,0.39062 -1.89062,0 -3.46875,-0.54687 -1.57812,-0.5625 -2.70312,-1.6875 -1.14063,-1.125 -1.76563,-2.84375 -0.625,-1.71875 -0.625,-4.01563 0,-4.28125 2.34375,-6.71875 2.35938,-2.4375 6.21875,-2.4375 1.5,0 2.9375,0.42188 1.45313,0.42187 2.65625,1.03125 l 0,3.26562 -0.15625,0 q -1.34375,-1.04687 -2.78125,-1.60937 -1.42187,-0.5625 -2.78125,-0.5625 -2.5,0 -3.95312,1.6875 -1.4375,1.67187 -1.4375,4.92187 0,3.15625 1.40625,4.85938 1.42187,1.6875 3.98437,1.6875 0.89063,0 1.8125,-0.23438 0.92188,-0.23437 1.65625,-0.60937 0.64063,-0.32813 1.20313,-0.6875 0.5625,-0.375 0.89062,-0.64063 l 0.15625,0 0,3.23438 z"
           id="path4387" />
      </g>
      <path
         style="fill:none;stroke:#000000;stroke-width:1;stroke-miterlimit:4;stroke-dashoffset:9.60000038;stroke-opacity:1;marker-end:url(#Arrow1Lend)"
         d="m 979.36931,219.75383 -0.1768,64.42262"
         id="path3580" />
      <g
         style="font-style:normal;font-variant:normal;font-weight:normal;font-stretch:normal;font-size:32px;line-height:125%;font-family:sans-serif;-inkscape-font-specification:'sans-serif, Normal';text-align:start;letter-spacing:0px;word-spacing:0px;writing-mode:lr-tb;text-anchor:start;fill:#000000;fill-opacity:1;stroke:none"
         id="text3582">
        <path
           d="m 1069.9487,244.5596 -2.9375,0 0,-1.82812 q -1.2656,1.09375 -2.6406,1.70312 -1.375,0.60938 -2.9844,0.60938 -3.125,0 -4.9687,-2.40625 -1.8281,-2.40625 -1.8281,-6.67188 0,-2.21875 0.625,-3.95312 0.6406,-1.73438 1.7187,-2.95313 1.0625,-1.1875 2.4688,-1.8125 1.4218,-0.625 2.9375,-0.625 1.375,0 2.4375,0.29688 1.0625,0.28125 2.2343,0.89062 l 0,-7.5625 2.9375,0 0,24.3125 z m -2.9375,-4.29687 0,-10.01563 q -1.1875,-0.53125 -2.125,-0.73437 -0.9375,-0.20313 -2.0468,-0.20313 -2.4688,0 -3.8438,1.71875 -1.375,1.71875 -1.375,4.875 0,3.10938 1.0625,4.73438 1.0625,1.60937 3.4063,1.60937 1.25,0 2.5312,-0.54687 1.2813,-0.5625 2.3906,-1.4375 z"
           id="path4390" />
      </g>
      <circle
         r="4.4408641"
         cy="216.47723"
         cx="1052.868"
         style="fill:#000000;fill-opacity:1;stroke:none"
         id="path3586" />
      <path
         id="path3588"
         d="m 983.62234,216.47724 63.80386,0"
         style="fill:none;stroke:#000000;stroke-width:1;stroke-miterlimit:4;stroke-dashoffset:9.60000038;stroke-opacity:1;marker-end:url(#Arrow1Lend)" />
      <path
         style="fill:none;stroke:#000000;stroke-width:1;stroke-miterlimit:4;stroke-dashoffset:9.60000038;stroke-opacity:1;marker-end:url(#Arrow1Lend)"
         d="M 908.30506,213.13993 C 946.33204,157.49527 1010.731,157.9744 1049.0434,212.83187"
         id="path3655" />
      <path
         style="fill:none;stroke:#000000;stroke-width:1;stroke-miterlimit:4;stroke-dashoffset:9.60000038;stroke-opacity:1;marker-end:url(#Arrow1Lend)"
         d="m 983.20263,290.80791 c 18.12037,15.5689 28.02937,32.3809 -4.2055,32.3738 -33.5575,-0.01 -23.2444,-15.4877 -4.6208,-32.197"
         id="path4803" />
      <path
         id="path4472"
         d="m 980.31677,288.70912 c 33.88323,-7.2831 56.82303,-27.52 70.65653,-67.58211"
         style="fill:none;stroke:#000000;stroke-width:1;stroke-miterlimit:4;stroke-dashoffset:9.60000038;stroke-opacity:1;marker-end:url(#Arrow1Lend)" />
      <g
         style="font-style:italic;font-variant:normal;font-weight:normal;font-stretch:normal;font-size:32px;line-height:125%;font-family:'Century Schoolbook';-inkscape-font-specification:'Century Schoolbook Italic';text-align:start;letter-spacing:0px;word-spacing:0px;writing-mode:lr-tb;text-anchor:start;fill:#000000;fill-opacity:1;stroke:none"
         id="text4343">
        <path
           d="m 639.97784,234.45905 3.11719,-3.11719 9.21094,9.25781 9.1875,-9.25781 3.09375,3.11719 -9.16406,9.25781 9.16406,9.11719 -3.09375,3.11718 -9.1875,-9.14062 -9.21094,9.14062 -3.11719,-3.11718 9.21094,-9.11719 -9.21094,-9.25781 z"
           style="font-style:normal;font-weight:bold;font-size:48px;-inkscape-font-specification:'Century Schoolbook Bold'"
           id="path4417" />
      </g>
    </g>
  </g>
</svg>
