<?xml version="1.0" encoding="UTF-8" standalone="no"?>
<svg
   xmlns:dc="http://purl.org/dc/elements/1.1/"
   xmlns:cc="http://creativecommons.org/ns#"
   xmlns:rdf="http://www.w3.org/1999/02/22-rdf-syntax-ns#"
   xmlns:svg="http://www.w3.org/2000/svg"
   xmlns="http://www.w3.org/2000/svg"
   version="1.1"
   id="svg4387"
   viewBox="0 0 686.84708 199.4867"
   height="56.29958mm"
   width="193.84351mm">
  <defs
     id="defs4389">
    <marker
       style="overflow:visible"
       id="marker20088"
       refX="0"
       refY="0"
       orient="auto">
      <path
         transform="matrix(0.8,0,0,0.8,5.92,0.8)"
         style="fill:#000000;fill-opacity:1;fill-rule:evenodd;stroke:#000000;stroke-width:1pt;stroke-opacity:1"
         d="m -2.5,-1 c 0,2.76 -2.24,5 -5,5 -2.76,0 -5,-2.24 -5,-5 0,-2.76 2.24,-5 5,-5 2.76,0 5,2.24 5,5 z"
         id="path20090" />
    </marker>
    <marker
       style="overflow:visible"
       id="marker19886"
       refX="0"
       refY="0"
       orient="auto">
      <path
         transform="matrix(0.8,0,0,0.8,5.92,0.8)"
         style="fill:#000000;fill-opacity:1;fill-rule:evenodd;stroke:#000000;stroke-width:1pt;stroke-opacity:1"
         d="m -2.5,-1 c 0,2.76 -2.24,5 -5,5 -2.76,0 -5,-2.24 -5,-5 0,-2.76 2.24,-5 5,-5 2.76,0 5,2.24 5,5 z"
         id="path19888" />
    </marker>
    <marker
       style="overflow:visible"
       id="marker19690"
       refX="0"
       refY="0"
       orient="auto">
      <path
         transform="matrix(-0.8,0,0,-0.8,-10,0)"
         style="fill:#000000;fill-opacity:1;fill-rule:evenodd;stroke:#000000;stroke-width:1pt;stroke-opacity:1"
         d="M 0,0 5,-5 -12.5,0 5,5 0,0 Z"
         id="path19692" />
    </marker>
    <marker
       style="overflow:visible"
       id="marker19500"
       refX="0"
       refY="0"
       orient="auto">
      <path
         transform="matrix(0.8,0,0,0.8,5.92,0.8)"
         style="fill:#000000;fill-opacity:1;fill-rule:evenodd;stroke:#000000;stroke-width:1pt;stroke-opacity:1"
         d="m -2.5,-1 c 0,2.76 -2.24,5 -5,5 -2.76,0 -5,-2.24 -5,-5 0,-2.76 2.24,-5 5,-5 2.76,0 5,2.24 5,5 z"
         id="path19502" />
    </marker>
    <marker
       style="overflow:visible"
       id="marker19316"
       refX="0"
       refY="0"
       orient="auto">
      <path
         transform="matrix(0.8,0,0,0.8,5.92,0.8)"
         style="fill:#000000;fill-opacity:1;fill-rule:evenodd;stroke:#000000;stroke-width:1pt;stroke-opacity:1"
         d="m -2.5,-1 c 0,2.76 -2.24,5 -5,5 -2.76,0 -5,-2.24 -5,-5 0,-2.76 2.24,-5 5,-5 2.76,0 5,2.24 5,5 z"
         id="path19318" />
    </marker>
    <marker
       style="overflow:visible"
       id="marker8436"
       refX="0"
       refY="0"
       orient="auto">
      <path
         transform="matrix(-0.8,0,0,-0.8,-10,0)"
         style="fill:#000000;fill-opacity:1;fill-rule:evenodd;stroke:#000000;stroke-width:1pt;stroke-opacity:1"
         d="M 0,0 5,-5 -12.5,0 5,5 0,0 Z"
         id="path8438" />
    </marker>
    <marker
       style="overflow:visible"
       id="marker8306"
       refX="0"
       refY="0"
       orient="auto">
      <path
         transform="matrix(0.8,0,0,0.8,5.92,0.8)"
         style="fill:#000000;fill-opacity:1;fill-rule:evenodd;stroke:#000000;stroke-width:1pt;stroke-opacity:1"
         d="m -2.5,-1 c 0,2.76 -2.24,5 -5,5 -2.76,0 -5,-2.24 -5,-5 0,-2.76 2.24,-5 5,-5 2.76,0 5,2.24 5,5 z"
         id="path8308" />
    </marker>
    <marker
       style="overflow:visible"
       id="marker8182"
       refX="0"
       refY="0"
       orient="auto">
      <path
         transform="matrix(0.8,0,0,0.8,5.92,0.8)"
         style="fill:#000000;fill-opacity:1;fill-rule:evenodd;stroke:#000000;stroke-width:1pt;stroke-opacity:1"
         d="m -2.5,-1 c 0,2.76 -2.24,5 -5,5 -2.76,0 -5,-2.24 -5,-5 0,-2.76 2.24,-5 5,-5 2.76,0 5,2.24 5,5 z"
         id="path8184" />
    </marker>
    <marker
       orient="auto"
       refY="0"
       refX="0"
       id="marker6958"
       style="overflow:visible">
      <path
         id="path6960"
         d="m -2.5,-1 c 0,2.76 -2.24,5 -5,5 -2.76,0 -5,-2.24 -5,-5 0,-2.76 2.24,-5 5,-5 2.76,0 5,2.24 5,5 z"
         style="fill:#000000;fill-opacity:1;fill-rule:evenodd;stroke:#000000;stroke-width:1pt;stroke-opacity:1"
         transform="matrix(0.8,0,0,0.8,5.92,0.8)" />
    </marker>
    <marker
       orient="auto"
       refY="0"
       refX="0"
       id="marker6846"
       style="overflow:visible">
      <path
         id="path6848"
         d="m -2.5,-1 c 0,2.76 -2.24,5 -5,5 -2.76,0 -5,-2.24 -5,-5 0,-2.76 2.24,-5 5,-5 2.76,0 5,2.24 5,5 z"
         style="fill:#000000;fill-opacity:1;fill-rule:evenodd;stroke:#000000;stroke-width:1pt;stroke-opacity:1"
         transform="matrix(0.8,0,0,0.8,5.92,0.8)" />
    </marker>
    <marker
       style="overflow:visible"
       id="marker6536"
       refX="0"
       refY="0"
       orient="auto">
      <path
         transform="matrix(-0.8,0,0,-0.8,-10,0)"
         style="fill:#000000;fill-opacity:1;fill-rule:evenodd;stroke:#000000;stroke-width:1pt;stroke-opacity:1"
         d="M 0,0 5,-5 -12.5,0 5,5 0,0 Z"
         id="path6538" />
    </marker>
    <marker
       orient="auto"
       refY="0"
       refX="0"
       id="marker5783"
       style="overflow:visible">
      <path
         id="path5785"
         d="m -2.5,-1 c 0,2.76 -2.24,5 -5,5 -2.76,0 -5,-2.24 -5,-5 0,-2.76 2.24,-5 5,-5 2.76,0 5,2.24 5,5 z"
         style="fill:#000000;fill-opacity:1;fill-rule:evenodd;stroke:#000000;stroke-width:1pt;stroke-opacity:1"
         transform="matrix(0.8,0,0,0.8,5.92,0.8)" />
    </marker>
    <marker
       orient="auto"
       refY="0"
       refX="0"
       id="marker5689"
       style="overflow:visible">
      <path
         id="path5691"
         d="m -2.5,-1 c 0,2.76 -2.24,5 -5,5 -2.76,0 -5,-2.24 -5,-5 0,-2.76 2.24,-5 5,-5 2.76,0 5,2.24 5,5 z"
         style="fill:#000000;fill-opacity:1;fill-rule:evenodd;stroke:#000000;stroke-width:1pt;stroke-opacity:1"
         transform="matrix(0.8,0,0,0.8,5.92,0.8)" />
    </marker>
    <marker
       style="overflow:visible"
       id="marker5464"
       refX="0"
       refY="0"
       orient="auto">
      <path
         transform="matrix(-0.8,0,0,-0.8,-10,0)"
         style="fill:#000000;fill-opacity:1;fill-rule:evenodd;stroke:#000000;stroke-width:1pt;stroke-opacity:1"
         d="M 0,0 5,-5 -12.5,0 5,5 0,0 Z"
         id="path5466" />
    </marker>
    <marker
       style="overflow:visible"
       id="marker5424"
       refX="0"
       refY="0"
       orient="auto">
      <path
         transform="matrix(0.8,0,0,0.8,5.92,0.8)"
         style="fill:#000000;fill-opacity:1;fill-rule:evenodd;stroke:#000000;stroke-width:1pt;stroke-opacity:1"
         d="m -2.5,-1 c 0,2.76 -2.24,5 -5,5 -2.76,0 -5,-2.24 -5,-5 0,-2.76 2.24,-5 5,-5 2.76,0 5,2.24 5,5 z"
         id="path5426" />
    </marker>
    <marker
       style="overflow:visible"
       id="marker5390"
       refX="0"
       refY="0"
       orient="auto">
      <path
         transform="matrix(0.8,0,0,0.8,5.92,0.8)"
         style="fill:#000000;fill-opacity:1;fill-rule:evenodd;stroke:#000000;stroke-width:1pt;stroke-opacity:1"
         d="m -2.5,-1 c 0,2.76 -2.24,5 -5,5 -2.76,0 -5,-2.24 -5,-5 0,-2.76 2.24,-5 5,-5 2.76,0 5,2.24 5,5 z"
         id="path5392" />
    </marker>
    <marker
       orient="auto"
       refY="0"
       refX="0"
       id="marker11464"
       style="overflow:visible">
      <path
         id="path11466"
         d="m -2.5,-1 c 0,2.76 -2.24,5 -5,5 -2.76,0 -5,-2.24 -5,-5 0,-2.76 2.24,-5 5,-5 2.76,0 5,2.24 5,5 z"
         style="fill:#000000;fill-opacity:1;fill-rule:evenodd;stroke:#000000;stroke-width:1pt;stroke-opacity:1"
         transform="matrix(0.8,0,0,0.8,5.92,0.8)" />
    </marker>
    <marker
       orient="auto"
       refY="0"
       refX="0"
       id="marker11552"
       style="overflow:visible">
      <path
         id="path11554"
         d="m -2.5,-1 c 0,2.76 -2.24,5 -5,5 -2.76,0 -5,-2.24 -5,-5 0,-2.76 2.24,-5 5,-5 2.76,0 5,2.24 5,5 z"
         style="fill:#000000;fill-opacity:1;fill-rule:evenodd;stroke:#000000;stroke-width:1pt;stroke-opacity:1"
         transform="matrix(0.8,0,0,0.8,5.92,0.8)" />
    </marker>
    <marker
       orient="auto"
       refY="0"
       refX="0"
       id="marker6108"
       style="overflow:visible">
      <path
         id="path6110"
         d="M 0,0 5,-5 -12.5,0 5,5 0,0 Z"
         style="fill:#000000;fill-opacity:1;fill-rule:evenodd;stroke:#000000;stroke-width:1pt;stroke-opacity:1"
         transform="matrix(-0.8,0,0,-0.8,-10,0)" />
    </marker>
    <marker
       style="overflow:visible"
       id="marker5390-0"
       refX="0"
       refY="0"
       orient="auto">
      <path
         transform="matrix(0.8,0,0,0.8,5.92,0.8)"
         style="fill:#000000;fill-opacity:1;fill-rule:evenodd;stroke:#000000;stroke-width:1pt;stroke-opacity:1"
         d="m -2.5,-1 c 0,2.76 -2.24,5 -5,5 -2.76,0 -5,-2.24 -5,-5 0,-2.76 2.24,-5 5,-5 2.76,0 5,2.24 5,5 z"
         id="path5392-5" />
    </marker>
    <marker
       style="overflow:visible"
       id="marker5424-6"
       refX="0"
       refY="0"
       orient="auto">
      <path
         transform="matrix(0.8,0,0,0.8,5.92,0.8)"
         style="fill:#000000;fill-opacity:1;fill-rule:evenodd;stroke:#000000;stroke-width:1pt;stroke-opacity:1"
         d="m -2.5,-1 c 0,2.76 -2.24,5 -5,5 -2.76,0 -5,-2.24 -5,-5 0,-2.76 2.24,-5 5,-5 2.76,0 5,2.24 5,5 z"
         id="path5426-8" />
    </marker>
    <marker
       orient="auto"
       refY="0"
       refX="0"
       id="marker4761"
       style="overflow:visible">
      <path
         id="path4763"
         d="m -2.5,-1 c 0,2.76 -2.24,5 -5,5 -2.76,0 -5,-2.24 -5,-5 0,-2.76 2.24,-5 5,-5 2.76,0 5,2.24 5,5 z"
         style="fill:#000000;fill-opacity:1;fill-rule:evenodd;stroke:#000000;stroke-width:1pt;stroke-opacity:1"
         transform="matrix(0.8,0,0,0.8,5.92,0.8)" />
    </marker>
    <marker
       orient="auto"
       refY="0"
       refX="0"
       id="marker4819"
       style="overflow:visible">
      <path
         id="path4821"
         d="m -2.5,-1 c 0,2.76 -2.24,5 -5,5 -2.76,0 -5,-2.24 -5,-5 0,-2.76 2.24,-5 5,-5 2.76,0 5,2.24 5,5 z"
         style="fill:#000000;fill-opacity:1;fill-rule:evenodd;stroke:#000000;stroke-width:1pt;stroke-opacity:1"
         transform="matrix(0.8,0,0,0.8,5.92,0.8)" />
    </marker>
    <marker
       orient="auto"
       refY="0"
       refX="0"
       id="marker4286"
       style="overflow:visible">
      <path
         id="path4288"
         d="m -2.5,-1 c 0,2.76 -2.24,5 -5,5 -2.76,0 -5,-2.24 -5,-5 0,-2.76 2.24,-5 5,-5 2.76,0 5,2.24 5,5 z"
         style="fill:#000000;fill-opacity:1;fill-rule:evenodd;stroke:#000000;stroke-width:1pt;stroke-opacity:1"
         transform="matrix(0.8,0,0,0.8,5.92,0.8)" />
    </marker>
    <marker
       orient="auto"
       refY="0"
       refX="0"
       id="marker4380"
       style="overflow:visible">
      <path
         id="path4382"
         d="m -2.5,-1 c 0,2.76 -2.24,5 -5,5 -2.76,0 -5,-2.24 -5,-5 0,-2.76 2.24,-5 5,-5 2.76,0 5,2.24 5,5 z"
         style="fill:#000000;fill-opacity:1;fill-rule:evenodd;stroke:#000000;stroke-width:1pt;stroke-opacity:1"
         transform="matrix(0.8,0,0,0.8,5.92,0.8)" />
    </marker>
    <marker
       orient="auto"
       refY="0"
       refX="0"
       id="marker4492"
       style="overflow:visible">
      <path
         id="path4494"
         d="m -2.5,-1 c 0,2.76 -2.24,5 -5,5 -2.76,0 -5,-2.24 -5,-5 0,-2.76 2.24,-5 5,-5 2.76,0 5,2.24 5,5 z"
         style="fill:#000000;fill-opacity:1;fill-rule:evenodd;stroke:#000000;stroke-width:1pt;stroke-opacity:1"
         transform="matrix(0.8,0,0,0.8,5.92,0.8)" />
    </marker>
    <marker
       orient="auto"
       refY="0"
       refX="0"
       id="marker4598"
       style="overflow:visible">
      <path
         id="path4600"
         d="m -2.5,-1 c 0,2.76 -2.24,5 -5,5 -2.76,0 -5,-2.24 -5,-5 0,-2.76 2.24,-5 5,-5 2.76,0 5,2.24 5,5 z"
         style="fill:#000000;fill-opacity:1;fill-rule:evenodd;stroke:#000000;stroke-width:1pt;stroke-opacity:1"
         transform="matrix(0.8,0,0,0.8,5.92,0.8)" />
    </marker>
    <marker
       style="overflow:visible"
       id="marker4710"
       refX="0"
       refY="0"
       orient="auto">
      <path
         transform="matrix(-0.8,0,0,-0.8,-10,0)"
         style="fill:#000000;fill-opacity:1;fill-rule:evenodd;stroke:#000000;stroke-width:1pt;stroke-opacity:1"
         d="M 0,0 5,-5 -12.5,0 5,5 0,0 Z"
         id="path4712" />
    </marker>
    <marker
       orient="auto"
       refY="0"
       refX="0"
       id="marker4761-6"
       style="overflow:visible">
      <path
         id="path4763-4"
         d="m -2.5,-1 c 0,2.76 -2.24,5 -5,5 -2.76,0 -5,-2.24 -5,-5 0,-2.76 2.24,-5 5,-5 2.76,0 5,2.24 5,5 z"
         style="fill:#000000;fill-opacity:1;fill-rule:evenodd;stroke:#000000;stroke-width:1pt;stroke-opacity:1"
         transform="matrix(0.8,0,0,0.8,5.92,0.8)" />
    </marker>
    <marker
       orient="auto"
       refY="0"
       refX="0"
       id="marker4819-7"
       style="overflow:visible">
      <path
         id="path4821-6"
         d="m -2.5,-1 c 0,2.76 -2.24,5 -5,5 -2.76,0 -5,-2.24 -5,-5 0,-2.76 2.24,-5 5,-5 2.76,0 5,2.24 5,5 z"
         style="fill:#000000;fill-opacity:1;fill-rule:evenodd;stroke:#000000;stroke-width:1pt;stroke-opacity:1"
         transform="matrix(0.8,0,0,0.8,5.92,0.8)" />
    </marker>
    <marker
       orient="auto"
       refY="0"
       refX="0"
       id="marker11464-6"
       style="overflow:visible">
      <path
         id="path11466-6"
         d="m -2.5,-1 c 0,2.76 -2.24,5 -5,5 -2.76,0 -5,-2.24 -5,-5 0,-2.76 2.24,-5 5,-5 2.76,0 5,2.24 5,5 z"
         style="fill:#000000;fill-opacity:1;fill-rule:evenodd;stroke:#000000;stroke-width:1pt;stroke-opacity:1"
         transform="matrix(0.8,0,0,0.8,5.92,0.8)" />
    </marker>
    <marker
       orient="auto"
       refY="0"
       refX="0"
       id="marker11552-2"
       style="overflow:visible">
      <path
         id="path11554-1"
         d="m -2.5,-1 c 0,2.76 -2.24,5 -5,5 -2.76,0 -5,-2.24 -5,-5 0,-2.76 2.24,-5 5,-5 2.76,0 5,2.24 5,5 z"
         style="fill:#000000;fill-opacity:1;fill-rule:evenodd;stroke:#000000;stroke-width:1pt;stroke-opacity:1"
         transform="matrix(0.8,0,0,0.8,5.92,0.8)" />
    </marker>
    <marker
       orient="auto"
       refY="0"
       refX="0"
       id="marker6108-9"
       style="overflow:visible">
      <path
         id="path6110-4"
         d="M 0,0 5,-5 -12.5,0 5,5 0,0 Z"
         style="fill:#000000;fill-opacity:1;fill-rule:evenodd;stroke:#000000;stroke-width:1pt;stroke-opacity:1"
         transform="matrix(-0.8,0,0,-0.8,-10,0)" />
    </marker>
    <marker
       style="overflow:visible"
       id="marker4493-1"
       refX="0"
       refY="0"
       orient="auto">
      <path
         transform="matrix(0.8,0,0,0.8,5.92,0.8)"
         style="fill:#000000;fill-opacity:1;fill-rule:evenodd;stroke:#000000;stroke-width:1pt;stroke-opacity:1"
         d="m -2.5,-1 c 0,2.76 -2.24,5 -5,5 -2.76,0 -5,-2.24 -5,-5 0,-2.76 2.24,-5 5,-5 2.76,0 5,2.24 5,5 z"
         id="path4495-1" />
    </marker>
    <marker
       style="overflow:visible"
       id="marker4539-8"
       refX="0"
       refY="0"
       orient="auto">
      <path
         transform="matrix(0.8,0,0,0.8,5.92,0.8)"
         style="fill:#000000;fill-opacity:1;fill-rule:evenodd;stroke:#000000;stroke-width:1pt;stroke-opacity:1"
         d="m -2.5,-1 c 0,2.76 -2.24,5 -5,5 -2.76,0 -5,-2.24 -5,-5 0,-2.76 2.24,-5 5,-5 2.76,0 5,2.24 5,5 z"
         id="path4541-2" />
    </marker>
    <marker
       style="overflow:visible"
       id="marker5390-0-6"
       refX="0"
       refY="0"
       orient="auto">
      <path
         transform="matrix(0.8,0,0,0.8,5.92,0.8)"
         style="fill:#000000;fill-opacity:1;fill-rule:evenodd;stroke:#000000;stroke-width:1pt;stroke-opacity:1"
         d="m -2.5,-1 c 0,2.76 -2.24,5 -5,5 -2.76,0 -5,-2.24 -5,-5 0,-2.76 2.24,-5 5,-5 2.76,0 5,2.24 5,5 z"
         id="path5392-5-9" />
    </marker>
    <marker
       style="overflow:visible"
       id="marker5424-6-7"
       refX="0"
       refY="0"
       orient="auto">
      <path
         transform="matrix(0.8,0,0,0.8,5.92,0.8)"
         style="fill:#000000;fill-opacity:1;fill-rule:evenodd;stroke:#000000;stroke-width:1pt;stroke-opacity:1"
         d="m -2.5,-1 c 0,2.76 -2.24,5 -5,5 -2.76,0 -5,-2.24 -5,-5 0,-2.76 2.24,-5 5,-5 2.76,0 5,2.24 5,5 z"
         id="path5426-8-6" />
    </marker>
    <marker
       orient="auto"
       refY="0"
       refX="0"
       id="marker4286-2"
       style="overflow:visible">
      <path
         id="path4288-4"
         d="m -2.5,-1 c 0,2.76 -2.24,5 -5,5 -2.76,0 -5,-2.24 -5,-5 0,-2.76 2.24,-5 5,-5 2.76,0 5,2.24 5,5 z"
         style="fill:#000000;fill-opacity:1;fill-rule:evenodd;stroke:#000000;stroke-width:1pt;stroke-opacity:1"
         transform="matrix(0.8,0,0,0.8,5.92,0.8)" />
    </marker>
    <marker
       orient="auto"
       refY="0"
       refX="0"
       id="marker4380-4"
       style="overflow:visible">
      <path
         id="path4382-9"
         d="m -2.5,-1 c 0,2.76 -2.24,5 -5,5 -2.76,0 -5,-2.24 -5,-5 0,-2.76 2.24,-5 5,-5 2.76,0 5,2.24 5,5 z"
         style="fill:#000000;fill-opacity:1;fill-rule:evenodd;stroke:#000000;stroke-width:1pt;stroke-opacity:1"
         transform="matrix(0.8,0,0,0.8,5.92,0.8)" />
    </marker>
    <marker
       orient="auto"
       refY="0"
       refX="0"
       id="marker4492-9"
       style="overflow:visible">
      <path
         id="path4494-5"
         d="m -2.5,-1 c 0,2.76 -2.24,5 -5,5 -2.76,0 -5,-2.24 -5,-5 0,-2.76 2.24,-5 5,-5 2.76,0 5,2.24 5,5 z"
         style="fill:#000000;fill-opacity:1;fill-rule:evenodd;stroke:#000000;stroke-width:1pt;stroke-opacity:1"
         transform="matrix(0.8,0,0,0.8,5.92,0.8)" />
    </marker>
    <marker
       orient="auto"
       refY="0"
       refX="0"
       id="marker4598-0"
       style="overflow:visible">
      <path
         id="path4600-7"
         d="m -2.5,-1 c 0,2.76 -2.24,5 -5,5 -2.76,0 -5,-2.24 -5,-5 0,-2.76 2.24,-5 5,-5 2.76,0 5,2.24 5,5 z"
         style="fill:#000000;fill-opacity:1;fill-rule:evenodd;stroke:#000000;stroke-width:1pt;stroke-opacity:1"
         transform="matrix(0.8,0,0,0.8,5.92,0.8)" />
    </marker>
    <marker
       style="overflow:visible"
       id="marker4710-1"
       refX="0"
       refY="0"
       orient="auto">
      <path
         transform="matrix(-0.8,0,0,-0.8,-10,0)"
         style="fill:#000000;fill-opacity:1;fill-rule:evenodd;stroke:#000000;stroke-width:1pt;stroke-opacity:1"
         d="M 0,0 5,-5 -12.5,0 5,5 0,0 Z"
         id="path4712-9" />
    </marker>
  </defs>
  <metadata
     id="metadata4392">
    <rdf:RDF>
      <cc:Work
         rdf:about="">
        <dc:format>image/svg+xml</dc:format>
        <dc:type
           rdf:resource="http://purl.org/dc/dcmitype/StillImage" />
        <dc:title></dc:title>
      </cc:Work>
    </rdf:RDF>
  </metadata>
  <g
     transform="translate(192.31075,-235.91562)"
     id="layer1">
    <g
       id="g8901">
      <g
         style="font-style:normal;font-weight:normal;font-size:90px;line-height:125%;font-family:sans-serif;letter-spacing:0px;word-spacing:0px;fill:#000000;fill-opacity:1;stroke:none;stroke-width:1px;stroke-linecap:butt;stroke-linejoin:miter;stroke-opacity:1"
         id="text5112">
        <path
           d="m 272.84735,333.96463 -25.19531,0 0,-4.30664 25.19531,0 0,4.30664 z m 0,10.19531 -25.19531,0 0,-4.30664 25.19531,0 0,4.30664 z"
           style="font-style:normal;font-variant:normal;font-weight:normal;font-stretch:normal;font-size:60px;line-height:125%;font-family:Consolas;-inkscape-font-specification:'Consolas, Normal';text-align:start;writing-mode:lr-tb;text-anchor:start"
           id="path8500" />
      </g>
      <rect
         transform="matrix(0,-1,1,0,0,0)"
         ry="36.948521"
         y="293.15991"
         x="-434.90231"
         height="200.8764"
         width="198.48669"
         id="rect6498"
         style="opacity:1;fill:#eaf3ff;fill-opacity:1;stroke:#000000;stroke-width:1;stroke-miterlimit:10;stroke-dasharray:1, 1;stroke-dashoffset:0;stroke-opacity:1" />
      <path
         style="opacity:1;fill:none;fill-opacity:1;stroke:#000000;stroke-width:1.9078784;stroke-miterlimit:10;stroke-dasharray:none;stroke-dashoffset:0;stroke-opacity:1;marker-start:url(#marker11464);marker-mid:url(#marker11552);marker-end:url(#marker6108)"
         d="M 322.18882,353.20462 454.88615,302.29293"
         id="path5786" />
      <path
         style="opacity:1;fill:none;fill-opacity:1;stroke:#000000;stroke-width:1.90799999;stroke-miterlimit:10;stroke-dasharray:none;stroke-dashoffset:0;stroke-opacity:1;marker-start:url(#marker6846);marker-mid:url(#marker6958)"
         d="m 322.18938,353.20462 5.32654,0"
         id="path6490" />
      <g
         style="font-style:normal;font-weight:normal;font-size:90px;line-height:125%;font-family:sans-serif;letter-spacing:0px;word-spacing:0px;fill:#000000;fill-opacity:1;stroke:none;stroke-width:1px;stroke-linecap:butt;stroke-linejoin:miter;stroke-opacity:1"
         id="text6492">
        <path
           d="m 327.28824,338.64108 -0.0879,-2.96631 q -1.80176,1.77979 -3.66944,2.5708 -1.8457,0.79102 -3.88916,0.79102 -1.88964,0 -3.22998,-0.4834 -1.34033,-0.4834 -2.21923,-1.31836 -0.85694,-0.85693 -1.27442,-1.99951 -0.39551,-1.14258 -0.39551,-2.48291 0,-3.31787 2.46094,-5.18555 2.48291,-1.88964 7.3169,-1.88964 l 4.57031,0 0,-1.9336 q 0,-1.95556 -1.25244,-3.12012 -1.25244,-1.18652 -3.82325,-1.18652 -1.86767,0 -3.6914,0.41748 -1.80176,0.41748 -3.73535,1.18653 l 0,-3.44971 q 0.72509,-0.26367 1.604,-0.50537 0.90088,-0.26367 1.88965,-0.46143 0.98877,-0.19775 2.06543,-0.30762 1.07666,-0.13183 2.17529,-0.13183 1.99951,0 3.60352,0.43945 1.604,0.43945 2.70263,1.34033 1.12061,0.90088 1.71387,2.26319 0.59326,1.3623 0.59326,3.208 l 0,15.20508 -3.42773,0 z m -0.41748,-10.0415 -4.85596,0 q -1.42822,0 -2.46094,0.28564 -1.03271,0.28565 -1.69189,0.81299 -0.65918,0.52735 -0.98877,1.27442 -0.30762,0.72509 -0.30762,1.64794 0,0.63721 0.19776,1.23047 0.19775,0.57129 0.6372,1.03272 0.43946,0.43945 1.14258,0.70312 0.70313,0.26368 1.71387,0.26368 1.31836,0 3.01025,-0.79102 1.71387,-0.81299 3.60352,-2.54883 l 0,-3.91113 z"
           style="font-style:normal;font-variant:normal;font-weight:normal;font-stretch:normal;font-size:45px;font-family:Consolas;-inkscape-font-specification:Consolas"
           id="path8479" />
      </g>
      <path
         id="path6504"
         d="m 465.01779,407.99414 -5.68369,0"
         style="opacity:1;fill:none;fill-opacity:1;stroke:#000000;stroke-width:1.90799999;stroke-miterlimit:10;stroke-dasharray:none;stroke-dashoffset:0;stroke-opacity:1;marker-start:url(#marker5689);marker-mid:url(#marker5783)" />
      <g
         style="font-style:normal;font-weight:normal;font-size:90px;line-height:125%;font-family:sans-serif;letter-spacing:0px;word-spacing:0px;fill:#000000;fill-opacity:1;stroke:none;stroke-width:1px;stroke-linecap:butt;stroke-linejoin:miter;stroke-opacity:1"
         id="text6506">
        <path
           d="m 473.76175,392.61761 q -1.49414,0.57129 -3.07617,0.83497 -1.56006,0.28564 -3.22998,0.28564 -5.2295,0 -8.06397,-2.83447 -2.8125,-2.83448 -2.8125,-8.28369 0,-2.61475 0.81299,-4.7461 0.81299,-2.13135 2.28516,-3.64746 1.47216,-1.51611 3.51562,-2.3291 2.04346,-0.83496 4.5044,-0.83496 1.71386,0 3.208,0.2417 1.49414,0.2417 2.85645,0.79101 l 0,3.64746 q -1.42822,-0.74707 -2.92236,-1.07666 -1.47217,-0.35156 -3.0542,-0.35156 -1.47217,0 -2.79053,0.57129 -1.29639,0.54932 -2.28516,1.60401 -0.98877,1.05468 -1.56006,2.5708 -0.57128,1.51611 -0.57128,3.42773 0,3.99902 1.93359,5.99854 1.95557,1.97753 5.40527,1.97753 1.56006,0 3.01026,-0.35156 1.47216,-0.35156 2.83447,-1.05469 l 0,3.55957 z"
           style="font-style:normal;font-variant:normal;font-weight:normal;font-stretch:normal;font-size:45px;font-family:Consolas;-inkscape-font-specification:Consolas"
           id="path8473" />
      </g>
      <path
         style="opacity:1;fill:none;fill-opacity:1;stroke:#000000;stroke-width:1.90799999;stroke-miterlimit:10;stroke-dasharray:none;stroke-dashoffset:0;stroke-opacity:1;marker-start:url(#marker5390-0);marker-mid:url(#marker5424-6)"
         d="m 465.01779,298.41511 -5.68369,0"
         id="path6514" />
      <g
         style="font-style:normal;font-weight:normal;font-size:90px;line-height:125%;font-family:sans-serif;letter-spacing:0px;word-spacing:0px;fill:#000000;fill-opacity:1;stroke:none;stroke-width:1px;stroke-linecap:butt;stroke-linejoin:miter;stroke-opacity:1"
         id="text6516">
        <path
           d="m 474.59671,272.42581 q 0,2.74658 -0.76904,4.92188 -0.74707,2.15332 -2.15332,3.66943 -1.38428,1.49414 -3.38379,2.30713 -1.99951,0.79101 -4.5044,0.79101 -1.95556,0 -3.99902,-0.37353 -2.04346,-0.37354 -4.04297,-1.18652 l 0,-29.75098 3.82324,0 0,8.54736 -0.17578,4.08692 q 1.64795,-2.21924 3.51563,-3.12012 1.88965,-0.92285 4.04297,-0.92285 1.88964,0 3.31787,0.79101 1.42822,0.79102 2.39502,2.24121 0.96679,1.42823 1.45019,3.47168 0.4834,2.02149 0.4834,4.52637 z m -3.91113,0.17578 q 0,-1.73584 -0.26367,-3.18603 -0.2417,-1.4502 -0.79102,-2.48291 -0.54932,-1.03272 -1.40625,-1.60401 -0.85693,-0.59326 -2.04346,-0.59326 -0.72509,0 -1.47217,0.2417 -0.74707,0.21973 -1.56005,0.76904 -0.79102,0.52735 -1.6919,1.42823 -0.8789,0.8789 -1.88965,2.19726 l 0,10.70069 q 1.12061,0.43945 2.28516,0.70312 1.16455,0.2417 2.21924,0.2417 1.31836,0 2.50488,-0.41748 1.2085,-0.41748 2.10938,-1.38428 0.92285,-0.98877 1.45019,-2.59277 0.54932,-1.62598 0.54932,-4.021 z"
           style="font-style:normal;font-variant:normal;font-weight:normal;font-stretch:normal;font-size:45px;font-family:Consolas;-inkscape-font-specification:Consolas"
           id="path8476" />
      </g>
      <path
         id="path8180"
         d="m 322.18882,353.25773 132.69733,50.91169"
         style="opacity:1;fill:none;fill-opacity:1;stroke:#000000;stroke-width:1.9078784;stroke-miterlimit:10;stroke-dasharray:none;stroke-dashoffset:0;stroke-opacity:1;marker-start:url(#marker8182);marker-mid:url(#marker8306);marker-end:url(#marker8436)" />
      <g
         id="g21440"
         transform="translate(-1.4142449,0)">
        <g
           id="g4676"
           transform="translate(-235.18158,-61.821107)">
          <rect
             style="opacity:1;fill:#eaf3ff;fill-opacity:1;stroke:#000000;stroke-width:0.95012903;stroke-miterlimit:10;stroke-dasharray:0.95012906, 0.95012906;stroke-dashoffset:0;stroke-opacity:1"
             id="rect5108"
             width="179.04987"
             height="67.192734"
             x="292.91037"
             y="309.1337"
             ry="27.877834" />
          <g
             style="font-style:normal;font-weight:normal;font-size:90px;line-height:125%;font-family:sans-serif;letter-spacing:0px;word-spacing:0px;fill:#000000;fill-opacity:1;stroke:none;stroke-width:1px;stroke-linecap:butt;stroke-linejoin:miter;stroke-opacity:1"
             id="text12696-3">
            <path
               d="m 331.99915,345.58032 -0.0879,-2.96631 q -1.80175,1.77979 -3.66943,2.5708 -1.8457,0.79102 -3.88916,0.79102 -1.88965,0 -3.22998,-0.4834 -1.34033,-0.4834 -2.21924,-1.31836 -0.85693,-0.85693 -1.27441,-1.99951 -0.39551,-1.14258 -0.39551,-2.48291 0,-3.31787 2.46094,-5.18555 2.48291,-1.88964 7.31689,-1.88964 l 4.57032,0 0,-1.9336 q 0,-1.95557 -1.25245,-3.12012 -1.25244,-1.18652 -3.82324,-1.18652 -1.86767,0 -3.6914,0.41748 -1.80176,0.41748 -3.73536,1.18652 l 0,-3.4497 q 0.7251,-0.26367 1.60401,-0.50537 0.90088,-0.26368 1.88965,-0.46143 0.98877,-0.19775 2.06543,-0.30762 1.07666,-0.13183 2.17529,-0.13183 1.99951,0 3.60351,0.43945 1.60401,0.43945 2.70264,1.34033 1.12061,0.90088 1.71387,2.26319 0.59326,1.3623 0.59326,3.208 l 0,15.20508 -3.42773,0 z m -0.41748,-10.0415 -4.85596,0 q -1.42822,0 -2.46094,0.28564 -1.03271,0.28565 -1.69189,0.81299 -0.65918,0.52734 -0.98877,1.27442 -0.30762,0.72509 -0.30762,1.64794 0,0.63721 0.19775,1.23047 0.19776,0.57129 0.63721,1.03272 0.43945,0.43945 1.14258,0.70312 0.70312,0.26367 1.71387,0.26367 1.31835,0 3.01025,-0.79101 1.71387,-0.81299 3.60352,-2.54883 l 0,-3.91113 z"
               style="font-style:normal;font-variant:normal;font-weight:normal;font-stretch:normal;font-size:45px;font-family:Consolas;-inkscape-font-specification:Consolas"
               id="path8491" />
          </g>
          <path
             id="path5388-9"
             d="m 437.98133,360.14387 -5.68369,0"
             style="opacity:1;fill:none;fill-opacity:1;stroke:#000000;stroke-width:1.90799999;stroke-miterlimit:10;stroke-dasharray:none;stroke-dashoffset:0;stroke-opacity:1;marker-start:url(#marker4761-6);marker-mid:url(#marker4819-7)" />
          <g
             style="font-style:normal;font-weight:normal;font-size:90px;line-height:125%;font-family:sans-serif;letter-spacing:0px;word-spacing:0px;fill:#000000;fill-opacity:1;stroke:none;stroke-width:1px;stroke-linecap:butt;stroke-linejoin:miter;stroke-opacity:1"
             id="text6614-3">
            <path
               d="m 447.81293,334.15454 q 0,2.74658 -0.76905,4.92188 -0.74707,2.15332 -2.15332,3.66943 -1.38427,1.49414 -3.38379,2.30713 -1.99951,0.79101 -4.50439,0.79101 -1.95557,0 -3.99902,-0.37353 -2.04346,-0.37354 -4.04297,-1.18652 l 0,-29.75098 3.82324,0 0,8.54736 -0.17578,4.08692 q 1.64795,-2.21924 3.51562,-3.12012 1.88965,-0.92285 4.04297,-0.92285 1.88965,0 3.31787,0.79101 1.42823,0.79102 2.39502,2.24121 0.9668,1.42823 1.4502,3.47168 0.4834,2.02149 0.4834,4.52637 z m -3.91114,0.17578 q 0,-1.73584 -0.26367,-3.18603 -0.2417,-1.4502 -0.79101,-2.48291 -0.54932,-1.03272 -1.40625,-1.60401 -0.85694,-0.59326 -2.04346,-0.59326 -0.7251,0 -1.47217,0.2417 -0.74707,0.21973 -1.56006,0.76904 -0.79101,0.52735 -1.69189,1.42823 -0.87891,0.8789 -1.88965,2.19726 l 0,10.70069 q 1.12061,0.43945 2.28516,0.70312 1.16455,0.2417 2.21923,0.2417 1.31836,0 2.50489,-0.41748 1.20849,-0.41748 2.10937,-1.38428 0.92285,-0.98877 1.4502,-2.59277 0.54931,-1.62598 0.54931,-4.021 z"
               style="font-style:normal;font-variant:normal;font-weight:normal;font-stretch:normal;font-size:45px;font-family:Consolas;-inkscape-font-specification:Consolas"
               id="path8488" />
          </g>
          <path
             style="opacity:1;fill:none;fill-opacity:1;stroke:#000000;stroke-width:1.9078784;stroke-miterlimit:10;stroke-dasharray:none;stroke-dashoffset:0;stroke-opacity:1;marker-start:url(#marker11464-6);marker-mid:url(#marker11552-2);marker-end:url(#marker6108-9)"
             d="m 326.89975,360.14387 99.6302,0"
             id="path5786-3" />
        </g>
        <g
           transform="translate(0.1604007,0)"
           id="g20338">
          <rect
             ry="27.877834"
             y="359.31259"
             x="57.56839"
             height="67.192734"
             width="179.04987"
             id="rect19295"
             style="opacity:1;fill:#eaf3ff;fill-opacity:1;stroke:#000000;stroke-width:0.95012903;stroke-miterlimit:10;stroke-dasharray:0.95012906, 0.95012906;stroke-dashoffset:0;stroke-opacity:1" />
          <g
             style="font-style:normal;font-weight:normal;font-size:90px;line-height:125%;font-family:sans-serif;letter-spacing:0px;word-spacing:0px;fill:#000000;fill-opacity:1;stroke:none;stroke-width:1px;stroke-linecap:butt;stroke-linejoin:miter;stroke-opacity:1"
             id="text19297">
            <path
               d="m 96.657166,395.75922 -0.08789,-2.96631 q -1.801758,1.77978 -3.669434,2.5708 -1.845703,0.79101 -3.88916,0.79101 -1.889648,0 -3.22998,-0.48339 -1.340332,-0.4834 -2.219239,-1.31836 -0.856933,-0.85694 -1.274414,-1.99952 -0.395507,-1.14257 -0.395507,-2.48291 0,-3.31787 2.460937,-5.18554 2.48291,-1.88965 7.316895,-1.88965 l 4.570312,0 0,-1.93359 q 0,-1.95557 -1.252441,-3.12012 -1.252442,-1.18653 -3.823243,-1.18653 -1.867675,0 -3.691406,0.41749 -1.801758,0.41748 -3.735351,1.18652 l 0,-3.44971 q 0.725097,-0.26367 1.604004,-0.50537 0.900878,-0.26367 1.889648,-0.46143 0.98877,-0.19775 2.06543,-0.30761 1.07666,-0.13184 2.175293,-0.13184 1.999511,0 3.603515,0.43945 1.604004,0.43946 2.702637,1.34034 1.120605,0.90088 1.713867,2.26318 0.593261,1.36231 0.593261,3.20801 l 0,15.20508 -3.427733,0 z m -0.417481,-10.04151 -4.855957,0 q -1.428223,0 -2.460937,0.28565 -1.032715,0.28564 -1.691895,0.81299 -0.65918,0.52734 -0.98877,1.27441 -0.307617,0.7251 -0.307617,1.64795 0,0.63721 0.197754,1.23047 0.197754,0.57129 0.637207,1.03271 0.439453,0.43946 1.142578,0.70313 0.703125,0.26367 1.713868,0.26367 1.318359,0 3.010253,-0.79102 1.713868,-0.81298 3.603516,-2.54882 l 0,-3.91114 z"
               style="font-style:normal;font-variant:normal;font-weight:normal;font-stretch:normal;font-size:45px;font-family:Consolas;-inkscape-font-specification:Consolas"
               id="path8485" />
          </g>
          <path
             style="opacity:1;fill:none;fill-opacity:1;stroke:#000000;stroke-width:1.90799999;stroke-miterlimit:10;stroke-dasharray:none;stroke-dashoffset:0;stroke-opacity:1;marker-start:url(#marker19886);marker-mid:url(#marker20088)"
             d="m 202.63935,410.32277 -5.68369,0"
             id="path19301" />
          <g
             style="font-style:normal;font-weight:normal;font-size:90px;line-height:125%;font-family:sans-serif;letter-spacing:0px;word-spacing:0px;fill:#000000;fill-opacity:1;stroke:none;stroke-width:1px;stroke-linecap:butt;stroke-linejoin:miter;stroke-opacity:1"
             id="text19303">
            <path
               d="m 211.3833,394.94623 q -1.49414,0.57129 -3.07617,0.83496 -1.56006,0.28564 -3.22998,0.28564 -5.22949,0 -8.06397,-2.83447 -2.8125,-2.83447 -2.8125,-8.28369 0,-2.61475 0.81299,-4.74609 0.81299,-2.13135 2.28516,-3.64747 1.47217,-1.51611 3.51562,-2.3291 2.04346,-0.83496 4.5044,-0.83496 1.71386,0 3.20801,0.2417 1.49414,0.2417 2.85644,0.79102 l 0,3.64746 q -1.42822,-0.74707 -2.92236,-1.07666 -1.47217,-0.35156 -3.0542,-0.35156 -1.47217,0 -2.79053,0.57128 -1.29639,0.54932 -2.28516,1.60401 -0.98876,1.05469 -1.56005,2.5708 -0.57129,1.51611 -0.57129,3.42773 0,3.99903 1.93359,5.99854 1.95557,1.97754 5.40527,1.97754 1.56006,0 3.01026,-0.35156 1.47217,-0.35157 2.83447,-1.05469 l 0,3.55957 z"
               style="font-style:normal;font-variant:normal;font-weight:normal;font-stretch:normal;font-size:45px;font-family:Consolas;-inkscape-font-specification:Consolas"
               id="path8482" />
          </g>
          <path
             id="path19307"
             d="m 91.55777,410.32277 99.6302,0"
             style="opacity:1;fill:none;fill-opacity:1;stroke:#000000;stroke-width:1.9078784;stroke-miterlimit:10;stroke-dasharray:none;stroke-dashoffset:0;stroke-opacity:1;marker-start:url(#marker19316);marker-mid:url(#marker19500);marker-end:url(#marker19690)" />
        </g>
        <g
           transform="matrix(0.70710678,-0.70710678,0.70710678,0.70710678,0,0)"
           style="font-style:italic;font-variant:normal;font-weight:normal;font-stretch:normal;font-size:32px;line-height:125%;font-family:'Century Schoolbook';-inkscape-font-specification:'Century Schoolbook Italic';text-align:start;letter-spacing:0px;word-spacing:0px;writing-mode:lr-tb;text-anchor:start;fill:#000000;fill-opacity:1;stroke:none"
           id="text20709">
          <path
             d="m -146.96712,332.61133 3.11719,-3.11719 9.21094,9.25781 9.1875,-9.25781 3.09375,3.11719 -9.16406,9.25781 9.16406,9.11719 -3.09375,3.11719 -9.1875,-9.14063 -9.21094,9.14063 -3.11719,-3.11719 9.21094,-9.11719 -9.21094,-9.25781 z"
             style="font-style:normal;font-weight:bold;font-size:48px;-inkscape-font-specification:'Century Schoolbook Bold'"
             id="path8503" />
        </g>
      </g>
      <g
         style="font-style:normal;font-weight:normal;font-size:90px;line-height:125%;font-family:sans-serif;letter-spacing:0px;word-spacing:0px;fill:#000000;fill-opacity:1;stroke:none;stroke-width:1px;stroke-linecap:butt;stroke-linejoin:miter;stroke-opacity:1"
         id="text20713">
        <path
           d="m 40.026918,333.96463 -25.195312,0 0,-4.30664 25.195312,0 0,4.30664 z m 0,10.19531 -25.195312,0 0,-4.30664 25.195312,0 0,4.30664 z"
           style="font-style:normal;font-variant:normal;font-weight:normal;font-stretch:normal;font-size:60px;line-height:125%;font-family:Consolas;-inkscape-font-specification:'Consolas, Normal';text-align:start;writing-mode:lr-tb;text-anchor:start"
           id="path8506" />
      </g>
      <g
         id="g4878">
        <g
           id="g4848">
          <rect
             ry="33.857147"
             y="244.08754"
             x="-191.81075"
             height="73.642838"
             width="190.32977"
             id="rect6303"
             style="opacity:1;fill:none;fill-opacity:1;stroke:#000000;stroke-width:1;stroke-miterlimit:10;stroke-dasharray:1, 1;stroke-dashoffset:0;stroke-opacity:1" />
          <g
             id="g21156"
             transform="translate(1e-6,-4.3227884)">
            <g
               transform="translate(15.999998,0)"
               id="g21144">
              <circle
                 r="33.571426"
                 cy="285.23175"
                 cx="-170.33905"
                 id="circle6261"
                 style="opacity:1;fill:#eaf3ff;fill-opacity:1;stroke:#000000;stroke-width:1;stroke-miterlimit:10;stroke-dasharray:1, 1;stroke-dashoffset:0;stroke-opacity:1" />
              <path
                 style="opacity:1;fill:none;fill-opacity:1;stroke:#000000;stroke-width:1.90799999;stroke-miterlimit:10;stroke-dasharray:none;stroke-dashoffset:0;stroke-opacity:1;marker-start:url(#marker4493-1);marker-mid:url(#marker4539-8)"
                 d="m -170.18642,302.64557 5.32654,0"
                 id="path6263" />
              <g
                 style="font-style:normal;font-weight:normal;font-size:90px;line-height:125%;font-family:sans-serif;letter-spacing:0px;word-spacing:0px;fill:#000000;fill-opacity:1;stroke:none;stroke-width:1px;stroke-linecap:butt;stroke-linejoin:miter;stroke-opacity:1"
                 id="text6265">
                <path
                   d="m -164.67012,288.08203 -0.0879,-2.96631 q -1.80176,1.77979 -3.66943,2.5708 -1.84571,0.79102 -3.88916,0.79102 -1.88965,0 -3.22999,-0.4834 -1.34033,-0.4834 -2.21923,-1.31836 -0.85694,-0.85693 -1.27442,-1.99951 -0.39551,-1.14258 -0.39551,-2.48291 0,-3.31787 2.46094,-5.18555 2.48291,-1.88965 7.3169,-1.88965 l 4.57031,0 0,-1.93359 q 0,-1.95557 -1.25244,-3.12012 -1.25244,-1.18652 -3.82324,-1.18652 -1.86768,0 -3.69141,0.41748 -1.80176,0.41748 -3.73535,1.18652 l 0,-3.4497 q 0.7251,-0.26368 1.604,-0.50537 0.90088,-0.26368 1.88965,-0.46143 0.98877,-0.19775 2.06543,-0.30762 1.07666,-0.13183 2.17529,-0.13183 1.99951,0 3.60352,0.43945 1.604,0.43945 2.70264,1.34033 1.1206,0.90088 1.71386,2.26319 0.59326,1.3623 0.59326,3.208 l 0,15.20508 -3.42773,0 z m -0.41748,-10.0415 -4.85596,0 q -1.42822,0 -2.46094,0.28564 -1.03271,0.28565 -1.69189,0.81299 -0.65918,0.52734 -0.98877,1.27441 -0.30762,0.7251 -0.30762,1.64795 0,0.63721 0.19776,1.23047 0.19775,0.57129 0.6372,1.03272 0.43946,0.43945 1.14258,0.70312 0.70313,0.26367 1.71387,0.26367 1.31836,0 3.01025,-0.79101 1.71387,-0.81299 3.60352,-2.54883 l 0,-3.91113 z"
                   style="font-style:normal;font-variant:normal;font-weight:normal;font-stretch:normal;font-size:45px;font-family:Consolas;-inkscape-font-specification:Consolas"
                   id="path8467" />
              </g>
            </g>
            <circle
               r="33.571426"
               cy="285.23175"
               cx="-38.952667"
               id="circle6269"
               style="opacity:1;fill:#eaf3ff;fill-opacity:1;stroke:#000000;stroke-width:1;stroke-miterlimit:10;stroke-dasharray:1, 1;stroke-dashoffset:0;stroke-opacity:1" />
            <path
               style="opacity:1;fill:none;fill-opacity:1;stroke:#000000;stroke-width:1.90799999;stroke-miterlimit:10;stroke-dasharray:none;stroke-dashoffset:0;stroke-opacity:1;marker-start:url(#marker5390-0-6);marker-mid:url(#marker5424-6-7)"
               d="m -39.10547,302.64557 -5.68369,0"
               id="path6271" />
            <g
               style="font-style:normal;font-weight:normal;font-size:90px;line-height:125%;font-family:sans-serif;letter-spacing:0px;word-spacing:0px;fill:#000000;fill-opacity:1;stroke:none;stroke-width:1px;stroke-linecap:butt;stroke-linejoin:miter;stroke-opacity:1"
               id="text6273">
              <path
                 d="m -29.526562,276.65625 q 0,2.74658 -0.769043,4.92187 -0.74707,2.15333 -2.15332,3.66944 -1.384277,1.49414 -3.383789,2.30713 -1.999512,0.79101 -4.504395,0.79101 -1.955566,0 -3.999023,-0.37353 -2.043457,-0.37354 -4.042969,-1.18653 l 0,-29.75097 3.823242,0 0,8.54736 -0.175781,4.08692 q 1.647949,-2.21924 3.515625,-3.12012 1.889649,-0.92285 4.042969,-0.92285 1.889648,0 3.317871,0.79101 1.428223,0.79102 2.39502,2.24121 0.966796,1.42823 1.450195,3.47168 0.483398,2.02149 0.483398,4.52637 z m -3.911133,0.17578 q 0,-1.73584 -0.263671,-3.18603 -0.2417,-1.4502 -0.791016,-2.48291 -0.549316,-1.03272 -1.40625,-1.60401 -0.856934,-0.59326 -2.043457,-0.59326 -0.725098,0 -1.472168,0.2417 -0.74707,0.21973 -1.560059,0.76904 -0.791015,0.52735 -1.691894,1.42823 -0.878906,0.8789 -1.889649,2.19726 l 0,10.70068 q 1.120606,0.43946 2.285157,0.70313 1.16455,0.2417 2.219238,0.2417 1.318359,0 2.504883,-0.41748 1.208496,-0.41748 2.109375,-1.38428 0.922851,-0.98877 1.450195,-2.59277 0.549316,-1.62598 0.549316,-4.021 z"
                 style="font-style:normal;font-variant:normal;font-weight:normal;font-stretch:normal;font-size:45px;font-family:Consolas;-inkscape-font-specification:Consolas"
                 id="path8470" />
            </g>
            <g
               style="font-style:italic;font-variant:normal;font-weight:normal;font-stretch:normal;font-size:32px;line-height:125%;font-family:'Century Schoolbook';-inkscape-font-specification:'Century Schoolbook Italic';text-align:start;letter-spacing:0px;word-spacing:0px;writing-mode:lr-tb;text-anchor:start;fill:#000000;fill-opacity:1;stroke:none"
               id="text4343">
              <path
                 d="m -108.95055,277.93134 3.11719,-3.11719 9.210939,9.25781 9.1875,-9.25781 3.09375,3.11719 -9.164063,9.25781 9.164063,9.11719 -3.09375,3.11718 -9.1875,-9.14062 -9.210939,9.14062 -3.11719,-3.11718 9.210941,-9.11719 -9.210941,-9.25781 z"
                 style="font-style:normal;font-weight:bold;font-size:48px;-inkscape-font-specification:'Century Schoolbook Bold'"
                 id="path8512" />
            </g>
          </g>
          <g
             transform="matrix(0.70710678,-0.70710678,0.70710678,0.70710678,0,0)"
             style="font-style:italic;font-variant:normal;font-weight:normal;font-stretch:normal;font-size:32px;line-height:125%;font-family:'Century Schoolbook';-inkscape-font-specification:'Century Schoolbook Italic';text-align:start;letter-spacing:0px;word-spacing:0px;writing-mode:lr-tb;text-anchor:start;fill:#000000;fill-opacity:1;stroke:none"
             id="text21291">
            <path
               d="m -319.4671,160.11133 3.11719,-3.11719 9.21093,9.25781 9.1875,-9.25781 3.09375,3.11719 -9.16406,9.25781 9.16406,9.11719 -3.09375,3.11719 -9.1875,-9.14063 -9.21093,9.14063 -3.11719,-3.11719 9.21094,-9.11719 -9.21094,-9.25781 z"
               style="font-style:normal;font-weight:bold;font-size:48px;-inkscape-font-specification:'Century Schoolbook Bold'"
               id="path8509" />
          </g>
          <g
             id="g21365"
             transform="translate(0,1.5258789e-5)">
            <g
               transform="translate(15.999845,-1.8227997)"
               id="g21150">
              <circle
                 style="opacity:1;fill:#eaf3ff;fill-opacity:1;stroke:#000000;stroke-width:1;stroke-miterlimit:10;stroke-dasharray:1, 1;stroke-dashoffset:0;stroke-opacity:1"
                 id="circle6283"
                 cx="-170.3389"
                 cy="394.73175"
                 r="33.571426" />
              <path
                 id="path6285"
                 d="m -170.18642,412.14558 5.32654,0"
                 style="opacity:1;fill:none;fill-opacity:1;stroke:#000000;stroke-width:1.90799999;stroke-miterlimit:10;stroke-dasharray:none;stroke-dashoffset:0;stroke-opacity:1;marker-start:url(#marker4286-2);marker-mid:url(#marker4380-4)" />
              <g
                 style="font-style:normal;font-weight:normal;font-size:90px;line-height:125%;font-family:sans-serif;letter-spacing:0px;word-spacing:0px;fill:#000000;fill-opacity:1;stroke:none;stroke-width:1px;stroke-linecap:butt;stroke-linejoin:miter;stroke-opacity:1"
                 id="text6287">
                <path
                   d="m -164.67012,397.58203 -0.0879,-2.96631 q -1.80176,1.77979 -3.66943,2.5708 -1.84571,0.79102 -3.88916,0.79102 -1.88965,0 -3.22999,-0.4834 -1.34033,-0.4834 -2.21923,-1.31836 -0.85694,-0.85693 -1.27442,-1.99951 -0.39551,-1.14258 -0.39551,-2.48291 0,-3.31787 2.46094,-5.18555 2.48291,-1.88965 7.3169,-1.88965 l 4.57031,0 0,-1.93359 q 0,-1.95557 -1.25244,-3.12012 -1.25244,-1.18652 -3.82324,-1.18652 -1.86768,0 -3.69141,0.41748 -1.80176,0.41748 -3.73535,1.18652 l 0,-3.4497 q 0.7251,-0.26368 1.604,-0.50537 0.90088,-0.26368 1.88965,-0.46143 0.98877,-0.19775 2.06543,-0.30762 1.07666,-0.13183 2.17529,-0.13183 1.99951,0 3.60352,0.43945 1.604,0.43945 2.70264,1.34033 1.1206,0.90088 1.71386,2.26319 0.59326,1.3623 0.59326,3.208 l 0,15.20508 -3.42773,0 z m -0.41748,-10.0415 -4.85596,0 q -1.42822,0 -2.46094,0.28564 -1.03271,0.28565 -1.69189,0.81299 -0.65918,0.52734 -0.98877,1.27441 -0.30762,0.7251 -0.30762,1.64795 0,0.63721 0.19776,1.23047 0.19775,0.57129 0.6372,1.03272 0.43946,0.43945 1.14258,0.70312 0.70313,0.26367 1.71387,0.26367 1.31836,0 3.01025,-0.79101 1.71387,-0.81299 3.60352,-2.54883 l 0,-3.91113 z"
                   style="font-style:normal;font-variant:normal;font-weight:normal;font-stretch:normal;font-size:45px;font-family:Consolas;-inkscape-font-specification:Consolas"
                   id="path8497" />
              </g>
            </g>
            <circle
               style="opacity:1;fill:#eaf3ff;fill-opacity:1;stroke:#000000;stroke-width:1;stroke-miterlimit:10;stroke-dasharray:1, 1;stroke-dashoffset:0;stroke-opacity:1"
               id="circle6291"
               cx="-38.952667"
               cy="392.90894"
               r="33.571426" />
            <path
               id="path6293"
               d="m -39.10547,410.32278 -5.68369,0"
               style="opacity:1;fill:none;fill-opacity:1;stroke:#000000;stroke-width:1.90799999;stroke-miterlimit:10;stroke-dasharray:none;stroke-dashoffset:0;stroke-opacity:1;marker-start:url(#marker4492-9);marker-mid:url(#marker4598-0)" />
            <g
               style="font-style:normal;font-weight:normal;font-size:90px;line-height:125%;font-family:sans-serif;letter-spacing:0px;word-spacing:0px;fill:#000000;fill-opacity:1;stroke:none;stroke-width:1px;stroke-linecap:butt;stroke-linejoin:miter;stroke-opacity:1"
               id="text6295">
              <path
                 d="m -30.361523,394.94623 q -1.49414,0.57129 -3.076172,0.83496 -1.560058,0.28564 -3.22998,0.28564 -5.229492,0 -8.063965,-2.83447 -2.8125,-2.83447 -2.8125,-8.28369 0,-2.61475 0.812988,-4.74609 0.812989,-2.13135 2.285157,-3.64747 1.472168,-1.51611 3.515625,-2.3291 2.043457,-0.83496 4.504394,-0.83496 1.713867,0 3.208008,0.2417 1.494141,0.2417 2.856445,0.79102 l 0,3.64746 q -1.428222,-0.74707 -2.922363,-1.07666 -1.472168,-0.35156 -3.054199,-0.35156 -1.472168,0 -2.790528,0.57128 -1.296386,0.54932 -2.285156,1.60401 -0.988769,1.05469 -1.560058,2.5708 -0.571289,1.51611 -0.571289,3.42773 0,3.99903 1.933593,5.99854 1.955567,1.97754 5.405274,1.97754 1.560058,0 3.010254,-0.35156 1.472168,-0.35157 2.834472,-1.05469 l 0,3.55957 z"
                 style="font-style:normal;font-variant:normal;font-weight:normal;font-stretch:normal;font-size:45px;font-family:Consolas;-inkscape-font-specification:Consolas"
                 id="path8494" />
            </g>
            <g
               style="font-style:italic;font-variant:normal;font-weight:normal;font-stretch:normal;font-size:32px;line-height:125%;font-family:'Century Schoolbook';-inkscape-font-specification:'Century Schoolbook Italic';text-align:start;letter-spacing:0px;word-spacing:0px;writing-mode:lr-tb;text-anchor:start;fill:#000000;fill-opacity:1;stroke:none"
               id="text21140">
              <path
                 d="m -108.95055,383.72144 3.11719,-3.11719 9.210939,9.25781 9.1875,-9.25781 3.09375,3.11719 -9.164063,9.25781 9.164063,9.11719 -3.09375,3.11718 -9.1875,-9.14062 -9.210939,9.14062 -3.11719,-3.11718 9.210941,-9.11719 -9.210941,-9.25781 z"
                 style="font-style:normal;font-weight:bold;font-size:48px;-inkscape-font-specification:'Century Schoolbook Bold'"
                 id="path8515" />
            </g>
          </g>
          <rect
             style="opacity:1;fill:none;fill-opacity:1;stroke:#000000;stroke-width:1;stroke-miterlimit:10;stroke-dasharray:1, 1;stroke-dashoffset:0;stroke-opacity:1"
             id="rect4846"
             width="190.32977"
             height="73.642838"
             x="-191.81075"
             y="356.08752"
             ry="33.857147" />
        </g>
      </g>
    </g>
  </g>
</svg>
