<?xml version="1.0" encoding="UTF-8" standalone="no"?>
<svg
   xmlns:dc="http://purl.org/dc/elements/1.1/"
   xmlns:cc="http://creativecommons.org/ns#"
   xmlns:rdf="http://www.w3.org/1999/02/22-rdf-syntax-ns#"
   xmlns:svg="http://www.w3.org/2000/svg"
   xmlns="http://www.w3.org/2000/svg"
   version="1.1"
   id="svg4387"
   viewBox="0 0 162.06314 161.84235"
   height="45.675507mm"
   width="45.73782mm">
  <defs
     id="defs4389">
    <marker
       style="overflow:visible"
       id="marker8436"
       refX="0"
       refY="0"
       orient="auto">
      <path
         transform="matrix(-0.8,0,0,-0.8,-10,0)"
         style="fill:#000000;fill-opacity:1;fill-rule:evenodd;stroke:#000000;stroke-width:1pt;stroke-opacity:1"
         d="M 0,0 5,-5 -12.5,0 5,5 0,0 Z"
         id="path8438" />
    </marker>
    <marker
       style="overflow:visible"
       id="marker8306"
       refX="0"
       refY="0"
       orient="auto">
      <path
         transform="matrix(0.8,0,0,0.8,5.92,0.8)"
         style="fill:#000000;fill-opacity:1;fill-rule:evenodd;stroke:#000000;stroke-width:1pt;stroke-opacity:1"
         d="m -2.5,-1 c 0,2.76 -2.24,5 -5,5 -2.76,0 -5,-2.24 -5,-5 0,-2.76 2.24,-5 5,-5 2.76,0 5,2.24 5,5 z"
         id="path8308" />
    </marker>
    <marker
       style="overflow:visible"
       id="marker8182"
       refX="0"
       refY="0"
       orient="auto">
      <path
         transform="matrix(0.8,0,0,0.8,5.92,0.8)"
         style="fill:#000000;fill-opacity:1;fill-rule:evenodd;stroke:#000000;stroke-width:1pt;stroke-opacity:1"
         d="m -2.5,-1 c 0,2.76 -2.24,5 -5,5 -2.76,0 -5,-2.24 -5,-5 0,-2.76 2.24,-5 5,-5 2.76,0 5,2.24 5,5 z"
         id="path8184" />
    </marker>
    <marker
       orient="auto"
       refY="0"
       refX="0"
       id="marker6958"
       style="overflow:visible">
      <path
         id="path6960"
         d="m -2.5,-1 c 0,2.76 -2.24,5 -5,5 -2.76,0 -5,-2.24 -5,-5 0,-2.76 2.24,-5 5,-5 2.76,0 5,2.24 5,5 z"
         style="fill:#000000;fill-opacity:1;fill-rule:evenodd;stroke:#000000;stroke-width:1pt;stroke-opacity:1"
         transform="matrix(0.8,0,0,0.8,5.92,0.8)" />
    </marker>
    <marker
       orient="auto"
       refY="0"
       refX="0"
       id="marker6846"
       style="overflow:visible">
      <path
         id="path6848"
         d="m -2.5,-1 c 0,2.76 -2.24,5 -5,5 -2.76,0 -5,-2.24 -5,-5 0,-2.76 2.24,-5 5,-5 2.76,0 5,2.24 5,5 z"
         style="fill:#000000;fill-opacity:1;fill-rule:evenodd;stroke:#000000;stroke-width:1pt;stroke-opacity:1"
         transform="matrix(0.8,0,0,0.8,5.92,0.8)" />
    </marker>
    <marker
       style="overflow:visible"
       id="marker6536"
       refX="0"
       refY="0"
       orient="auto">
      <path
         transform="matrix(-0.8,0,0,-0.8,-10,0)"
         style="fill:#000000;fill-opacity:1;fill-rule:evenodd;stroke:#000000;stroke-width:1pt;stroke-opacity:1"
         d="M 0,0 5,-5 -12.5,0 5,5 0,0 Z"
         id="path6538" />
    </marker>
    <marker
       orient="auto"
       refY="0"
       refX="0"
       id="marker5783"
       style="overflow:visible">
      <path
         id="path5785"
         d="m -2.5,-1 c 0,2.76 -2.24,5 -5,5 -2.76,0 -5,-2.24 -5,-5 0,-2.76 2.24,-5 5,-5 2.76,0 5,2.24 5,5 z"
         style="fill:#000000;fill-opacity:1;fill-rule:evenodd;stroke:#000000;stroke-width:1pt;stroke-opacity:1"
         transform="matrix(0.8,0,0,0.8,5.92,0.8)" />
    </marker>
    <marker
       orient="auto"
       refY="0"
       refX="0"
       id="marker5689"
       style="overflow:visible">
      <path
         id="path5691"
         d="m -2.5,-1 c 0,2.76 -2.24,5 -5,5 -2.76,0 -5,-2.24 -5,-5 0,-2.76 2.24,-5 5,-5 2.76,0 5,2.24 5,5 z"
         style="fill:#000000;fill-opacity:1;fill-rule:evenodd;stroke:#000000;stroke-width:1pt;stroke-opacity:1"
         transform="matrix(0.8,0,0,0.8,5.92,0.8)" />
    </marker>
    <marker
       style="overflow:visible"
       id="marker5464"
       refX="0"
       refY="0"
       orient="auto">
      <path
         transform="matrix(-0.8,0,0,-0.8,-10,0)"
         style="fill:#000000;fill-opacity:1;fill-rule:evenodd;stroke:#000000;stroke-width:1pt;stroke-opacity:1"
         d="M 0,0 5,-5 -12.5,0 5,5 0,0 Z"
         id="path5466" />
    </marker>
    <marker
       style="overflow:visible"
       id="marker5424"
       refX="0"
       refY="0"
       orient="auto">
      <path
         transform="matrix(0.8,0,0,0.8,5.92,0.8)"
         style="fill:#000000;fill-opacity:1;fill-rule:evenodd;stroke:#000000;stroke-width:1pt;stroke-opacity:1"
         d="m -2.5,-1 c 0,2.76 -2.24,5 -5,5 -2.76,0 -5,-2.24 -5,-5 0,-2.76 2.24,-5 5,-5 2.76,0 5,2.24 5,5 z"
         id="path5426" />
    </marker>
    <marker
       style="overflow:visible"
       id="marker5390"
       refX="0"
       refY="0"
       orient="auto">
      <path
         transform="matrix(0.8,0,0,0.8,5.92,0.8)"
         style="fill:#000000;fill-opacity:1;fill-rule:evenodd;stroke:#000000;stroke-width:1pt;stroke-opacity:1"
         d="m -2.5,-1 c 0,2.76 -2.24,5 -5,5 -2.76,0 -5,-2.24 -5,-5 0,-2.76 2.24,-5 5,-5 2.76,0 5,2.24 5,5 z"
         id="path5392" />
    </marker>
    <marker
       orient="auto"
       refY="0"
       refX="0"
       id="marker11464"
       style="overflow:visible">
      <path
         id="path11466"
         d="m -2.5,-1 c 0,2.76 -2.24,5 -5,5 -2.76,0 -5,-2.24 -5,-5 0,-2.76 2.24,-5 5,-5 2.76,0 5,2.24 5,5 z"
         style="fill:#000000;fill-opacity:1;fill-rule:evenodd;stroke:#000000;stroke-width:1pt;stroke-opacity:1"
         transform="matrix(0.8,0,0,0.8,5.92,0.8)" />
    </marker>
    <marker
       orient="auto"
       refY="0"
       refX="0"
       id="marker11552"
       style="overflow:visible">
      <path
         id="path11554"
         d="m -2.5,-1 c 0,2.76 -2.24,5 -5,5 -2.76,0 -5,-2.24 -5,-5 0,-2.76 2.24,-5 5,-5 2.76,0 5,2.24 5,5 z"
         style="fill:#000000;fill-opacity:1;fill-rule:evenodd;stroke:#000000;stroke-width:1pt;stroke-opacity:1"
         transform="matrix(0.8,0,0,0.8,5.92,0.8)" />
    </marker>
    <marker
       orient="auto"
       refY="0"
       refX="0"
       id="marker6108"
       style="overflow:visible">
      <path
         id="path6110"
         d="M 0,0 5,-5 -12.5,0 5,5 0,0 Z"
         style="fill:#000000;fill-opacity:1;fill-rule:evenodd;stroke:#000000;stroke-width:1pt;stroke-opacity:1"
         transform="matrix(-0.8,0,0,-0.8,-10,0)" />
    </marker>
    <marker
       style="overflow:visible"
       id="marker5390-0"
       refX="0"
       refY="0"
       orient="auto">
      <path
         transform="matrix(0.8,0,0,0.8,5.92,0.8)"
         style="fill:#000000;fill-opacity:1;fill-rule:evenodd;stroke:#000000;stroke-width:1pt;stroke-opacity:1"
         d="m -2.5,-1 c 0,2.76 -2.24,5 -5,5 -2.76,0 -5,-2.24 -5,-5 0,-2.76 2.24,-5 5,-5 2.76,0 5,2.24 5,5 z"
         id="path5392-5" />
    </marker>
    <marker
       style="overflow:visible"
       id="marker5424-6"
       refX="0"
       refY="0"
       orient="auto">
      <path
         transform="matrix(0.8,0,0,0.8,5.92,0.8)"
         style="fill:#000000;fill-opacity:1;fill-rule:evenodd;stroke:#000000;stroke-width:1pt;stroke-opacity:1"
         d="m -2.5,-1 c 0,2.76 -2.24,5 -5,5 -2.76,0 -5,-2.24 -5,-5 0,-2.76 2.24,-5 5,-5 2.76,0 5,2.24 5,5 z"
         id="path5426-8" />
    </marker>
    <marker
       orient="auto"
       refY="0"
       refX="0"
       id="marker4761"
       style="overflow:visible">
      <path
         id="path4763"
         d="m -2.5,-1 c 0,2.76 -2.24,5 -5,5 -2.76,0 -5,-2.24 -5,-5 0,-2.76 2.24,-5 5,-5 2.76,0 5,2.24 5,5 z"
         style="fill:#000000;fill-opacity:1;fill-rule:evenodd;stroke:#000000;stroke-width:1pt;stroke-opacity:1"
         transform="matrix(0.8,0,0,0.8,5.92,0.8)" />
    </marker>
    <marker
       orient="auto"
       refY="0"
       refX="0"
       id="marker4819"
       style="overflow:visible">
      <path
         id="path4821"
         d="m -2.5,-1 c 0,2.76 -2.24,5 -5,5 -2.76,0 -5,-2.24 -5,-5 0,-2.76 2.24,-5 5,-5 2.76,0 5,2.24 5,5 z"
         style="fill:#000000;fill-opacity:1;fill-rule:evenodd;stroke:#000000;stroke-width:1pt;stroke-opacity:1"
         transform="matrix(0.8,0,0,0.8,5.92,0.8)" />
    </marker>
  </defs>
  <metadata
     id="metadata4392">
    <rdf:RDF>
      <cc:Work
         rdf:about="">
        <dc:format>image/svg+xml</dc:format>
        <dc:type
           rdf:resource="http://purl.org/dc/dcmitype/StillImage" />
        <dc:title></dc:title>
      </cc:Work>
    </rdf:RDF>
  </metadata>
  <g
     transform="translate(-312.56665,-261.80887)"
     id="layer1">
    <path
       id="path5786"
       d="M 322.18894,360.27569 454.88627,309.364"
       style="opacity:1;fill:none;fill-opacity:1;stroke:#000000;stroke-width:1.5;stroke-miterlimit:10;stroke-dasharray:none;stroke-dashoffset:0;stroke-opacity:1;marker-start:url(#marker11464);marker-mid:url(#marker11552);marker-end:url(#marker6108)" />
    <path
       id="path6490"
       d="m 322.1895,360.27569 5.32654,0"
       style="opacity:1;fill:none;fill-opacity:1;stroke:#000000;stroke-width:1.90799999;stroke-miterlimit:10;stroke-dasharray:none;stroke-dashoffset:0;stroke-opacity:1;marker-start:url(#marker6846);marker-mid:url(#marker6958)" />
    <g
       id="text6492"
       style="font-style:normal;font-weight:normal;font-size:90px;line-height:125%;font-family:sans-serif;letter-spacing:0px;word-spacing:0px;fill:#000000;fill-opacity:1;stroke:none;stroke-width:1px;stroke-linecap:butt;stroke-linejoin:miter;stroke-opacity:1">
      <path
         id="path4505"
         style="font-style:normal;font-variant:normal;font-weight:normal;font-stretch:normal;font-size:45px;font-family:Consolas;-inkscape-font-specification:Consolas"
         d="m 331.50708,345.71213 -18.03955,0 0,-3.55957 7.38281,0 0,-20.96192 -6.87744,3.73535 -1.40625,-3.25195 9.14063,-4.81201 3.38378,0 0,25.29053 6.41602,0 0,3.55957 z" />
    </g>
    <path
       style="opacity:1;fill:none;fill-opacity:1;stroke:#000000;stroke-width:1.90799999;stroke-miterlimit:10;stroke-dasharray:none;stroke-dashoffset:0;stroke-opacity:1;marker-start:url(#marker5689);marker-mid:url(#marker5783)"
       d="m 465.01791,415.06521 -5.68369,0"
       id="path6504" />
    <g
       id="text6506"
       style="font-style:normal;font-weight:normal;font-size:90px;line-height:125%;font-family:sans-serif;letter-spacing:0px;word-spacing:0px;fill:#000000;fill-opacity:1;stroke:none;stroke-width:1px;stroke-linecap:butt;stroke-linejoin:miter;stroke-opacity:1">
      <path
         id="path4499"
         style="font-style:normal;font-variant:normal;font-weight:normal;font-stretch:normal;font-size:45px;font-family:Consolas;-inkscape-font-specification:Consolas"
         d="m 474.16833,391.7785 q 0,1.88965 -0.76904,3.55957 -0.76904,1.64795 -2.30713,2.90039 -1.53808,1.23047 -3.86718,1.95557 -2.32911,0.70313 -5.42725,0.70313 -1.71387,0 -3.07617,-0.10987 -1.36231,-0.10986 -2.54883,-0.28564 l 0,-3.42774 q 1.3623,0.2417 2.87842,0.37354 1.51611,0.13183 3.09814,0.13183 2.15332,0 3.66944,-0.37353 1.53808,-0.39551 2.50488,-1.12061 0.9668,-0.72509 1.40625,-1.75781 0.43945,-1.03271 0.43945,-2.3291 0,-1.18652 -0.52734,-2.06543 -0.52735,-0.87891 -1.49414,-1.47217 -0.94483,-0.59326 -2.28516,-0.8789 -1.31836,-0.30762 -2.90039,-0.30762 l -3.27393,0 0,-3.14209 3.31788,0 q 1.29638,0 2.35107,-0.32959 1.07666,-0.35156 1.82373,-0.98877 0.76904,-0.63721 1.16455,-1.56006 0.41748,-0.94482 0.41748,-2.13135 0,-2.30713 -1.40625,-3.36181 -1.40625,-1.05469 -4.13086,-1.05469 -1.45019,0 -2.98828,0.28564 -1.53809,0.28565 -3.2959,0.85694 l 0,-3.33985 q 0.74707,-0.26367 1.58203,-0.46142 0.85694,-0.21973 1.6919,-0.35156 0.85693,-0.15381 1.69189,-0.21973 0.83496,-0.0879 1.60401,-0.0879 2.28515,0 4.02099,0.50537 1.73584,0.4834 2.90039,1.40625 1.16455,0.92285 1.75782,2.24121 0.59326,1.31836 0.59326,2.96631 0,2.46094 -1.27442,4.13086 -1.25244,1.66992 -3.4497,2.65869 1.1206,0.17578 2.19726,0.70312 1.09863,0.52735 1.95557,1.36231 0.8789,0.81299 1.40625,1.93359 0.54931,1.12061 0.54931,2.48291 z" />
    </g>
    <path
       id="path6514"
       d="m 465.01791,305.48618 -5.68369,0"
       style="opacity:1;fill:none;fill-opacity:1;stroke:#000000;stroke-width:1.90799999;stroke-miterlimit:10;stroke-dasharray:none;stroke-dashoffset:0;stroke-opacity:1;marker-start:url(#marker5390-0);marker-mid:url(#marker5424-6)" />
    <g
       id="text6516"
       style="font-style:normal;font-weight:normal;font-size:90px;line-height:125%;font-family:sans-serif;letter-spacing:0px;word-spacing:0px;fill:#000000;fill-opacity:1;stroke:none;stroke-width:1px;stroke-linecap:butt;stroke-linejoin:miter;stroke-opacity:1">
      <path
         id="path4502"
         style="font-style:normal;font-variant:normal;font-weight:normal;font-stretch:normal;font-size:45px;font-family:Consolas;-inkscape-font-specification:Consolas"
         d="m 474.62979,290.92264 -18.91846,0 0,-3.42774 7.42676,-7.38281 q 1.82373,-1.80176 2.96631,-3.12012 1.14258,-1.31836 1.77979,-2.39502 0.6372,-1.09863 0.85693,-2.06543 0.21973,-0.96679 0.21973,-2.0874 0,-1.05469 -0.28565,-1.99951 -0.28564,-0.9668 -0.8789,-1.69189 -0.59327,-0.7251 -1.53809,-1.14258 -0.94482,-0.41748 -2.26318,-0.41748 -1.82373,0 -3.31788,0.81299 -1.49414,0.81298 -2.74658,2.10937 l -2.10937,-2.52685 q 1.62597,-1.71387 3.73535,-2.74659 2.13135,-1.03271 4.94385,-1.03271 1.91162,0 3.47168,0.57129 1.58203,0.57129 2.72461,1.64795 1.14257,1.07666 1.75781,2.63672 0.63721,1.56005 0.63721,3.51562 0,1.64795 -0.43946,3.0542 -0.43945,1.40625 -1.34033,2.8125 -0.87891,1.38428 -2.24121,2.87842 -1.34033,1.49414 -3.18604,3.27392 l -5.20752,5.07569 13.95264,0 0,3.64746 z" />
    </g>
    <path
       style="opacity:1;fill:none;fill-opacity:1;stroke:#000000;stroke-width:1.5;stroke-miterlimit:10;stroke-dasharray:none;stroke-dashoffset:0;stroke-opacity:1;marker-start:url(#marker8182);marker-mid:url(#marker8306);marker-end:url(#marker8436)"
       d="m 322.18894,360.3288 132.69733,50.91169"
       id="path8180" />
  </g>
</svg>
