<?xml version="1.0" encoding="UTF-8" standalone="no"?>
<svg
   xmlns:dc="http://purl.org/dc/elements/1.1/"
   xmlns:cc="http://creativecommons.org/ns#"
   xmlns:rdf="http://www.w3.org/1999/02/22-rdf-syntax-ns#"
   xmlns:svg="http://www.w3.org/2000/svg"
   xmlns="http://www.w3.org/2000/svg"
   xmlns:sodipodi="http://sodipodi.sourceforge.net/DTD/sodipodi-0.dtd"
   xmlns:inkscape="http://www.inkscape.org/namespaces/inkscape"
   font-size="12px"
   font-style="normal"
   font-weight="normal"
   height="300"
   stroke-miterlimit="10"
   width="410.79871"
   id="svg2"
   version="1.1"
   inkscape:version="0.91 r13725"
   sodipodi:docname="example-labelled-graph.svg"
   style="font-style:normal;font-weight:normal;font-size:12px;font-family:Dialog;color-interpolation:auto;fill:#000000;fill-opacity:1;stroke:#000000;stroke-width:1;stroke-linecap:square;stroke-linejoin:miter;stroke-miterlimit:10;stroke-dasharray:none;stroke-dashoffset:0;stroke-opacity:1;color-rendering:auto;image-rendering:auto;shape-rendering:auto;text-rendering:auto">
  <metadata
     id="metadata111">
    <rdf:RDF>
      <cc:Work
         rdf:about="">
        <dc:format>image/svg+xml</dc:format>
        <dc:type
           rdf:resource="http://purl.org/dc/dcmitype/StillImage" />
        <dc:title></dc:title>
      </cc:Work>
    </rdf:RDF>
  </metadata>
  <sodipodi:namedview
     pagecolor="#ffffff"
     bordercolor="#666666"
     borderopacity="1"
     objecttolerance="10"
     gridtolerance="10"
     guidetolerance="10"
     inkscape:pageopacity="0"
     inkscape:pageshadow="2"
     inkscape:window-width="1445"
     inkscape:window-height="841"
     id="namedview109"
     showgrid="false"
     inkscape:zoom="1"
     inkscape:cx="237.33895"
     inkscape:cy="159.65353"
     inkscape:window-x="83"
     inkscape:window-y="-8"
     inkscape:window-maximized="1"
     inkscape:current-layer="svg2"
     inkscape:snap-bbox="true"
     inkscape:bbox-paths="true"
     inkscape:bbox-nodes="true"
     inkscape:snap-bbox-edge-midpoints="true"
     inkscape:snap-bbox-midpoints="true"
     inkscape:object-paths="true"
     inkscape:snap-intersection-paths="true"
     inkscape:object-nodes="true"
     inkscape:snap-smooth-nodes="true"
     inkscape:snap-midpoints="true"
     inkscape:snap-object-midpoints="true"
     inkscape:snap-center="true"
     inkscape:snap-text-baseline="true"
     inkscape:snap-global="false"
     fit-margin-top="0"
     fit-margin-left="0"
     fit-margin-right="0"
     fit-margin-bottom="0"
     inkscape:snap-nodes="true"
     inkscape:snap-others="true"
     showguides="true"
     inkscape:guide-bbox="true">
    <inkscape:grid
       type="xygrid"
       id="grid5818"
       originx="91.009652"
       originy="764.91344" />
  </sodipodi:namedview>
  <!--Generated by the Batik Graphics2D SVG Generator-->
  <defs
     id="genericDefs">
    <marker
       inkscape:isstock="true"
       style="overflow:visible"
       id="marker14291"
       refX="0"
       refY="0"
       orient="auto"
       inkscape:stockid="Arrow1Lend">
      <path
         transform="matrix(-0.8,0,0,-0.8,-10,0)"
         style="fill:#000000;fill-opacity:1;fill-rule:evenodd;stroke:#000000;stroke-width:1pt;stroke-opacity:1"
         d="M 0,0 5,-5 -12.5,0 5,5 0,0 Z"
         id="path14293"
         inkscape:connector-curvature="0" />
    </marker>
    <marker
       inkscape:isstock="true"
       style="overflow:visible"
       id="marker4603"
       refX="0"
       refY="0"
       orient="auto"
       inkscape:stockid="Arrow1Lend">
      <path
         transform="matrix(-0.8,0,0,-0.8,-10,0)"
         style="fill:#000000;fill-opacity:1;fill-rule:evenodd;stroke:#000000;stroke-width:1pt;stroke-opacity:1"
         d="M 0,0 5,-5 -12.5,0 5,5 0,0 Z"
         id="path4605"
         inkscape:connector-curvature="0" />
    </marker>
    <marker
       inkscape:stockid="Arrow1Lend"
       orient="auto"
       refY="0"
       refX="0"
       id="marker6700"
       style="overflow:visible"
       inkscape:isstock="true">
      <path
         id="path6702"
         d="M 0,0 5,-5 -12.5,0 5,5 0,0 Z"
         style="fill:#000000;fill-opacity:1;fill-rule:evenodd;stroke:#000000;stroke-width:1pt;stroke-opacity:1"
         transform="matrix(-0.8,0,0,-0.8,-10,0)"
         inkscape:connector-curvature="0" />
    </marker>
    <marker
       inkscape:stockid="Arrow1Lend"
       orient="auto"
       refY="0"
       refX="0"
       id="marker5980"
       style="overflow:visible"
       inkscape:isstock="true">
      <path
         id="path5982"
         d="M 0,0 5,-5 -12.5,0 5,5 0,0 Z"
         style="fill:#000000;fill-opacity:1;fill-rule:evenodd;stroke:#000000;stroke-width:1pt;stroke-opacity:1"
         transform="matrix(-0.8,0,0,-0.8,-10,0)"
         inkscape:connector-curvature="0" />
    </marker>
    <marker
       inkscape:stockid="Arrow1Lend"
       orient="auto"
       refY="0"
       refX="0"
       id="Arrow1Lend"
       style="overflow:visible"
       inkscape:isstock="true">
      <path
         id="path4407"
         d="M 0,0 5,-5 -12.5,0 5,5 0,0 Z"
         style="fill-rule:evenodd;stroke:#000000;stroke-width:1pt"
         transform="matrix(-0.8,0,0,-0.8,-10,0)"
         inkscape:connector-curvature="0" />
    </marker>
    <marker
       inkscape:isstock="true"
       style="overflow:visible"
       id="marker8867"
       refX="0"
       refY="0"
       orient="auto"
       inkscape:stockid="Arrow1Lend">
      <path
         transform="matrix(-0.8,0,0,-0.8,-10,0)"
         style="fill:#00419b;fill-opacity:1;fill-rule:evenodd;stroke:#00419b;stroke-width:1pt;stroke-opacity:1"
         d="M 0,0 5,-5 -12.5,0 5,5 0,0 Z"
         id="path8869"
         inkscape:connector-curvature="0" />
    </marker>
    <marker
       inkscape:stockid="Arrow1Lend"
       orient="auto"
       refY="0"
       refX="0"
       id="marker11693"
       style="overflow:visible"
       inkscape:isstock="true">
      <path
         inkscape:connector-curvature="0"
         id="path11695"
         d="M 0,0 5,-5 -12.5,0 5,5 0,0 Z"
         style="fill:#000000;fill-opacity:1;fill-rule:evenodd;stroke:#000000;stroke-width:1pt;stroke-opacity:1"
         transform="matrix(-0.8,0,0,-0.8,-10,0)" />
    </marker>
    <marker
       inkscape:stockid="Arrow1Lend"
       orient="auto"
       refY="0"
       refX="0"
       id="Arrow1Lend-2"
       style="overflow:visible">
      <path
         id="path3797"
         d="M 0,0 5,-5 -12.5,0 5,5 0,0 Z"
         style="fill-rule:evenodd;stroke:#000000;stroke-width:1pt;marker-start:none"
         transform="matrix(-0.8,0,0,-0.8,-10,0)"
         inkscape:connector-curvature="0" />
    </marker>
  </defs>
  <g
     id="g4399"
     transform="scale(1.1448907,1.1448907)">
    <rect
       style="opacity:1;fill:#eaf3ff;fill-opacity:1;stroke:#000000;stroke-width:1;stroke-miterlimit:10;stroke-dasharray:none;stroke-dashoffset:0;stroke-opacity:1"
       id="rect8241"
       width="38.731201"
       height="144.44189"
       x="-39.231201"
       y="213.86853"
       ry="11.233872"
       transform="matrix(0,-1,1,0,0,0)" />
    <g
       transform="translate(-15,-5.0000038)"
       id="text12016"
       style="font-style:normal;font-weight:normal;font-size:19.30500031px;line-height:125%;font-family:sans-serif;letter-spacing:0px;word-spacing:0px;fill:#000000;fill-opacity:1;stroke:none;stroke-width:1px;stroke-linecap:butt;stroke-linejoin:miter;stroke-opacity:1">
      <path
         inkscape:connector-curvature="0"
         id="path4352"
         d="m 268.63955,32.053165 -1.98895,0 -1.37623,-3.911901 -6.07052,0 -1.37624,3.911901 -1.89468,0 5.10904,-14.035715 2.48854,0 5.10904,14.035715 z m -3.94019,-5.514367 -2.46025,-6.890603 -2.46968,6.890603 4.92993,0 z" />
      <path
         inkscape:connector-curvature="0"
         id="path4354"
         d="m 279.89451,26.708471 q 0,1.319677 -0.37705,2.375419 -0.36762,1.055743 -0.99918,1.772139 -0.66927,0.744675 -1.4705,1.121726 -0.80124,0.367625 -1.76271,0.367625 -0.8955,0 -1.56477,-0.216804 -0.66926,-0.207378 -1.31967,-0.565577 l -0.11312,0.490166 -1.65902,0 0,-14.667275 1.77214,0 0,5.241006 q 0.74467,-0.612708 1.58361,-0.999185 0.83894,-0.395903 1.88525,-0.395903 1.86641,0 2.941,1.432793 1.08402,1.432793 1.08402,4.04387 z m -1.8287,0.04713 q 0,-1.885254 -0.62213,-2.85616 -0.62213,-0.980332 -2.00779,-0.980332 -0.77296,0 -1.56477,0.339346 -0.7918,0.329919 -1.47049,0.85779 l 0,6.032813 q 0.7541,0.339346 1.2914,0.471313 0.54672,0.131968 1.23484,0.131968 1.4705,0 2.30001,-0.961479 0.83893,-0.970906 0.83893,-3.035259 z" />
      <path
         inkscape:connector-curvature="0"
         id="path4356"
         d="m 291.46997,26.972406 -7.75782,0 q 0,0.970906 0.29221,1.696729 0.29222,0.716396 0.80124,1.178283 0.49016,0.452461 1.15943,0.678692 0.67869,0.22623 1.48935,0.22623 1.07459,0 2.15861,-0.424182 1.09345,-0.433608 1.55534,-0.848364 l 0.0943,0 0,1.932385 q -0.89549,0.377051 -1.82869,0.63156 -0.9332,0.254509 -1.96067,0.254509 -2.6205,0 -4.091,-1.41394 -1.4705,-1.423367 -1.4705,-4.034443 0,-2.582798 1.40452,-4.100428 1.41394,-1.517629 3.71395,-1.517629 2.13033,0 3.28034,1.244267 1.15943,1.244268 1.15943,3.534852 l 0,0.961479 z m -1.72501,-1.357383 q -0.009,-1.395088 -0.70697,-2.158616 -0.68812,-0.763527 -2.10206,-0.763527 -1.42336,0 -2.27173,0.838938 -0.83893,0.838938 -0.95205,2.083205 l 6.03281,0 z" />
      <path
         inkscape:connector-curvature="0"
         id="path4358"
         d="m 300.72657,23.456407 -0.0943,0 q -0.3959,-0.09426 -0.77295,-0.131967 -0.36762,-0.04713 -0.87664,-0.04713 -0.82009,0 -1.58362,0.367625 -0.76352,0.358198 -1.47049,0.933201 l 0,7.475031 -1.77214,0 0,-10.529143 1.77214,0 0,1.555335 q 1.05574,-0.848365 1.85697,-1.197137 0.81066,-0.358198 1.6496,-0.358198 0.46189,0 0.66926,0.02828 0.20738,0.01885 0.62214,0.08484 l 0,1.81927 z" />
      <path
         inkscape:connector-curvature="0"
         id="path4360"
         d="m 310.95407,32.053165 -1.77214,0 0,-1.102873 q -0.76353,0.659839 -1.59304,1.027463 -0.82951,0.367625 -1.80042,0.367625 -1.88525,0 -2.99755,-1.451646 -1.10287,-1.451645 -1.10287,-4.025017 0,-1.33853 0.37705,-2.384846 0.38647,-1.046316 1.03689,-1.781565 0.64098,-0.716397 1.48935,-1.093447 0.85779,-0.377051 1.77214,-0.377051 0.82951,0 1.47049,0.179099 0.64099,0.169673 1.34796,0.537297 l 0,-4.562314 1.77214,0 0,14.667275 z m -1.77214,-2.592224 0,-6.042239 q -0.7164,-0.320493 -1.28197,-0.443034 -0.56558,-0.122542 -1.23484,-0.122542 -1.48935,0 -2.31887,1.03689 -0.82951,1.03689 -0.82951,2.940996 0,1.875828 0.64099,2.85616 0.64099,0.970906 2.05493,0.970906 0.7541,0 1.52705,-0.32992 0.77296,-0.339346 1.44222,-0.867217 z" />
      <path
         inkscape:connector-curvature="0"
         id="path4362"
         d="m 323.25535,26.972406 -7.75782,0 q 0,0.970906 0.29222,1.696729 0.29221,0.716396 0.80123,1.178283 0.49016,0.452461 1.15943,0.678692 0.67869,0.22623 1.48935,0.22623 1.0746,0 2.15862,-0.424182 1.09344,-0.433608 1.55533,-0.848364 l 0.0943,0 0,1.932385 q -0.89549,0.377051 -1.82869,0.63156 -0.9332,0.254509 -1.96067,0.254509 -2.6205,0 -4.091,-1.41394 -1.4705,-1.423367 -1.4705,-4.034443 0,-2.582798 1.40452,-4.100428 1.41394,-1.517629 3.71395,-1.517629 2.13034,0 3.28034,1.244267 1.15943,1.244268 1.15943,3.534852 l 0,0.961479 z m -1.72501,-1.357383 q -0.009,-1.395088 -0.70697,-2.158616 -0.68811,-0.763527 -2.10205,-0.763527 -1.42337,0 -2.27174,0.838938 -0.83893,0.838938 -0.95205,2.083205 l 6.03281,0 z" />
      <path
         inkscape:connector-curvature="0"
         id="path4364"
         d="m 334.7554,26.972406 -7.75782,0 q 0,0.970906 0.29221,1.696729 0.29222,0.716396 0.80123,1.178283 0.49017,0.452461 1.15944,0.678692 0.67869,0.22623 1.48935,0.22623 1.07459,0 2.15861,-0.424182 1.09345,-0.433608 1.55534,-0.848364 l 0.0943,0 0,1.932385 q -0.8955,0.377051 -1.8287,0.63156 -0.9332,0.254509 -1.96066,0.254509 -2.6205,0 -4.091,-1.41394 -1.4705,-1.423367 -1.4705,-4.034443 0,-2.582798 1.40451,-4.100428 1.41394,-1.517629 3.71395,-1.517629 2.13034,0 3.28035,1.244267 1.15943,1.244268 1.15943,3.534852 l 0,0.961479 z m -1.72501,-1.357383 q -0.009,-1.395088 -0.70697,-2.158616 -0.68812,-0.763527 -2.10206,-0.763527 -1.42337,0 -2.27173,0.838938 -0.83894,0.838938 -0.95205,2.083205 l 6.03281,0 z" />
      <path
         inkscape:connector-curvature="0"
         id="path4366"
         d="m 346.24602,32.053165 -1.77213,0 0,-5.995107 q 0,-0.725823 -0.0848,-1.357383 -0.0848,-0.640986 -0.31107,-0.999185 -0.23565,-0.395903 -0.67869,-0.584428 -0.44303,-0.197952 -1.15,-0.197952 -0.72583,0 -1.51763,0.358198 -0.79181,0.358199 -1.51763,0.914349 l 0,7.861508 -1.77214,0 0,-10.529143 1.77214,0 0,1.168858 q 0.82951,-0.688118 1.71558,-1.074595 0.88607,-0.386477 1.81927,-0.386477 1.70615,0 2.60165,1.027463 0.89549,1.027464 0.89549,2.959849 l 0,6.834045 z" />
    </g>
    <path
       sodipodi:nodetypes="cc"
       inkscape:connector-curvature="0"
       id="path4457"
       d="m 286.08948,38.995222 0,35.332784"
       style="fill:none;fill-rule:evenodd;stroke:#000000;stroke-width:1.29999995;stroke-linecap:butt;stroke-linejoin:miter;stroke-miterlimit:10;stroke-dasharray:none;stroke-opacity:1" />
    <rect
       transform="matrix(0,-1,1,0,0,0)"
       ry="11.233872"
       y="213.86853"
       x="-113.33206"
       height="144.44189"
       width="38.731201"
       id="rect8235"
       style="opacity:1;fill:#eaf3ff;fill-opacity:1;stroke:#000000;stroke-width:1;stroke-miterlimit:10;stroke-dasharray:none;stroke-dashoffset:0;stroke-opacity:1" />
    <g
       transform="translate(-15,-11.000004)"
       id="text8237"
       style="font-style:normal;font-weight:normal;font-size:19.30500031px;line-height:125%;font-family:sans-serif;letter-spacing:0px;word-spacing:0px;fill:#000000;fill-opacity:1;stroke:none;stroke-width:1px;stroke-linecap:butt;stroke-linejoin:miter;stroke-opacity:1">
      <path
         inkscape:connector-curvature="0"
         id="path4333"
         d="m 262.88952,112.15402 -9.24717,0 0,-14.035713 9.24717,0 0,1.659023 -7.38077,0 0,3.84592 7.38077,0 0,1.65902 -7.38077,0 0,5.21273 7.38077,0 0,1.65902 z" />
      <path
         inkscape:connector-curvature="0"
         id="path4335"
         d="m 274.2576,112.15402 -1.77214,0 0,-1.10287 q -0.76353,0.65984 -1.59304,1.02746 -0.82951,0.36763 -1.80041,0.36763 -1.88526,0 -2.99756,-1.45165 -1.10287,-1.45164 -1.10287,-4.02502 0,-1.33853 0.37705,-2.38484 0.38648,-1.04632 1.03689,-1.78157 0.64099,-0.71639 1.48935,-1.09344 0.85779,-0.37706 1.77214,-0.37706 0.82951,0 1.4705,0.1791 0.64098,0.16968 1.34795,0.5373 l 0,-4.562313 1.77214,0 0,14.667273 z m -1.77214,-2.59222 0,-6.04224 q -0.71639,-0.32049 -1.28197,-0.44304 -0.56558,-0.12254 -1.23484,-0.12254 -1.48935,0 -2.31886,1.03689 -0.82952,1.03689 -0.82952,2.941 0,1.87583 0.64099,2.85616 0.64099,0.9709 2.05493,0.9709 0.7541,0 1.52705,-0.32992 0.77296,-0.33934 1.44222,-0.86721 z" />
      <path
         inkscape:connector-curvature="0"
         id="path4337"
         d="m 279.64943,99.862167 -1.99837,0 0,-1.838123 1.99837,0 0,1.838123 z m -0.11312,12.291853 -1.77214,0 0,-10.52914 1.77214,0 0,10.52914 z" />
      <path
         inkscape:connector-curvature="0"
         id="path4339"
         d="m 291.79046,112.15402 -1.77214,0 0,-5.99511 q 0,-0.72582 -0.0848,-1.35738 -0.0848,-0.64098 -0.31107,-0.99918 -0.23566,-0.39591 -0.67869,-0.58443 -0.44304,-0.19795 -1.15001,-0.19795 -0.72582,0 -1.51763,0.3582 -0.7918,0.35819 -1.51763,0.91434 l 0,7.86151 -1.77213,0 0,-10.52914 1.77213,0 0,1.16886 q 0.82952,-0.68812 1.71559,-1.0746 0.88606,-0.38648 1.81927,-0.38648 1.70615,0 2.60165,1.02747 0.89549,1.02746 0.89549,2.95985 l 0,6.83404 z" />
      <path
         inkscape:connector-curvature="0"
         id="path4341"
         d="m 304.46879,106.80933 q 0,1.31968 -0.37705,2.37542 -0.36762,1.05574 -0.99918,1.77214 -0.66927,0.74467 -1.4705,1.12172 -0.80123,0.36763 -1.76271,0.36763 -0.8955,0 -1.56476,-0.21681 -0.66927,-0.20738 -1.31968,-0.56557 l -0.11311,0.49016 -1.65903,0 0,-14.667273 1.77214,0 0,5.241003 q 0.74468,-0.6127 1.58361,-0.99918 0.83894,-0.39591 1.88526,-0.39591 1.8664,0 2.94099,1.4328 1.08402,1.43279 1.08402,4.04387 z m -1.82869,0.0471 q 0,-1.88526 -0.62214,-2.85616 -0.62213,-0.98033 -2.00779,-0.98033 -0.77295,0 -1.56476,0.33934 -0.79181,0.32992 -1.4705,0.85779 l 0,6.03282 q 0.7541,0.33934 1.2914,0.47131 0.54672,0.13197 1.23484,0.13197 1.4705,0 2.30001,-0.96148 0.83894,-0.97091 0.83894,-3.03526 z" />
      <path
         inkscape:connector-curvature="0"
         id="path4343"
         d="m 315.95942,112.15402 -1.77214,0 0,-1.16886 q -0.8955,0.70698 -1.71558,1.08403 -0.82009,0.37705 -1.80985,0.37705 -1.65902,0 -2.58279,-1.00861 -0.92378,-1.01804 -0.92378,-2.97871 l 0,-6.83404 1.77214,0 0,5.99511 q 0,0.80123 0.0754,1.37623 0.0754,0.56558 0.32049,0.97091 0.25451,0.41475 0.65984,0.60328 0.40533,0.18852 1.17829,0.18852 0.68811,0 1.49877,-0.35819 0.82009,-0.3582 1.52706,-0.91435 l 0,-7.86151 1.77214,0 0,10.52914 z" />
      <path
         inkscape:connector-curvature="0"
         id="path4345"
         d="m 326.01725,103.55726 -0.0943,0 q -0.3959,-0.0943 -0.77295,-0.13196 -0.36762,-0.0471 -0.87664,-0.0471 -0.82009,0 -1.58362,0.36762 -0.76352,0.3582 -1.47049,0.9332 l 0,7.47503 -1.77214,0 0,-10.52914 1.77214,0 0,1.55533 q 1.05574,-0.84836 1.85697,-1.19713 0.81066,-0.3582 1.6496,-0.3582 0.46189,0 0.66926,0.0283 0.20738,0.0189 0.62214,0.0848 l 0,1.81927 z" />
      <path
         inkscape:connector-curvature="0"
         id="path4347"
         d="m 336.24475,110.95689 q 0,2.67706 -1.21599,3.93075 -1.21598,1.25369 -3.74222,1.25369 -0.83894,0 -1.64018,-0.12254 -0.7918,-0.11311 -1.56476,-0.32992 l 0,-1.80984 0.0943,0 q 0.43361,0.16967 1.37623,0.41476 0.94263,0.2545 1.88526,0.2545 0.90492,0 1.49877,-0.2168 0.59386,-0.2168 0.92378,-0.60328 0.32992,-0.36763 0.47131,-0.88607 0.14139,-0.51844 0.14139,-1.15943 l 0,-0.96148 q -0.80123,0.64099 -1.53648,0.96148 -0.72582,0.31107 -1.85697,0.31107 -1.88526,0 -2.99756,-1.35739 -1.10287,-1.36681 -1.10287,-3.84592 0,-1.35738 0.37705,-2.33771 0.38648,-0.98976 1.04632,-1.70615 0.6127,-0.66927 1.48935,-1.03689 0.87664,-0.37706 1.74386,-0.37706 0.91435,0 1.52705,0.18853 0.62214,0.1791 1.31025,0.55615 l 0.11312,-0.45246 1.65902,0 0,9.33201 z m -1.77214,-1.69673 0,-5.7406 q -0.70697,-0.32049 -1.31967,-0.45246 -0.60328,-0.1414 -1.20657,-0.1414 -1.46107,0 -2.30001,0.98034 -0.83893,0.98033 -0.83893,2.84673 0,1.77214 0.62213,2.68649 0.62213,0.91434 2.06435,0.91434 0.77296,0 1.54591,-0.29221 0.78238,-0.30164 1.43279,-0.80123 z" />
      <path
         inkscape:connector-curvature="0"
         id="path4349"
         d="m 348.53661,112.15402 -1.77214,0 0,-5.99511 q 0,-0.72582 -0.0848,-1.35738 -0.0848,-0.64098 -0.31107,-0.99918 -0.23565,-0.39591 -0.67869,-0.58443 -0.44303,-0.19795 -1.15,-0.19795 -0.72583,0 -1.51763,0.3582 -0.79181,0.35819 -1.51763,0.91434 l 0,7.86151 -1.77214,0 0,-14.667273 1.77214,0 0,5.306993 q 0.82951,-0.68812 1.71558,-1.0746 0.88607,-0.38648 1.81927,-0.38648 1.70615,0 2.60165,1.02747 0.8955,1.02746 0.8955,2.95985 l 0,6.83404 z" />
    </g>
    <rect
       transform="matrix(0,-1,1,0,0,0)"
       ry="11.233872"
       y="213.86853"
       x="-187.43291"
       height="144.44189"
       width="38.731201"
       id="rect8243"
       style="opacity:1;fill:#eaf3ff;fill-opacity:1;stroke:#000000;stroke-width:1;stroke-miterlimit:10;stroke-dasharray:none;stroke-dashoffset:0;stroke-opacity:1" />
    <g
       transform="translate(-15,-17.000004)"
       id="text8245"
       style="font-style:normal;font-weight:normal;font-size:19.30500031px;line-height:125%;font-family:sans-serif;letter-spacing:0px;word-spacing:0px;fill:#000000;fill-opacity:1;stroke:none;stroke-width:1px;stroke-linecap:butt;stroke-linejoin:miter;stroke-opacity:1">
      <path
         inkscape:connector-curvature="0"
         id="path4309"
         d="m 264.28933,192.25487 -2.30944,0 -6.65494,-12.55579 0,12.55579 -1.74386,0 0,-14.03572 2.89386,0 6.07052,11.46235 0,-11.46235 1.74386,0 0,14.03572 z" />
      <path
         inkscape:connector-curvature="0"
         id="path4311"
         d="m 276.6943,187.17411 -7.75782,0 q 0,0.9709 0.29221,1.69673 0.29222,0.71639 0.80124,1.17828 0.49016,0.45246 1.15943,0.67869 0.67869,0.22623 1.48935,0.22623 1.07459,0 2.15861,-0.42418 1.09345,-0.43361 1.55534,-0.84836 l 0.0943,0 0,1.93238 q -0.8955,0.37705 -1.8287,0.63156 -0.9332,0.25451 -1.96066,0.25451 -2.6205,0 -4.091,-1.41394 -1.4705,-1.42337 -1.4705,-4.03444 0,-2.5828 1.40451,-4.10043 1.41395,-1.51763 3.71396,-1.51763 2.13033,0 3.28034,1.24427 1.15943,1.24427 1.15943,3.53485 l 0,0.96148 z m -1.72501,-1.35738 q -0.009,-1.39509 -0.70697,-2.15862 -0.68812,-0.76353 -2.10206,-0.76353 -1.42336,0 -2.27173,0.83894 -0.83894,0.83894 -0.95205,2.08321 l 6.03281,0 z" />
      <path
         inkscape:connector-curvature="0"
         id="path4313"
         d="m 292.62469,181.72572 -2.74304,10.52915 -1.64017,0 -2.70534,-8.11602 -2.68649,8.11602 -1.63074,0 -2.77133,-10.52915 1.84755,0 1.93239,8.15373 2.62993,-8.15373 1.46107,0 2.69591,8.15373 1.8287,-8.15373 1.78156,0 z" />
      <path
         inkscape:connector-curvature="0"
         id="path4315"
         d="m 302.96531,191.59503 q -0.88607,0.42418 -1.6873,0.65984 -0.79181,0.23565 -1.6873,0.23565 -1.14058,0 -2.09264,-0.32992 -0.95205,-0.33934 -1.63074,-1.01803 -0.68812,-0.67869 -1.06517,-1.71558 -0.37705,-1.03689 -0.37705,-2.42255 0,-2.5828 1.41394,-4.0533 1.42337,-1.4705 3.75166,-1.4705 0.90492,0 1.77214,0.25451 0.87664,0.25451 1.60246,0.62213 l 0,1.97009 -0.0943,0 q -0.81066,-0.63156 -1.67788,-0.9709 -0.85779,-0.33935 -1.67787,-0.33935 -1.50821,0 -2.38485,1.01804 -0.86722,1.00861 -0.86722,2.96928 0,1.9041 0.84837,2.93157 0.85779,1.01803 2.4037,1.01803 0.53729,0 1.09344,-0.14139 0.55615,-0.1414 0.99919,-0.36763 0.38648,-0.19795 0.72582,-0.41475 0.33935,-0.22623 0.5373,-0.38648 l 0.0943,0 0,1.95124 z" />
      <path
         inkscape:connector-curvature="0"
         id="path4317"
         d="m 313.42847,192.25487 -1.76271,0 0,-1.12173 q -0.23566,0.16025 -0.64099,0.45246 -0.3959,0.28279 -0.77295,0.45246 -0.44304,0.21681 -1.01804,0.3582 -0.575,0.15082 -1.34796,0.15082 -1.42336,0 -2.41312,-0.94263 -0.98976,-0.94262 -0.98976,-2.40369 0,-1.19714 0.50902,-1.93239 0.51844,-0.74467 1.4705,-1.16886 0.96148,-0.42418 2.30943,-0.575 1.34796,-0.15082 2.89387,-0.22623 l 0,-0.27336 q 0,-0.60328 -0.21681,-0.99919 -0.20737,-0.3959 -0.60328,-0.62213 -0.37705,-0.2168 -0.90492,-0.29221 -0.52787,-0.0754 -1.10287,-0.0754 -0.69755,0 -1.55534,0.18852 -0.85779,0.1791 -1.77214,0.52787 l -0.0943,0 0,-1.80042 q 0.51845,-0.14139 1.49878,-0.31106 0.98033,-0.16967 1.93238,-0.16967 1.1123,0 1.93239,0.18852 0.82951,0.1791 1.43279,0.62213 0.59386,0.43361 0.90492,1.12173 0.31107,0.68812 0.31107,1.70616 l 0,7.14511 z m -1.76271,-2.59223 0,-2.93157 q -0.81066,0.0471 -1.91353,0.1414 -1.09345,0.0943 -1.73444,0.27336 -0.76353,0.2168 -1.23484,0.67869 -0.47131,0.45246 -0.47131,1.25369 0,0.90493 0.54672,1.36681 0.54672,0.45246 1.66845,0.45246 0.9332,0 1.70616,-0.35819 0.77295,-0.36763 1.43279,-0.87665 z" />
      <path
         inkscape:connector-curvature="0"
         id="path4319"
         d="m 324.3818,189.21961 q 0,1.44222 -1.19714,2.36599 -1.18771,0.92378 -3.25206,0.92378 -1.16886,0 -2.14919,-0.27336 -0.97091,-0.28279 -1.63075,-0.61271 l 0,-1.98895 0.0943,0 q 0.83894,0.63156 1.86641,1.00862 1.02746,0.36762 1.97009,0.36762 1.16885,0 1.82869,-0.37705 0.65984,-0.37705 0.65984,-1.18771 0,-0.62213 -0.3582,-0.94263 -0.35819,-0.32049 -1.37623,-0.54672 -0.37705,-0.0848 -0.98976,-0.19795 -0.60328,-0.11312 -1.10287,-0.24509 -1.38567,-0.36762 -1.97009,-1.07459 -0.57501,-0.7164 -0.57501,-1.75329 0,-0.65041 0.26394,-1.22541 0.27336,-0.575 0.82008,-1.02747 0.52788,-0.44303 1.33853,-0.69754 0.82009,-0.26393 1.8287,-0.26393 0.94263,0 1.90411,0.23565 0.9709,0.22623 1.61189,0.55615 l 0,1.89468 -0.0943,0 q -0.67869,-0.49959 -1.6496,-0.83894 -0.97091,-0.34877 -1.90411,-0.34877 -0.9709,0 -1.64017,0.37705 -0.66926,0.36763 -0.66926,1.10288 0,0.65041 0.40533,0.98033 0.3959,0.32992 1.28197,0.5373 0.49017,0.11311 1.09345,0.22623 0.6127,0.11311 1.01803,0.20737 1.23485,0.28279 1.90411,0.97091 0.66927,0.69754 0.66927,1.84755 z" />
      <path
         inkscape:connector-curvature="0"
         id="path4321"
         d="m 332.39413,192.1606 q -0.4996,0.13197 -1.09345,0.21681 -0.58443,0.0848 -1.04632,0.0848 -1.61189,0 -2.45083,-0.86722 -0.83894,-0.86722 -0.83894,-2.78075 l 0,-5.59921 -1.19713,0 0,-1.48935 1.19713,0 0,-3.02583 1.77214,0 0,3.02583 3.6574,0 0,1.48935 -3.6574,0 0,4.79798 q 0,0.82951 0.0377,1.30082 0.0377,0.46189 0.26393,0.86722 0.20738,0.37705 0.56558,0.55615 0.36762,0.16967 1.1123,0.16967 0.43361,0 0.90492,-0.12254 0.47131,-0.13197 0.67869,-0.2168 l 0.0943,0 0,1.59303 z" />
      <path
         inkscape:connector-curvature="0"
         id="path4323"
         d="m 336.3343,192.25487 -1.77213,0 0,-14.66728 1.77213,0 0,14.66728 z" />
      <path
         inkscape:connector-curvature="0"
         id="path4325"
         d="m 348.59788,187.17411 -7.75782,0 q 0,0.9709 0.29222,1.69673 0.29221,0.71639 0.80123,1.17828 0.49016,0.45246 1.15943,0.67869 0.67869,0.22623 1.48935,0.22623 1.07459,0 2.15862,-0.42418 1.09344,-0.43361 1.55533,-0.84836 l 0.0943,0 0,1.93238 q -0.89549,0.37705 -1.82869,0.63156 -0.9332,0.25451 -1.96067,0.25451 -2.6205,0 -4.091,-1.41394 -1.4705,-1.42337 -1.4705,-4.03444 0,-2.5828 1.40452,-4.10043 1.41394,-1.51763 3.71395,-1.51763 2.13033,0 3.28034,1.24427 1.15943,1.24427 1.15943,3.53485 l 0,0.96148 z m -1.72501,-1.35738 q -0.009,-1.39509 -0.70697,-2.15862 -0.68811,-0.76353 -2.10205,-0.76353 -1.42337,0 -2.27174,0.83894 -0.83893,0.83894 -0.95205,2.08321 l 6.03281,0 z" />
    </g>
    <rect
       style="opacity:1;fill:#eaf3ff;fill-opacity:1;stroke:#000000;stroke-width:1;stroke-miterlimit:10;stroke-dasharray:none;stroke-dashoffset:0;stroke-opacity:1"
       id="rect8249"
       width="38.731201"
       height="144.44189"
       x="-261.53375"
       y="213.86853"
       ry="11.233872"
       transform="matrix(0,-1,1,0,0,0)" />
    <g
       transform="translate(-15,-23.000004)"
       id="text8251"
       style="font-style:normal;font-weight:normal;font-size:19.30500031px;line-height:125%;font-family:sans-serif;letter-spacing:0px;word-spacing:0px;fill:#000000;fill-opacity:1;stroke:none;stroke-width:1px;stroke-linecap:butt;stroke-linejoin:miter;stroke-opacity:1">
      <path
         inkscape:connector-curvature="0"
         id="path4289"
         d="m 276.41623,272.35571 -8.87955,0 0,-14.03571 1.8664,0 0,12.37669 7.01315,0 0,1.65902 z" />
      <path
         inkscape:connector-curvature="0"
         id="path4291"
         d="m 287.11504,267.09585 q 0,2.57338 -1.31967,4.06273 -1.31968,1.48935 -3.53485,1.48935 -2.23403,0 -3.55371,-1.48935 -1.31025,-1.48935 -1.31025,-4.06273 0,-2.57337 1.31025,-4.06272 1.31968,-1.49877 3.55371,-1.49877 2.21517,0 3.53485,1.49877 1.31967,1.48935 1.31967,4.06272 z m -1.82869,0 q 0,-2.0455 -0.80123,-3.03525 -0.80124,-0.99919 -2.2246,-0.99919 -1.44222,0 -2.24346,0.99919 -0.7918,0.98975 -0.7918,3.03525 0,1.97952 0.80123,3.00698 0.80123,1.01804 2.23403,1.01804 1.41394,0 2.21517,-1.00861 0.81066,-1.01804 0.81066,-3.01641 z" />
      <path
         inkscape:connector-curvature="0"
         id="path4293"
         d="m 298.67165,272.35571 -1.77214,0 0,-5.9951 q 0,-0.72583 -0.0848,-1.35739 -0.0848,-0.64098 -0.31107,-0.99918 -0.23566,-0.39591 -0.67869,-0.58443 -0.44304,-0.19795 -1.15001,-0.19795 -0.72582,0 -1.51763,0.3582 -0.7918,0.35819 -1.51763,0.91434 l 0,7.86151 -1.77213,0 0,-10.52914 1.77213,0 0,1.16886 q 0.82952,-0.68812 1.71558,-1.0746 0.88607,-0.38647 1.81928,-0.38647 1.70615,0 2.60165,1.02746 0.89549,1.02746 0.89549,2.95985 l 0,6.83404 z" />
      <path
         inkscape:connector-curvature="0"
         id="path4295"
         d="m 310.62416,272.35571 -1.77214,0 0,-1.10287 q -0.76352,0.65984 -1.59303,1.02746 -0.82952,0.36763 -1.80042,0.36763 -1.88526,0 -2.99756,-1.45165 -1.10287,-1.45164 -1.10287,-4.02502 0,-1.33853 0.37705,-2.38484 0.38648,-1.04632 1.03689,-1.78157 0.64099,-0.71639 1.48935,-1.09344 0.85779,-0.37705 1.77214,-0.37705 0.82951,0 1.4705,0.17909 0.64098,0.16968 1.34795,0.5373 l 0,-4.56231 1.77214,0 0,14.66727 z m -1.77214,-2.59222 0,-6.04224 q -0.71639,-0.32049 -1.28197,-0.44303 -0.56557,-0.12255 -1.23484,-0.12255 -1.48935,0 -2.31886,1.03689 -0.82951,1.03689 -0.82951,2.941 0,1.87583 0.64098,2.85616 0.64099,0.9709 2.05493,0.9709 0.7541,0 1.52706,-0.32991 0.77295,-0.33935 1.44221,-0.86722 z" />
      <path
         inkscape:connector-curvature="0"
         id="path4297"
         d="m 323.08569,267.09585 q 0,2.57338 -1.31968,4.06273 -1.31968,1.48935 -3.53485,1.48935 -2.23403,0 -3.5537,-1.48935 -1.31026,-1.48935 -1.31026,-4.06273 0,-2.57337 1.31026,-4.06272 1.31967,-1.49877 3.5537,-1.49877 2.21517,0 3.53485,1.49877 1.31968,1.48935 1.31968,4.06272 z m -1.8287,0 q 0,-2.0455 -0.80123,-3.03525 -0.80123,-0.99919 -2.2246,-0.99919 -1.44222,0 -2.24345,0.99919 -0.79181,0.98975 -0.79181,3.03525 0,1.97952 0.80123,3.00698 0.80124,1.01804 2.23403,1.01804 1.41394,0 2.21517,-1.00861 0.81066,-1.01804 0.81066,-3.01641 z" />
      <path
         inkscape:connector-curvature="0"
         id="path4299"
         d="m 334.6423,272.35571 -1.77214,0 0,-5.9951 q 0,-0.72583 -0.0848,-1.35739 -0.0848,-0.64098 -0.31107,-0.99918 -0.23565,-0.39591 -0.67869,-0.58443 -0.44303,-0.19795 -1.15,-0.19795 -0.72583,0 -1.51763,0.3582 -0.79181,0.35819 -1.51763,0.91434 l 0,7.86151 -1.77214,0 0,-10.52914 1.77214,0 0,1.16886 q 0.82951,-0.68812 1.71558,-1.0746 0.88607,-0.38647 1.81927,-0.38647 1.70615,0 2.60165,1.02746 0.8955,1.02746 0.8955,2.95985 l 0,6.83404 z" />
    </g>
    <path
       style="fill:none;fill-rule:evenodd;stroke:#000000;stroke-width:1.29999995;stroke-linecap:butt;stroke-linejoin:miter;stroke-miterlimit:10;stroke-dasharray:none;stroke-opacity:1"
       d="m 286.08948,113.24145 0,35.41641"
       id="path8413"
       inkscape:connector-curvature="0"
       sodipodi:nodetypes="cc" />
    <path
       sodipodi:nodetypes="cc"
       inkscape:connector-curvature="0"
       id="path8415"
       d="m 286.08948,187.49806 0,34.9164"
       style="fill:none;fill-rule:evenodd;stroke:#000000;stroke-width:1.29999995;stroke-linecap:butt;stroke-linejoin:miter;stroke-miterlimit:10;stroke-dasharray:none;stroke-opacity:1" />
    <g
       transform="translate(-15,-8.254402)"
       id="text8257-7"
       style="font-style:normal;font-weight:normal;font-size:19.30500031px;line-height:125%;font-family:sans-serif;letter-spacing:0px;word-spacing:0px;color-interpolation:auto;fill:#000000;fill-opacity:1;stroke:none;stroke-width:1px;stroke-linecap:butt;stroke-linejoin:miter;stroke-miterlimit:10;stroke-dasharray:none;stroke-dashoffset:0;stroke-opacity:1;color-rendering:auto;image-rendering:auto;shape-rendering:auto;text-rendering:auto">
      <path
         inkscape:connector-curvature="0"
         id="path4369"
         d="m 270.68396,71.929161 -7.59758,0 0,-1.432793 2.92215,0 0,-9.407417 -2.92215,0 0,-1.281973 q 0.59386,0 1.27255,-0.09426 0.67869,-0.103689 1.02746,-0.292215 0.43361,-0.235657 0.6787,-0.593855 0.2545,-0.367624 0.29221,-0.980332 l 1.46107,0 0,12.650054 2.86559,0 0,1.432793 z" />
      <path
         inkscape:connector-curvature="0"
         id="path4371"
         d="m 284.09754,67.979554 -2.08321,0 0,3.949607 -1.80984,0 0,-3.949607 -6.72093,0 0,-2.168042 6.79634,-7.918066 1.73443,0 0,8.577905 2.08321,0 0,1.508203 z m -3.89305,-1.508203 0,-6.334453 -5.43896,6.334453 5.43896,0 z" />
      <path
         inkscape:connector-curvature="0"
         id="path4373"
         d="m 296.05005,64.90659 q 0,3.779934 -1.18771,5.552073 -1.17828,1.762712 -3.66682,1.762712 -2.52624,0 -3.6951,-1.790991 -1.15943,-1.790991 -1.15943,-5.504941 0,-3.742229 1.17829,-5.523794 1.17828,-1.790992 3.67624,-1.790992 2.52624,0 3.68567,1.81927 1.16886,1.809844 1.16886,5.476663 z m -2.47911,4.279527 q 0.32992,-0.763528 0.44304,-1.790992 0.12254,-1.036889 0.12254,-2.488535 0,-1.432793 -0.12254,-2.488535 -0.11312,-1.055742 -0.45247,-1.790991 -0.32991,-0.725823 -0.90492,-1.093448 -0.56557,-0.367624 -1.46107,-0.367624 -0.88607,0 -1.4705,0.367624 -0.575,0.367625 -0.91435,1.1123 -0.32049,0.697544 -0.44303,1.81927 -0.11312,1.121726 -0.11312,2.460257 0,1.470498 0.10369,2.460256 0.10369,0.989758 0.44304,1.772139 0.31107,0.735249 0.87664,1.121726 0.575,0.386477 1.51763,0.386477 0.88607,0 1.4705,-0.367625 0.58443,-0.367624 0.90492,-1.112299 z" />
    </g>
    <g
       transform="translate(-15,-14.067225)"
       id="text8435"
       style="font-style:normal;font-weight:normal;font-size:19.30500031px;line-height:125%;font-family:sans-serif;letter-spacing:0px;word-spacing:0px;color-interpolation:auto;fill:#000000;fill-opacity:1;stroke:none;stroke-width:1px;stroke-linecap:butt;stroke-linejoin:miter;stroke-miterlimit:10;stroke-dasharray:none;stroke-dashoffset:0;stroke-opacity:1;color-rendering:auto;image-rendering:auto;shape-rendering:auto;text-rendering:auto">
      <path
         inkscape:connector-curvature="0"
         id="path4328"
         d="m 283.75821,144.16854 q 0,1.83812 -0.42418,3.3369 -0.41476,1.49877 -1.26312,2.55451 -0.85779,1.0746 -2.14919,1.65903 -1.2914,0.58443 -3.03526,0.58443 -0.49017,0 -0.92378,-0.0566 -0.43361,-0.0471 -0.77295,-0.16025 l 0,-1.80042 0.0943,0 q 0.27336,0.1414 0.77296,0.27337 0.49959,0.12254 1.1123,0.12254 2.0832,0 3.26148,-1.24427 1.18771,-1.25369 1.37624,-3.45001 -0.87664,0.52787 -1.6496,0.7541 -0.77295,0.22623 -1.6873,0.22623 -0.86722,0 -1.57419,-0.16968 -0.69754,-0.16967 -1.40451,-0.65983 -0.82951,-0.57501 -1.25369,-1.46108 -0.41476,-0.88607 -0.41476,-2.12091 0,-2.14919 1.41394,-3.49714 1.41394,-1.34796 3.45002,-1.34796 1.01803,0 1.88525,0.32049 0.86722,0.31107 1.51763,0.94263 0.80123,0.78238 1.23484,2.01722 0.43361,1.22542 0.43361,3.17666 z m -1.90411,-0.40533 q 0,-1.46108 -0.30164,-2.34715 -0.30164,-0.88606 -0.82951,-1.37623 -0.44304,-0.42418 -0.95205,-0.60328 -0.50902,-0.18853 -1.10288,-0.18853 -1.35738,0 -2.14919,0.84837 -0.78238,0.84836 -0.78238,2.38484 0,0.8955 0.25451,1.46108 0.25451,0.56557 0.85779,0.98975 0.42418,0.29222 0.9332,0.39591 0.50902,0.0943 1.13116,0.0943 0.73524,0 1.48935,-0.19795 0.7541,-0.19795 1.41394,-0.575 0.009,-0.19796 0.0188,-0.38648 0.0189,-0.19795 0.0189,-0.49959 z" />
      <path
         inkscape:connector-curvature="0"
         id="path4330"
         d="m 296.05006,145.00747 q 0,3.77994 -1.18771,5.55208 -1.17828,1.76271 -3.66681,1.76271 -2.52625,0 -3.6951,-1.79099 -1.15943,-1.79099 -1.15943,-5.50494 0,-3.74223 1.17828,-5.5238 1.17828,-1.79099 3.67625,-1.79099 2.52624,0 3.68567,1.81927 1.16885,1.80984 1.16885,5.47666 z m -2.4791,4.27953 q 0.32991,-0.76353 0.44303,-1.79099 0.12254,-1.03689 0.12254,-2.48854 0,-1.43279 -0.12254,-2.48853 -0.11312,-1.05574 -0.45246,-1.79099 -0.32992,-0.72583 -0.90492,-1.09345 -0.56558,-0.36762 -1.46107,-0.36762 -0.88607,0 -1.4705,0.36762 -0.57501,0.36762 -0.91435,1.1123 -0.32049,0.69754 -0.44304,1.81927 -0.11311,1.12173 -0.11311,2.46026 0,1.47049 0.10369,2.46025 0.10369,0.98976 0.44303,1.77214 0.31107,0.73525 0.87665,1.12173 0.575,0.38647 1.51763,0.38647 0.88606,0 1.47049,-0.36762 0.58443,-0.36762 0.90493,-1.1123 z" />
    </g>
    <g
       transform="translate(-15,-20.16147)"
       id="text8439"
       style="font-style:normal;font-weight:normal;font-size:19.30500031px;line-height:125%;font-family:sans-serif;letter-spacing:0px;word-spacing:0px;color-interpolation:auto;fill:#000000;fill-opacity:1;stroke:none;stroke-width:1px;stroke-linecap:butt;stroke-linejoin:miter;stroke-miterlimit:10;stroke-dasharray:none;stroke-dashoffset:0;stroke-opacity:1;color-rendering:auto;image-rendering:auto;shape-rendering:auto;text-rendering:auto">
      <path
         inkscape:connector-curvature="0"
         id="path4302"
         d="m 270.68393,232.13087 -7.59758,0 0,-1.43279 2.92215,0 0,-9.40742 -2.92215,0 0,-1.28197 q 0.59386,0 1.27255,-0.0943 0.67869,-0.10369 1.02746,-0.29222 0.43361,-0.23565 0.6787,-0.59385 0.2545,-0.36762 0.29221,-0.98033 l 1.46107,0 0,12.65005 2.86559,0 0,1.43279 z" />
      <path
         inkscape:connector-curvature="0"
         id="path4304"
         d="m 283.81472,220.19722 -6.3533,11.93365 -2.01723,0 6.75864,-12.38611 -7.99348,0 0,-1.6496 9.60537,0 0,2.10206 z" />
      <path
         inkscape:connector-curvature="0"
         id="path4306"
         d="m 296.05002,225.1083 q 0,3.77994 -1.18771,5.55208 -1.17828,1.76271 -3.66682,1.76271 -2.52624,0 -3.6951,-1.79099 -1.15943,-1.79099 -1.15943,-5.50494 0,-3.74223 1.17829,-5.5238 1.17828,-1.79099 3.67624,-1.79099 2.52624,0 3.68567,1.81927 1.16886,1.80984 1.16886,5.47666 z m -2.47911,4.27953 q 0.32992,-0.76353 0.44303,-1.79099 0.12255,-1.03689 0.12255,-2.48854 0,-1.43279 -0.12255,-2.48853 -0.11311,-1.05574 -0.45246,-1.79099 -0.32992,-0.72583 -0.90492,-1.09345 -0.56557,-0.36762 -1.46107,-0.36762 -0.88607,0 -1.4705,0.36762 -0.575,0.36762 -0.91435,1.1123 -0.32049,0.69754 -0.44303,1.81927 -0.11312,1.12173 -0.11312,2.46026 0,1.47049 0.10369,2.46025 0.10369,0.98976 0.44304,1.77214 0.31106,0.73525 0.87664,1.12173 0.575,0.38647 1.51763,0.38647 0.88607,0 1.4705,-0.36762 0.58443,-0.36762 0.90492,-1.1123 z" />
    </g>
    <rect
       transform="matrix(0,-1,1,0,0,0)"
       ry="11.233872"
       y="0.5"
       x="-113.33203"
       height="144.44189"
       width="38.731201"
       id="rect8255"
       style="opacity:1;fill:#eaf3ff;fill-opacity:1;stroke:#000000;stroke-width:1;stroke-miterlimit:10;stroke-dasharray:none;stroke-dashoffset:0;stroke-opacity:1" />
    <g
       transform="translate(-5,-11.000004)"
       id="text8257"
       style="font-style:normal;font-weight:normal;font-size:19.30500031px;line-height:125%;font-family:sans-serif;letter-spacing:0px;word-spacing:0px;fill:#000000;fill-opacity:1;stroke:none;stroke-width:1px;stroke-linecap:butt;stroke-linejoin:miter;stroke-opacity:1">
      <path
         inkscape:connector-curvature="0"
         id="path4381"
         d="m 50.455474,111.11711 q -1.150005,0.52787 -2.516814,0.92377 -1.357383,0.38648 -2.629929,0.38648 -1.640171,0 -3.00698,-0.45246 -1.36681,-0.45246 -2.328289,-1.35738 -0.970906,-0.91435 -1.498777,-2.28116 -0.527871,-1.37624 -0.527871,-3.21436 0,-3.36518 1.960664,-5.306988 1.97009,-1.951238 5.401253,-1.951238 1.197136,0 2.441403,0.292215 1.253694,0.282788 2.695914,0.970906 l 0,2.215175 -0.169673,0 q -0.292215,-0.22623 -0.848365,-0.59386 -0.556149,-0.36762 -1.093447,-0.6127 -0.650412,-0.292219 -1.479924,-0.480744 -0.820086,-0.197952 -1.866402,-0.197952 -2.356567,0 -3.732802,1.517626 -1.366809,1.50821 -1.366809,4.091 0,2.7242 1.432793,4.24183 1.432793,1.5082 3.902475,1.5082 0.904922,0 1.800418,-0.1791 0.904922,-0.1791 1.583613,-0.46189 l 0,-3.44059 -3.761082,0 0,-1.64017 5.608631,0 0,6.02339 z" />
      <path
         inkscape:connector-curvature="0"
         id="path4383"
         d="m 55.36656,112.154 -1.772139,0 0,-14.667276 1.772139,0 0,14.667276 z" />
      <path
         inkscape:connector-curvature="0"
         id="path4385"
         d="m 66.998578,112.154 -1.762713,0 0,-1.12173 q -0.235656,0.16025 -0.640986,0.45246 -0.395903,0.28279 -0.772954,0.45247 -0.443035,0.2168 -1.018037,0.35819 -0.575003,0.15082 -1.347957,0.15082 -1.423367,0 -2.413125,-0.94262 -0.989758,-0.94263 -0.989758,-2.4037 0,-1.19714 0.509018,-1.93239 0.518445,-0.74467 1.470498,-1.16885 0.96148,-0.42419 2.309437,-0.57501 1.347956,-0.15082 2.893864,-0.22623 l 0,-0.27336 q 0,-0.60328 -0.216804,-0.99918 -0.207378,-0.39591 -0.603281,-0.62214 -0.377051,-0.2168 -0.904922,-0.29221 -0.527871,-0.0754 -1.102874,-0.0754 -0.697544,0 -1.555334,0.18852 -0.857791,0.1791 -1.772139,0.52787 l -0.09426,0 0,-1.80041 q 0.518444,-0.1414 1.498776,-0.31107 0.980332,-0.16967 1.932386,-0.16967 1.112299,0 1.932385,0.18852 0.829512,0.1791 1.432793,0.62214 0.593855,0.4336 0.904922,1.12172 0.311067,0.68812 0.311067,1.70616 l 0,7.14511 z m -1.762713,-2.59222 0,-2.93157 q -0.810659,0.0471 -1.913532,0.14139 -1.093448,0.0943 -1.734434,0.27336 -0.763528,0.21681 -1.234841,0.67869 -0.471314,0.45246 -0.471314,1.2537 0,0.90492 0.546724,1.36681 0.546723,0.45246 1.668449,0.45246 0.933201,0 1.706155,-0.3582 0.772954,-0.36763 1.432793,-0.87664 z" />
      <path
         inkscape:connector-curvature="0"
         id="path4387"
         d="m 77.951902,109.11874 q 0,1.44222 -1.197136,2.36599 -1.18771,0.92378 -3.252063,0.92378 -1.168858,0 -2.14919,-0.27336 -0.970906,-0.28279 -1.630745,-0.61271 l 0,-1.98894 0.09426,0 q 0.838938,0.63156 1.866402,1.00861 1.027463,0.36762 1.97009,0.36762 1.168857,0 1.828696,-0.37705 0.659839,-0.37705 0.659839,-1.18771 0,-0.62213 -0.358198,-0.94263 -0.358198,-0.32049 -1.376236,-0.54672 -0.37705,-0.0848 -0.989758,-0.19795 -0.603281,-0.11312 -1.102873,-0.24508 -1.385662,-0.36763 -1.970091,-1.0746 -0.575002,-0.7164 -0.575002,-1.75329 0,-0.65041 0.263935,-1.22541 0.273362,-0.575 0.820086,-1.02746 0.527871,-0.44304 1.33853,-0.69755 0.820086,-0.26393 1.828696,-0.26393 0.942627,0 1.904107,0.23565 0.970906,0.22623 1.611892,0.55615 l 0,1.89468 -0.09426,0 q -0.678691,-0.49959 -1.649597,-0.83893 -0.970906,-0.34878 -1.904106,-0.34878 -0.970906,0 -1.640171,0.37705 -0.669265,0.36763 -0.669265,1.10288 0,0.65041 0.405329,0.98033 0.395903,0.32992 1.281973,0.5373 0.490166,0.11311 1.093447,0.22623 0.612708,0.11311 1.018037,0.20738 1.234842,0.28278 1.904107,0.9709 0.669265,0.69755 0.669265,1.84755 z" />
      <path
         inkscape:connector-curvature="0"
         id="path4389"
         d="m 89.037196,110.95686 q 0,2.67706 -1.215989,3.93076 -1.215989,1.25369 -3.742229,1.25369 -0.838938,0 -1.640171,-0.12254 -0.791807,-0.11312 -1.564761,-0.32992 l 0,-1.80984 0.09426,0 q 0.433608,0.16967 1.376235,0.41475 0.942627,0.25451 1.885254,0.25451 0.904922,0 1.498777,-0.2168 0.593855,-0.21681 0.923775,-0.60328 0.329919,-0.36763 0.471313,-0.88607 0.141394,-0.51845 0.141394,-1.15943 l 0,-0.96148 q -0.801233,0.64098 -1.536482,0.96148 -0.725823,0.31106 -1.856975,0.31106 -1.885254,0 -2.997554,-1.35738 -1.102873,-1.36681 -1.102873,-3.84592 0,-1.35738 0.377051,-2.33771 0.386477,-0.98976 1.046316,-1.70616 0.612707,-0.66926 1.48935,-1.03689 0.876643,-0.37705 1.74386,-0.37705 0.914348,0 1.527056,0.18853 0.622134,0.1791 1.310251,0.55615 l 0.113115,-0.45246 1.659024,0 0,9.332 z m -1.772139,-1.69673 0,-5.74059 q -0.70697,-0.3205 -1.319678,-0.45246 -0.603281,-0.1414 -1.206562,-0.1414 -1.461072,0 -2.30001,0.98033 -0.838938,0.98034 -0.838938,2.84674 0,1.77214 0.622134,2.68648 0.622134,0.91435 2.064353,0.91435 0.772954,0 1.545908,-0.29221 0.782381,-0.30164 1.432793,-0.80124 z" />
      <path
         inkscape:connector-curvature="0"
         id="path4391"
         d="m 101.49872,106.89414 q 0,2.57337 -1.31967,4.06272 -1.319681,1.48935 -3.534855,1.48935 -2.234026,0 -3.553703,-1.48935 -1.310252,-1.48935 -1.310252,-4.06272 0,-2.57337 1.310252,-4.06272 1.319677,-1.49878 3.553703,-1.49878 2.215174,0 3.534855,1.49878 1.31967,1.48935 1.31967,4.06272 z m -1.828692,0 q 0,-2.0455 -0.801233,-3.03526 -0.801233,-0.99918 -2.2246,-0.99918 -1.442219,0 -2.243452,0.99918 -0.791807,0.98976 -0.791807,3.03526 0,1.97952 0.801233,3.00698 0.801233,1.01804 2.234026,1.01804 1.413941,0 2.215174,-1.00861 0.810659,-1.01804 0.810659,-3.01641 z" />
      <path
         inkscape:connector-curvature="0"
         id="path4393"
         d="m 117.4951,101.62486 -2.74304,10.52914 -1.64017,0 -2.70534,-8.11602 -2.68649,8.11602 -1.63075,0 -2.77132,-10.52914 1.84755,0 1.93239,8.15372 2.62992,-8.15372 1.46108,0 2.69591,8.15372 1.8287,-8.15372 1.78156,0 z" />
    </g>
    <g
       transform="translate(-9.999985,-11.000004)"
       id="text8461-5"
       style="font-style:normal;font-weight:normal;font-size:19.30500031px;line-height:125%;font-family:sans-serif;letter-spacing:0px;word-spacing:0px;color-interpolation:auto;fill:#000000;fill-opacity:1;stroke:none;stroke-width:1px;stroke-linecap:butt;stroke-linejoin:miter;stroke-miterlimit:10;stroke-dasharray:none;stroke-dashoffset:0;stroke-opacity:1;color-rendering:auto;image-rendering:auto;shape-rendering:auto;text-rendering:auto">
      <path
         inkscape:connector-curvature="0"
         id="path4376"
         d="m 187.67328,96.877693 q 0,0.980332 -0.35819,1.875828 -0.3582,0.895496 -0.98034,1.508199 -0.67869,0.65984 -1.62131,1.01804 -0.93321,0.34877 -2.16805,0.34877 -1.15,0 -2.21517,-0.24508 -1.06517,-0.23566 -1.80042,-0.575 l 0,-1.988945 0.13197,0 q 0.77295,0.490166 1.80984,0.838938 1.03689,0.339346 2.03608,0.339346 0.66926,0 1.2914,-0.188526 0.63156,-0.188525 1.12172,-0.659839 0.41476,-0.405329 0.62214,-0.970905 0.2168,-0.565577 0.2168,-1.310252 0,-0.725823 -0.25451,-1.225415 -0.24508,-0.499592 -0.68812,-0.801233 -0.49016,-0.358198 -1.19713,-0.499592 -0.69755,-0.15082 -1.56476,-0.15082 -0.82951,0 -1.60247,0.113115 -0.76353,0.113115 -1.31968,0.22623 l 0,-7.229949 8.44594,0 0,1.649598 -6.62667,0 0,3.732802 q 0.40533,-0.03771 0.82952,-0.05656 0.42418,-0.01885 0.73524,-0.01885 1.14058,0 1.99837,0.197952 0.85779,0.188525 1.57419,0.678691 0.7541,0.518445 1.16886,1.338531 0.41475,0.820085 0.41475,2.054926 z" />
      <path
         inkscape:connector-curvature="0"
         id="path4378"
         d="m 200.0594,94.313748 q 0,3.779934 -1.18771,5.552073 -1.17828,1.762709 -3.66682,1.762709 -2.52624,0 -3.69509,-1.790988 -1.15944,-1.790991 -1.15944,-5.504941 0,-3.742229 1.17829,-5.523794 1.17828,-1.790992 3.67624,-1.790992 2.52624,0 3.68567,1.81927 1.16886,1.809844 1.16886,5.476663 z m -2.47911,4.279526 q 0.32992,-0.763527 0.44304,-1.790991 0.12254,-1.036889 0.12254,-2.488535 0,-1.432793 -0.12254,-2.488535 -0.11312,-1.055742 -0.45246,-1.790991 -0.32992,-0.725823 -0.90492,-1.093448 -0.56558,-0.367624 -1.46108,-0.367624 -0.88607,0 -1.47049,0.367624 -0.57501,0.367625 -0.91435,1.1123 -0.3205,0.697544 -0.44304,1.81927 -0.11311,1.121726 -0.11311,2.460257 0,1.470498 0.10369,2.460256 0.10369,0.989758 0.44303,1.772139 0.31107,0.735249 0.87664,1.121726 0.57501,0.386478 1.51763,0.386478 0.88607,0 1.4705,-0.367626 0.58443,-0.367624 0.90492,-1.1123 z" />
    </g>
    <path
       style="font-style:normal;font-weight:normal;font-size:12px;font-family:Dialog;color-interpolation:auto;fill:none;fill-opacity:1;fill-rule:evenodd;stroke:#000000;stroke-width:1.29999995;stroke-linecap:butt;stroke-linejoin:miter;stroke-miterlimit:10;stroke-dasharray:none;stroke-dashoffset:0;stroke-opacity:1;color-rendering:auto;image-rendering:auto;shape-rendering:auto;text-rendering:auto"
       d="m 144.7963,93.966456 68.99663,0"
       id="path8413-5"
       inkscape:connector-curvature="0"
       sodipodi:nodetypes="cc" />
  </g>
</svg>
