<?xml version="1.0" encoding="UTF-8" standalone="no"?>
<svg
   xmlns:dc="http://purl.org/dc/elements/1.1/"
   xmlns:cc="http://creativecommons.org/ns#"
   xmlns:rdf="http://www.w3.org/1999/02/22-rdf-syntax-ns#"
   xmlns:svg="http://www.w3.org/2000/svg"
   xmlns="http://www.w3.org/2000/svg"
   version="1.1"
   id="svg4387"
   viewBox="0 0 180 68.14286"
   height="19.23143mm"
   width="50.799999mm">
  <defs
     id="defs4389">
    <marker
       orient="auto"
       refY="0"
       refX="0"
       id="marker4819"
       style="overflow:visible">
      <path
         id="path4821"
         d="m -2.5,-1 c 0,2.76 -2.24,5 -5,5 -2.76,0 -5,-2.24 -5,-5 0,-2.76 2.24,-5 5,-5 2.76,0 5,2.24 5,5 z"
         style="fill:#000000;fill-opacity:1;fill-rule:evenodd;stroke:#000000;stroke-width:1pt;stroke-opacity:1"
         transform="matrix(0.8,0,0,0.8,5.92,0.8)" />
    </marker>
    <marker
       orient="auto"
       refY="0"
       refX="0"
       id="marker4761"
       style="overflow:visible">
      <path
         id="path4763"
         d="m -2.5,-1 c 0,2.76 -2.24,5 -5,5 -2.76,0 -5,-2.24 -5,-5 0,-2.76 2.24,-5 5,-5 2.76,0 5,2.24 5,5 z"
         style="fill:#000000;fill-opacity:1;fill-rule:evenodd;stroke:#000000;stroke-width:1pt;stroke-opacity:1"
         transform="matrix(0.8,0,0,0.8,5.92,0.8)" />
    </marker>
    <marker
       style="overflow:visible"
       id="marker4539"
       refX="0"
       refY="0"
       orient="auto">
      <path
         transform="matrix(0.8,0,0,0.8,5.92,0.8)"
         style="fill:#000000;fill-opacity:1;fill-rule:evenodd;stroke:#000000;stroke-width:1pt;stroke-opacity:1"
         d="m -2.5,-1 c 0,2.76 -2.24,5 -5,5 -2.76,0 -5,-2.24 -5,-5 0,-2.76 2.24,-5 5,-5 2.76,0 5,2.24 5,5 z"
         id="path4541" />
    </marker>
    <marker
       style="overflow:visible"
       id="marker4493"
       refX="0"
       refY="0"
       orient="auto">
      <path
         transform="matrix(0.8,0,0,0.8,5.92,0.8)"
         style="fill:#000000;fill-opacity:1;fill-rule:evenodd;stroke:#000000;stroke-width:1pt;stroke-opacity:1"
         d="m -2.5,-1 c 0,2.76 -2.24,5 -5,5 -2.76,0 -5,-2.24 -5,-5 0,-2.76 2.24,-5 5,-5 2.76,0 5,2.24 5,5 z"
         id="path4495" />
    </marker>
    <marker
       style="overflow:visible"
       id="marker5464"
       refX="0"
       refY="0"
       orient="auto">
      <path
         transform="matrix(-0.8,0,0,-0.8,-10,0)"
         style="fill:#000000;fill-opacity:1;fill-rule:evenodd;stroke:#000000;stroke-width:1pt;stroke-opacity:1"
         d="M 0,0 5,-5 -12.5,0 5,5 0,0 Z"
         id="path5466" />
    </marker>
    <marker
       orient="auto"
       refY="0"
       refX="0"
       id="marker11464"
       style="overflow:visible">
      <path
         id="path11466"
         d="m -2.5,-1 c 0,2.76 -2.24,5 -5,5 -2.76,0 -5,-2.24 -5,-5 0,-2.76 2.24,-5 5,-5 2.76,0 5,2.24 5,5 z"
         style="fill:#000000;fill-opacity:1;fill-rule:evenodd;stroke:#000000;stroke-width:1pt;stroke-opacity:1"
         transform="matrix(0.8,0,0,0.8,5.92,0.8)" />
    </marker>
    <marker
       orient="auto"
       refY="0"
       refX="0"
       id="marker11552"
       style="overflow:visible">
      <path
         id="path11554"
         d="m -2.5,-1 c 0,2.76 -2.24,5 -5,5 -2.76,0 -5,-2.24 -5,-5 0,-2.76 2.24,-5 5,-5 2.76,0 5,2.24 5,5 z"
         style="fill:#000000;fill-opacity:1;fill-rule:evenodd;stroke:#000000;stroke-width:1pt;stroke-opacity:1"
         transform="matrix(0.8,0,0,0.8,5.92,0.8)" />
    </marker>
  </defs>
  <metadata
     id="metadata4392">
    <rdf:RDF>
      <cc:Work
         rdf:about="">
        <dc:format>image/svg+xml</dc:format>
        <dc:type
           rdf:resource="http://purl.org/dc/dcmitype/StillImage" />
        <dc:title></dc:title>
      </cc:Work>
    </rdf:RDF>
  </metadata>
  <g
     transform="translate(-443.61173,-73.734107)"
     id="layer1">
    <g
       id="g8516">
      <rect
         style="opacity:1;fill:#eaf3ff;fill-opacity:1;stroke:#000000;stroke-width:0.95012903;stroke-miterlimit:10;stroke-dasharray:0.95012906, 0.95012906;stroke-dashoffset:0;stroke-opacity:1"
         id="rect5108"
         width="179.04987"
         height="67.192734"
         x="444.08679"
         y="74.209167"
         ry="27.877834" />
      <path
         style="opacity:1;fill:none;fill-opacity:1;stroke:#000000;stroke-width:1.90799999;stroke-miterlimit:10;stroke-dasharray:none;stroke-dashoffset:0;stroke-opacity:1;marker-start:url(#marker11464);marker-mid:url(#marker11552)"
         d="m 478.0767,125.21935 5.32654,0"
         id="path5786" />
      <g
         style="font-style:normal;font-weight:normal;font-size:90px;line-height:125%;font-family:sans-serif;letter-spacing:0px;word-spacing:0px;fill:#000000;fill-opacity:1;stroke:none;stroke-width:1px;stroke-linecap:butt;stroke-linejoin:miter;stroke-opacity:1"
         id="text12696">
        <path
           d="m 483.59302,110.6558 -0.0879,-2.96631 q -1.80176,1.77979 -3.66944,2.5708 -1.8457,0.79102 -3.88916,0.79102 -1.88965,0 -3.22998,-0.4834 -1.34033,-0.4834 -2.21924,-1.31836 -0.85693,-0.85693 -1.27441,-1.99951 -0.39551,-1.14258 -0.39551,-2.48291 0,-3.31787 2.46094,-5.185549 2.48291,-1.889648 7.31689,-1.889648 l 4.57032,0 0,-1.933594 q 0,-1.955566 -1.25244,-3.120117 -1.25245,-1.186524 -3.82325,-1.186524 -1.86767,0 -3.6914,0.417481 -1.80176,0.41748 -3.73535,1.186523 l 0,-3.449707 q 0.72509,-0.263672 1.604,-0.505371 0.90088,-0.263672 1.88965,-0.461426 0.98877,-0.197754 2.06543,-0.307617 1.07666,-0.131836 2.17529,-0.131836 1.99951,0 3.60352,0.439453 1.604,0.439453 2.70263,1.340332 1.12061,0.900879 1.71387,2.263184 0.59326,1.362305 0.59326,3.208008 l 0,15.205078 -3.42773,0 z m -0.41748,-10.0415 -4.85596,0 q -1.42822,0 -2.46094,0.28564 -1.03271,0.28565 -1.69189,0.81299 -0.65918,0.52734 -0.98877,1.27441 -0.30762,0.7251 -0.30762,1.64795 0,0.63721 0.19776,1.23047 0.19775,0.57129 0.6372,1.03272 0.43946,0.43945 1.14258,0.70312 0.70313,0.26367 1.71387,0.26367 1.31836,0 3.01025,-0.79101 1.71387,-0.81299 3.60352,-2.54883 l 0,-3.91113 z"
           style="font-style:normal;font-variant:normal;font-weight:normal;font-stretch:normal;font-size:45px;font-family:Consolas;-inkscape-font-specification:Consolas"
           id="path8511" />
      </g>
      <path
         id="path5388"
         d="m 589.15772,125.21935 -5.68369,0"
         style="opacity:1;fill:none;fill-opacity:1;stroke:#000000;stroke-width:1.90799999;stroke-miterlimit:10;stroke-dasharray:none;stroke-dashoffset:0;stroke-opacity:1;marker-start:url(#marker4761);marker-mid:url(#marker4819)" />
      <g
         style="font-style:normal;font-weight:normal;font-size:90px;line-height:125%;font-family:sans-serif;letter-spacing:0px;word-spacing:0px;fill:#000000;fill-opacity:1;stroke:none;stroke-width:1px;stroke-linecap:butt;stroke-linejoin:miter;stroke-opacity:1"
         id="text6614">
        <path
           d="m 598.73663,99.230019 q 0,2.746581 -0.76904,4.921871 -0.74707,2.15332 -2.15332,3.66944 -1.38428,1.49414 -3.38379,2.30713 -1.99951,0.79101 -4.50439,0.79101 -1.95557,0 -3.99903,-0.37353 -2.04345,-0.37354 -4.04297,-1.18653 l 0,-29.750973 3.82325,0 0,8.547363 -0.17578,4.086914 q 1.64794,-2.219238 3.51562,-3.120117 1.88965,-0.922852 4.04297,-0.922852 1.88965,0 3.31787,0.791016 1.42822,0.791015 2.39502,2.241211 0.9668,1.428222 1.45019,3.471679 0.4834,2.021485 0.4834,4.526368 z M 594.8255,99.4058 q 0,-1.73584 -0.26367,-3.186035 -0.2417,-1.450196 -0.79102,-2.48291 -0.54931,-1.032715 -1.40625,-1.604004 -0.85693,-0.593262 -2.04345,-0.593262 -0.7251,0 -1.47217,0.241699 -0.74707,0.219727 -1.56006,0.769043 -0.79102,0.527344 -1.6919,1.428223 -0.8789,0.878906 -1.88964,2.197265 l 0,10.700681 q 1.1206,0.43946 2.28515,0.70313 1.16455,0.2417 2.21924,0.2417 1.31836,0 2.50488,-0.41748 1.2085,-0.41748 2.10938,-1.38428 0.92285,-0.98877 1.45019,-2.59277 0.54932,-1.62598 0.54932,-4.021 z"
           style="font-style:normal;font-variant:normal;font-weight:normal;font-stretch:normal;font-size:45px;font-family:Consolas;-inkscape-font-specification:Consolas"
           id="path8514" />
      </g>
    </g>
  </g>
</svg>
