<?xml version="1.0" encoding="UTF-8" standalone="no"?>
<svg
   xmlns:dc="http://purl.org/dc/elements/1.1/"
   xmlns:cc="http://creativecommons.org/ns#"
   xmlns:rdf="http://www.w3.org/1999/02/22-rdf-syntax-ns#"
   xmlns:svg="http://www.w3.org/2000/svg"
   xmlns="http://www.w3.org/2000/svg"
   version="1.1"
   id="svg4387"
   viewBox="0 0 68.142858 68.142851"
   height="19.231428mm"
   width="19.231428mm">
  <defs
     id="defs4389">
    <marker
       orient="auto"
       refY="0"
       refX="0"
       id="marker4819"
       style="overflow:visible">
      <path
         id="path4821"
         d="m -2.5,-1 c 0,2.76 -2.24,5 -5,5 -2.76,0 -5,-2.24 -5,-5 0,-2.76 2.24,-5 5,-5 2.76,0 5,2.24 5,5 z"
         style="fill:#000000;fill-opacity:1;fill-rule:evenodd;stroke:#000000;stroke-width:1pt;stroke-opacity:1"
         transform="matrix(0.8,0,0,0.8,5.92,0.8)" />
    </marker>
    <marker
       orient="auto"
       refY="0"
       refX="0"
       id="marker4761"
       style="overflow:visible">
      <path
         id="path4763"
         d="m -2.5,-1 c 0,2.76 -2.24,5 -5,5 -2.76,0 -5,-2.24 -5,-5 0,-2.76 2.24,-5 5,-5 2.76,0 5,2.24 5,5 z"
         style="fill:#000000;fill-opacity:1;fill-rule:evenodd;stroke:#000000;stroke-width:1pt;stroke-opacity:1"
         transform="matrix(0.8,0,0,0.8,5.92,0.8)" />
    </marker>
    <marker
       style="overflow:visible"
       id="marker4539"
       refX="0"
       refY="0"
       orient="auto">
      <path
         transform="matrix(0.8,0,0,0.8,5.92,0.8)"
         style="fill:#000000;fill-opacity:1;fill-rule:evenodd;stroke:#000000;stroke-width:1pt;stroke-opacity:1"
         d="m -2.5,-1 c 0,2.76 -2.24,5 -5,5 -2.76,0 -5,-2.24 -5,-5 0,-2.76 2.24,-5 5,-5 2.76,0 5,2.24 5,5 z"
         id="path4541" />
    </marker>
    <marker
       style="overflow:visible"
       id="marker4493"
       refX="0"
       refY="0"
       orient="auto">
      <path
         transform="matrix(0.8,0,0,0.8,5.92,0.8)"
         style="fill:#000000;fill-opacity:1;fill-rule:evenodd;stroke:#000000;stroke-width:1pt;stroke-opacity:1"
         d="m -2.5,-1 c 0,2.76 -2.24,5 -5,5 -2.76,0 -5,-2.24 -5,-5 0,-2.76 2.24,-5 5,-5 2.76,0 5,2.24 5,5 z"
         id="path4495" />
    </marker>
    <marker
       style="overflow:visible"
       id="marker5464"
       refX="0"
       refY="0"
       orient="auto">
      <path
         transform="matrix(-0.8,0,0,-0.8,-10,0)"
         style="fill:#000000;fill-opacity:1;fill-rule:evenodd;stroke:#000000;stroke-width:1pt;stroke-opacity:1"
         d="M 0,0 5,-5 -12.5,0 5,5 0,0 Z"
         id="path5466" />
    </marker>
  </defs>
  <metadata
     id="metadata4392">
    <rdf:RDF>
      <cc:Work
         rdf:about="">
        <dc:format>image/svg+xml</dc:format>
        <dc:type
           rdf:resource="http://purl.org/dc/dcmitype/StillImage" />
        <dc:title></dc:title>
      </cc:Work>
    </rdf:RDF>
  </metadata>
  <g
     transform="translate(-195.56694,-73.734104)"
     id="layer1">
    <g
       id="g8112">
      <circle
         style="opacity:1;fill:#eaf3ff;fill-opacity:1;stroke:#000000;stroke-width:1;stroke-miterlimit:10;stroke-dasharray:1, 1;stroke-dashoffset:0;stroke-opacity:1"
         id="path4699"
         cx="229.63837"
         cy="107.80553"
         r="33.571426" />
      <path
         id="path4481"
         d="m 229.791,125.21935 5.32654,0"
         style="opacity:1;fill:none;fill-opacity:1;stroke:#000000;stroke-width:1.90799999;stroke-miterlimit:10;stroke-dasharray:none;stroke-dashoffset:0;stroke-opacity:1;marker-start:url(#marker4493);marker-mid:url(#marker4539)" />
      <g
         style="font-style:normal;font-weight:normal;font-size:90px;line-height:125%;font-family:sans-serif;letter-spacing:0px;word-spacing:0px;fill:#000000;fill-opacity:1;stroke:none;stroke-width:1px;stroke-linecap:butt;stroke-linejoin:miter;stroke-opacity:1"
         id="text4485">
        <path
           d="m 235.30731,110.6558 -0.0879,-2.96631 q -1.80176,1.77979 -3.66943,2.5708 -1.84571,0.79102 -3.88916,0.79102 -1.88965,0 -3.22998,-0.4834 -1.34033,-0.4834 -2.21924,-1.31836 -0.85693,-0.85693 -1.27442,-1.99951 -0.3955,-1.14258 -0.3955,-2.48291 0,-3.31787 2.46093,-5.185549 2.48291,-1.889648 7.3169,-1.889648 l 4.57031,0 0,-1.933594 q 0,-1.955566 -1.25244,-3.120117 -1.25244,-1.186524 -3.82324,-1.186524 -1.86768,0 -3.69141,0.417481 -1.80176,0.41748 -3.73535,1.186523 l 0,-3.449707 q 0.7251,-0.263672 1.604,-0.505371 0.90088,-0.263672 1.88965,-0.461426 0.98877,-0.197754 2.06543,-0.307617 1.07666,-0.131836 2.1753,-0.131836 1.99951,0 3.60351,0.439453 1.604,0.439453 2.70264,1.340332 1.1206,0.900879 1.71386,2.263184 0.59327,1.362305 0.59327,3.208008 l 0,15.205078 -3.42774,0 z m -0.41748,-10.0415 -4.85596,0 q -1.42822,0 -2.46093,0.28564 -1.03272,0.28565 -1.6919,0.81299 -0.65918,0.52734 -0.98877,1.27441 -0.30761,0.7251 -0.30761,1.64795 0,0.63721 0.19775,1.23047 0.19775,0.57129 0.63721,1.03272 0.43945,0.43945 1.14257,0.70312 0.70313,0.26367 1.71387,0.26367 1.31836,0 3.01026,-0.79101 1.71386,-0.81299 3.60351,-2.54883 l 0,-3.91113 z"
           style="font-style:normal;font-variant:normal;font-weight:normal;font-stretch:normal;font-size:45px;font-family:Consolas;-inkscape-font-specification:Consolas"
           id="path8110" />
      </g>
    </g>
  </g>
</svg>
